<?xml version="1.0" encoding="utf-8"?>
<!-- Generator: Adobe Illustrator 19.0.0, SVG Export Plug-In . SVG Version: 6.00 Build 0)  -->
<svg version="1.1" xmlns="http://www.w3.org/2000/svg" xmlns:xlink="http://www.w3.org/1999/xlink" x="0px" y="0px"
	 viewBox="0 0 279 475.8" style="enable-background:new 0 0 279 475.8;" xml:space="preserve">
<style type="text/css">
	.st0{fill:url(#SVGID_1_);}
	.st1{fill:#ED1C24;}
	.st2{fill:#FFFFFF;}
	.st3{fill:#EC1C24;}
	.st4{fill:#8F3663;}
	.st5{fill:#998675;}
</style>
<g id="BACKGROUND">
	
		<radialGradient id="SVGID_1_" cx="-795.5839" cy="221.3976" r="572.2825" gradientTransform="matrix(0.9981 0 0 1 -0.9988 0)" gradientUnits="userSpaceOnUse">
		<stop  offset="0" style="stop-color:#FFFFFF"/>
		<stop  offset="0.9993" style="stop-color:#F2F2F2"/>
	</radialGradient>
	<rect x="-1211.5" y="-71.6" class="st0" width="799" height="625"/>
	<g>
		<circle class="st1" cx="-945.1" cy="489.7" r="27.6"/>
		<path class="st2" d="M-961.1,506.9l0.5-1.2c0.1-0.1,5.4-13.9,5.5-20.8l0-0.5l0.4-0.1c3.5-0.8,9.2-2.3,10.9-3.5l-1.8-1.8l2.8-2.8
			l1.8,1.8l3.9-3.9l8.7,8.7l-3.8,3.8l1.9,1.9l-2.9,2.9l-1.8-1.8c-1.4,2.4-2.8,8.5-3.2,10.8l-0.1,0.4l-0.4,0
			c-8.2,0.6-21,5.5-21.2,5.5L-961.1,506.9z M-954,485.4c-0.3,6-3.8,16-5.1,19.5c3.4-1.2,12.9-4.5,19.8-5.1c0.4-1.9,2-9.3,3.8-11.4
			l0.4-0.5l2,2l1.2-1.2l-1.9-1.9l3.8-3.8l-7-7l-3.9,3.9l-1.8-1.8l-1.1,1.1l1.8,1.8l-0.3,0.4C-943.7,482.9-951.5,484.8-954,485.4z"/>
		<path class="st2" d="M-958.4,505.8l-1.7-1.7l11.5-11.5l1.7,1.7L-958.4,505.8z M-959,504.1l0.6,0.6l10.4-10.4l-0.6-0.6L-959,504.1z
			"/>
		<path class="st2" d="M-946.6,494.9c-0.7,0-1.3-0.3-1.8-0.7c-0.5-0.5-0.7-1.1-0.7-1.8c0-0.7,0.3-1.3,0.7-1.8
			c0.5-0.5,1.1-0.7,1.8-0.7c0.7,0,1.3,0.3,1.8,0.7c0.5,0.5,0.7,1.1,0.7,1.8c0,0.7-0.3,1.3-0.7,1.8
			C-945.3,494.6-945.9,494.9-946.6,494.9z M-946.6,490.8c-0.4,0-0.8,0.2-1.1,0.5c-0.3,0.3-0.5,0.7-0.5,1.1c0,0.4,0.2,0.8,0.5,1.1
			c0.3,0.3,0.7,0.5,1.1,0.5c0.4,0,0.8-0.2,1.1-0.5c0.3-0.3,0.5-0.7,0.5-1.1c0-0.4-0.2-0.8-0.5-1.1
			C-945.8,491-946.2,490.8-946.6,490.8z"/>
		<polyline class="st1" points="-948.8,493.9 -947.9,492.9 -947.2,493.6 -948.3,494.5 		"/>
		<polyline class="st3" points="-958.9,504.1 -960.8,506.1 -960.7,507 -959.8,506.7 -959.5,506.2 -958.3,504.8 		"/>
		
			<rect x="-959.5" y="510.3" transform="matrix(0.9307 0.3657 -0.3657 0.9307 121.3002 381.3875)" class="st2" width="26.7" height="1.2"/>
		<g>
			
				<rect x="-960.8" y="503.8" transform="matrix(7.317155e-002 0.9973 -0.9973 7.317155e-002 -385.2673 1425.0911)" class="st1" width="2.8" height="2.8"/>
			<path class="st2" d="M-961.2,507.4l-0.3-4l4-0.3l0.3,4L-961.2,507.4z M-960.3,504.5l0.1,1.7l1.7-0.1l-0.1-1.7L-960.3,504.5z"/>
		</g>
	</g>
	<g>
		<g>
			<text transform="matrix(1 0 0 1 -908.3248 499.4719)"><tspan x="0" y="0" style="fill:#4D4D4D; font-family:'MyriadPro-Semibold'; font-size:25.5329px;">w</tspan><tspan x="19.5" y="0" style="fill:#4D4D4D; font-family:'MyriadPro-Semibold'; font-size:25.5329px;">w</tspan></text>
		</g>
		<g>
			
				<text transform="matrix(1 0 0 1 -869.2603 499.4719)" style="fill:#4D4D4D; font-family:'MyriadPro-Semibold'; font-size:25.5329px;">w</text>
		</g>
		<g>
			
				<text transform="matrix(1 0 0 1 -851.2599 499.4719)" style="fill:#4D4D4D; font-family:'MyriadPro-Semibold'; font-size:25.5329px;">.</text>
		</g>
		<g>
			
				<text transform="matrix(1 0 0 1 -845.234 499.4719)" style="fill:#4D4D4D; font-family:'MyriadPro-Semibold'; font-size:25.5329px;">v</text>
		</g>
		<g>
			
				<text transform="matrix(1 0 0 1 -832.5953 499.4719)" style="fill:#4D4D4D; font-family:'MyriadPro-Semibold'; font-size:25.5329px;">e</text>
		</g>
		<g>
			
				<text transform="matrix(1 0 0 1 -819.4205 499.4719)" style="fill:#4D4D4D; font-family:'MyriadPro-Semibold'; font-size:25.5329px;">c</text>
		</g>
		<g>
			
				<text transform="matrix(1 0 0 1 -807.5733 499.4719)" style="fill:#4D4D4D; font-family:'MyriadPro-Semibold'; font-size:25.5329px;">t</text>
		</g>
		<g>
			
				<text transform="matrix(1 0 0 1 -798.7647 499.4719)" style="fill:#4D4D4D; font-family:'MyriadPro-Semibold'; font-size:25.5329px;">ori</text>
		</g>
		<g>
			
				<text transform="matrix(1 0 0 1 -768.7384 499.4719)" style="fill:#4D4D4D; font-family:'MyriadPro-Semibold'; font-size:25.5329px;">z</text>
		</g>
		<g>
			
				<text transform="matrix(1 0 0 1 -757.4269 499.4719)" style="fill:#4D4D4D; font-family:'MyriadPro-Semibold'; font-size:25.5329px;">eimage</text>
		</g>
		<g>
			
				<text transform="matrix(1 0 0 1 -675.2892 499.4719)" style="fill:#4D4D4D; font-family:'MyriadPro-Semibold'; font-size:25.5329px;">s</text>
		</g>
		<g>
			
				<text transform="matrix(1 0 0 1 -664.9229 499.4719)" style="fill:#4D4D4D; font-family:'MyriadPro-Semibold'; font-size:25.5329px;">.</text>
		</g>
		<g>
			
				<text transform="matrix(1 0 0 1 -658.8966 499.4719)" style="fill:#4D4D4D; font-family:'MyriadPro-Semibold'; font-size:25.5329px;">c</text>
		</g>
		<g>
			
				<text transform="matrix(1 0 0 1 -647.6622 499.4719)" style="fill:#4D4D4D; font-family:'MyriadPro-Semibold'; font-size:25.5329px;">om</text>
		</g>
	</g>
	<g>
		<g>
			
				<text transform="matrix(1 0 0 1 -1088.8102 1.8122)" style="fill:#FF1D25; font-family:'MyriadPro-Regular'; font-size:33.8602px;">F</text>
		</g>
		<g>
			
				<text transform="matrix(1 0 0 1 -1073.2003 1.8122)" style="fill:#FF1D25; font-family:'MyriadPro-Regular'; font-size:33.8602px;">r</text>
		</g>
		<g>
			
				<text transform="matrix(1 0 0 1 -1062.4664 1.8122)" style="fill:#FF1D25; font-family:'MyriadPro-Regular'; font-size:33.8602px;">ee </text>
		</g>
		<g>
			
				<text transform="matrix(1 0 0 1 -1021.3609 1.8122)" style="fill:#FF1D25; font-family:'MyriadPro-Regular'; font-size:33.8602px;">D</text>
		</g>
		<g>
			
				<text transform="matrix(1 0 0 1 -998.6754 1.8122)" style="fill:#FF1D25; font-family:'MyriadPro-Regular'; font-size:33.8602px;">esi</text>
		</g>
		<g>
			<text transform="matrix(1 0 0 1 -960.38 1.8122)" style="fill:#FF1D25; font-family:'MyriadPro-Regular'; font-size:33.8602px;">g</text>
		</g>
		<g>
			
				<text transform="matrix(1 0 0 1 -941.6554 1.8122)" style="fill:#FF1D25; font-family:'MyriadPro-Regular'; font-size:33.8602px;">ner </text>
		</g>
		<g>
			
				<text transform="matrix(1 0 0 1 -887.6495 1.8122)" style="fill:#FF1D25; font-family:'MyriadPro-Regular'; font-size:33.8602px;">P</text>
		</g>
		<g>
			
				<text transform="matrix(1 0 0 1 -870.4825 1.8122)" style="fill:#FF1D25; font-family:'MyriadPro-Regular'; font-size:33.8602px;">o</text>
		</g>
		<g>
			
				<text transform="matrix(1 0 0 1 -851.8932 1.8122)" style="fill:#FF1D25; font-family:'MyriadPro-Regular'; font-size:33.8602px;">r</text>
		</g>
		<g>
			
				<text transform="matrix(1 0 0 1 -840.0089 1.8122)" style="fill:#FF1D25; font-family:'MyriadPro-Regular'; font-size:33.8602px;">t</text>
		</g>
		<g>
			
				<text transform="matrix(1 0 0 1 -828.8014 1.8122)" style="fill:#FF1D25; font-family:'MyriadPro-Regular'; font-size:33.8602px;">f</text>
		</g>
		<g>
			
				<text transform="matrix(1 0 0 1 -819.3541 1.8122)" style="fill:#FF1D25; font-family:'MyriadPro-Regular'; font-size:33.8602px;">olio</text>
		</g>
		<g>
			
				<text transform="matrix(1 0 0 1 -766.2618 1.8122)" style="fill:#4D4D4D; font-family:'MyriadPro-Regular'; font-size:33.8602px;"> </text>
		</g>
		<g>
			<text transform="matrix(1 0 0 1 -759.0841 1.8122)" style="fill:#4D4D4D; font-family:'MyriadPro-Bold'; font-size:33.8602px;">V</text>
		</g>
		<g>
			<text transform="matrix(1 0 0 1 -738.9718 1.8122)" style="fill:#4D4D4D; font-family:'MyriadPro-Bold'; font-size:33.8602px;">e</text>
		</g>
		<g>
			<text transform="matrix(1 0 0 1 -721.0929 1.8122)" style="fill:#4D4D4D; font-family:'MyriadPro-Bold'; font-size:33.8602px;">c</text>
		</g>
		<g>
			<text transform="matrix(1 0 0 1 -705.2813 1.8122)" style="fill:#4D4D4D; font-family:'MyriadPro-Bold'; font-size:33.8602px;">t</text>
		</g>
		<g>
			<text transform="matrix(1 0 0 1 -693.0235 1.8122)" style="fill:#4D4D4D; font-family:'MyriadPro-Bold'; font-size:33.8602px;">or </text>
		</g>
		<g>
			<text transform="matrix(1 0 0 1 -653.7804 1.8122)" style="fill:#4D4D4D; font-family:'MyriadPro-Bold'; font-size:33.8602px;">I</text>
		</g>
		<g>
			<text transform="matrix(1 0 0 1 -644.2315 1.8122)" style="fill:#4D4D4D; font-family:'MyriadPro-Bold'; font-size:33.8602px;">c</text>
		</g>
		<g>
			<text transform="matrix(1 0 0 1 -629.3331 1.8122)" style="fill:#4D4D4D; font-family:'MyriadPro-Bold'; font-size:33.8602px;">on </text>
		</g>
		<g>
			<text transform="matrix(1 0 0 1 -583.1144 1.8122)" style="fill:#4D4D4D; font-family:'MyriadPro-Bold'; font-size:33.8602px;">S</text>
		</g>
		<g>
			<text transform="matrix(1 0 0 1 -564.5938 1.8122)" style="fill:#4D4D4D; font-family:'MyriadPro-Bold'; font-size:33.8602px;">et</text>
		</g>
	</g>
	<g>
		<g>
			
				<text transform="matrix(1 0 0 1 -946.4483 37.6696)" style="fill:#666666; font-family:'MyriadPro-Regular'; font-size:19.7395px;">(</text>
		</g>
		<g>
			
				<text transform="matrix(1 0 0 1 -940.0724 37.6696)" style="fill:#666666; font-family:'MyriadPro-Regular'; font-size:19.7395px;">A</text>
		</g>
		<g>
			<text transform="matrix(1 0 0 1 -927.0636 37.6696)"><tspan x="0" y="0" style="fill:#666666; font-family:'MyriadPro-Regular'; font-size:19.7395px;">i, P</tspan><tspan x="27.3" y="0" style="fill:#666666; font-family:'MyriadPro-Regular'; font-size:19.7395px;">D</tspan></text>
		</g>
		<g>
			
				<text transform="matrix(1 0 0 1 -885.5919 37.6696)" style="fill:#666666; font-family:'MyriadPro-Regular'; font-size:19.7395px;">F</text>
		</g>
		<g>
			<text transform="matrix(1 0 0 1 -876.9063 37.6696)"><tspan x="0" y="0" style="fill:#666666; font-family:'MyriadPro-Regular'; font-size:19.7395px;">, EPS and PNG</tspan><tspan x="127" y="0" style="fill:#666666; font-family:'MyriadPro-Regular'; font-size:19.7395px;"> </tspan></text>
		</g>
		<g>
			
				<text transform="matrix(1 0 0 1 -744.4757 37.6696)" style="fill:#666666; font-family:'MyriadPro-Regular'; font-size:19.7395px;">f</text>
		</g>
		<g>
			
				<text transform="matrix(1 0 0 1 -737.9815 37.6696)" style="fill:#666666; font-family:'MyriadPro-Regular'; font-size:19.7395px;">o</text>
		</g>
		<g>
			
				<text transform="matrix(1 0 0 1 -726.1573 37.6696)" style="fill:#666666; font-family:'MyriadPro-Regular'; font-size:19.7395px;">r</text>
		</g>
		<g>
			
				<text transform="matrix(1 0 0 1 -718.6368 37.6696)" style="fill:#666666; font-family:'MyriadPro-Regular'; font-size:19.7395px;">m</text>
		</g>
		<g>
			
				<text transform="matrix(1 0 0 1 -701.1876 37.6696)" style="fill:#666666; font-family:'MyriadPro-Regular'; font-size:19.7395px;">a</text>
		</g>
		<g>
			<text transform="matrix(1 0 0 1 -690.7646 37.6696)"><tspan x="0" y="0" style="fill:#666666; font-family:'MyriadPro-Regular'; font-size:19.7395px;">t</tspan><tspan x="7.5" y="0" style="fill:#666666; font-family:'MyriadPro-Regular'; font-size:19.7395px;">)</tspan></text>
		</g>
	</g>
</g>
<g id="TEXT">
	<g>
		<g>
			
				<text transform="matrix(1 0 0 1 -841.5499 383.421)" class="st5" style="font-family:'MyriadPro-Regular'; font-size:18.8993px;">A</text>
		</g>
		<g>
			
				<text transform="matrix(1 0 0 1 -830.0401 383.421)" class="st5" style="font-family:'MyriadPro-Regular'; font-size:18.8993px;">bout</text>
		</g>
	</g>
	<g>
		<g>
			
				<text transform="matrix(1 0 0 1 -704.0499 383.921)" class="st5" style="font-family:'MyriadPro-Regular'; font-size:18.8993px;">S</text>
		</g>
		<g>
			
				<text transform="matrix(1 0 0 1 -694.6192 383.921)" class="st5" style="font-family:'MyriadPro-Regular'; font-size:18.8993px;">e</text>
		</g>
		<g>
			
				<text transform="matrix(1 0 0 1 -685.1505 383.921)" class="st5" style="font-family:'MyriadPro-Regular'; font-size:18.8993px;">r</text>
		</g>
		<g>
			
				<text transform="matrix(1 0 0 1 -678.4981 383.921)" class="st5" style="font-family:'MyriadPro-Regular'; font-size:18.8993px;">vi</text>
		</g>
		<g>
			
				<text transform="matrix(1 0 0 1 -664.9854 383.921)" class="st5" style="font-family:'MyriadPro-Regular'; font-size:18.8993px;">c</text>
		</g>
		<g>
			
				<text transform="matrix(1 0 0 1 -656.6329 383.921)" class="st5" style="font-family:'MyriadPro-Regular'; font-size:18.8993px;">es</text>
		</g>
	</g>
	<g>
		<g>
			
				<text transform="matrix(1 0 0 1 -577.0499 383.921)" class="st5" style="font-family:'MyriadPro-Regular'; font-size:18.8993px;">C</text>
		</g>
		<g>
			<text transform="matrix(1 0 0 1 -566.296 383.921)" class="st5" style="font-family:'MyriadPro-Regular'; font-size:18.8993px;">o</text>
		</g>
		<g>
			<text transform="matrix(1 0 0 1 -555.92 383.921)" class="st5" style="font-family:'MyriadPro-Regular'; font-size:18.8993px;">n</text>
		</g>
		<g>
			
				<text transform="matrix(1 0 0 1 -545.5068 383.921)" class="st5" style="font-family:'MyriadPro-Regular'; font-size:18.8993px;">ta</text>
		</g>
		<g>
			
				<text transform="matrix(1 0 0 1 -530.1427 383.921)" class="st5" style="font-family:'MyriadPro-Regular'; font-size:18.8993px;">c</text>
		</g>
		<g>
			
				<text transform="matrix(1 0 0 1 -521.4298 383.921)" class="st5" style="font-family:'MyriadPro-Regular'; font-size:18.8993px;">t</text>
		</g>
	</g>
	<g>
		<g>
			
				<text transform="matrix(1 0 0 1 -967.5499 383.421)" class="st5" style="font-family:'MyriadPro-Regular'; font-size:18.8993px;">P</text>
		</g>
		<g>
			
				<text transform="matrix(1 0 0 1 -957.5898 383.421)" class="st5" style="font-family:'MyriadPro-Regular'; font-size:18.8993px;">l</text>
		</g>
		<g>
			<text transform="matrix(1 0 0 1 -953.13 383.421)" class="st5" style="font-family:'MyriadPro-Regular'; font-size:18.8993px;">a</text>
		</g>
		<g>
			
				<text transform="matrix(1 0 0 1 -944.1715 383.421)" class="st5" style="font-family:'MyriadPro-Regular'; font-size:18.8993px;">y</text>
		</g>
	</g>
	<g>
		<g>
			
				<text transform="matrix(1 0 0 1 -1108.0499 384.421)" class="st5" style="font-family:'MyriadPro-Regular'; font-size:18.8993px;">P</text>
		</g>
		<g>
			
				<text transform="matrix(1 0 0 1 -1098.4679 384.421)" class="st5" style="font-family:'MyriadPro-Regular'; font-size:18.8993px;">o</text>
		</g>
		<g>
			
				<text transform="matrix(1 0 0 1 -1088.0924 384.421)" class="st5" style="font-family:'MyriadPro-Regular'; font-size:18.8993px;">r</text>
		</g>
		<g>
			
				<text transform="matrix(1 0 0 1 -1081.4591 384.421)" class="st5" style="font-family:'MyriadPro-Regular'; font-size:18.8993px;">t</text>
		</g>
		<g>
			
				<text transform="matrix(1 0 0 1 -1075.2031 384.421)" class="st5" style="font-family:'MyriadPro-Regular'; font-size:18.8993px;">f</text>
		</g>
		<g>
			
				<text transform="matrix(1 0 0 1 -1069.9308 384.421)" class="st5" style="font-family:'MyriadPro-Regular'; font-size:18.8993px;">olio</text>
		</g>
	</g>
	<g>
		<g>
			
				<text transform="matrix(1 0 0 1 -847.5499 232.421)" class="st5" style="font-family:'MyriadPro-Regular'; font-size:18.8993px;">F</text>
		</g>
		<g>
			
				<text transform="matrix(1 0 0 1 -839.1964 232.421)" class="st5" style="font-family:'MyriadPro-Regular'; font-size:18.8993px;">a</text>
		</g>
		<g>
			
				<text transform="matrix(1 0 0 1 -830.2384 232.421)" class="st5" style="font-family:'MyriadPro-Regular'; font-size:18.8993px;">v</text>
		</g>
		<g>
			
				<text transform="matrix(1 0 0 1 -821.3365 232.421)" class="st5" style="font-family:'MyriadPro-Regular'; font-size:18.8993px;">ou</text>
		</g>
		<g>
			
				<text transform="matrix(1 0 0 1 -800.5479 232.421)" class="st5" style="font-family:'MyriadPro-Regular'; font-size:18.8993px;">r</text>
		</g>
		<g>
			
				<text transform="matrix(1 0 0 1 -794.2921 232.421)" class="st5" style="font-family:'MyriadPro-Regular'; font-size:18.8993px;">i</text>
		</g>
		<g>
			
				<text transform="matrix(1 0 0 1 -789.8702 232.421)" class="st5" style="font-family:'MyriadPro-Regular'; font-size:18.8993px;">t</text>
		</g>
		<g>
			
				<text transform="matrix(1 0 0 1 -783.7276 232.421)" class="st5" style="font-family:'MyriadPro-Regular'; font-size:18.8993px;">e</text>
		</g>
	</g>
	<g>
		<g>
			
				<text transform="matrix(1 0 0 1 -702.0499 231.921)" class="st5" style="font-family:'MyriadPro-Regular'; font-size:18.8993px;">F</text>
		</g>
		<g>
			
				<text transform="matrix(1 0 0 1 -693.4317 231.921)" class="st5" style="font-family:'MyriadPro-Regular'; font-size:18.8993px;">orum</text>
		</g>
	</g>
	<g>
		<g>
			
				<text transform="matrix(1 0 0 1 -573.5499 231.421)" class="st5" style="font-family:'MyriadPro-Regular'; font-size:18.8993px;">P</text>
		</g>
		<g>
			
				<text transform="matrix(1 0 0 1 -563.7979 231.421)" class="st5" style="font-family:'MyriadPro-Regular'; font-size:18.8993px;">r</text>
		</g>
		<g>
			
				<text transform="matrix(1 0 0 1 -557.5421 231.421)" class="st5" style="font-family:'MyriadPro-Regular'; font-size:18.8993px;">icing</text>
		</g>
	</g>
	<g>
		<g>
			
				<text transform="matrix(1 0 0 1 -965.5499 232.421)" class="st5" style="font-family:'MyriadPro-Regular'; font-size:18.8993px;">Blog</text>
		</g>
	</g>
	<g>
		<g>
			<path class="st4" d="M71.9,379.7l-3.6,10.9h-4.6l11.9-34.8h5.4l11.9,34.8H88l-3.7-10.9H71.9z M83.4,376.2l-3.5-10
				c-0.8-2.3-1.3-4.3-1.8-6.4H78c-0.5,2-1,4.2-1.8,6.3l-3.4,10.1H83.4z"/>
		</g>
		<g>
			<path class="st4" d="M97.6,354h4.5v15.7h0.1c1.6-2.8,4.5-4.5,8.5-4.5c6.2,0,10.6,5.2,10.6,12.7c0,8.9-5.7,13.4-11.3,13.4
				c-3.6,0-6.5-1.4-8.4-4.6h-0.1l-0.3,4.1h-3.9c0.1-1.7,0.2-4.2,0.2-6.5V354z M102.1,380.7c0,0.6,0.1,1.1,0.2,1.7
				c0.8,3.2,3.5,5.3,6.8,5.3c4.8,0,7.6-3.9,7.6-9.6c0-5-2.6-9.3-7.5-9.3c-3,0-5.9,2.2-6.9,5.6c-0.2,0.6-0.3,1.2-0.3,1.9V380.7z"/>
			<path class="st4" d="M149.6,378c0,9.2-6.5,13.3-12.4,13.3c-6.7,0-12-5-12-12.9c0-8.3,5.5-13.2,12.4-13.2
				C144.7,365.2,149.6,370.4,149.6,378z M129.8,378.2c0,5.5,3.1,9.6,7.5,9.6c4.3,0,7.6-4.1,7.6-9.7c0-4.2-2.1-9.6-7.5-9.6
				C132.1,368.6,129.8,373.5,129.8,378.2z"/>
			<path class="st4" d="M176.2,383.8c0,2.6,0.1,4.9,0.2,6.9h-4l-0.3-4.1H172c-1.1,2-3.8,4.6-8.3,4.6c-3.9,0-8.6-2.2-8.6-10.9v-14.6
				h4.5v13.8c0,4.8,1.5,8,5.6,8c3,0,5.2-2.1,6-4.2c0.3-0.6,0.4-1.4,0.4-2.3v-15.3h4.5V383.8z"/>
			<path class="st4" d="M189.2,359.7v6h6.5v3.5h-6.5v13.5c0,3.1,0.9,4.9,3.4,4.9c1.2,0,2-0.1,2.6-0.3l0.2,3.5
				c-0.9,0.3-2.3,0.6-4,0.6c-2.1,0-3.8-0.7-4.9-1.9c-1.2-1.4-1.8-3.6-1.8-6.6v-13.6h-3.9v-3.5h3.9V361L189.2,359.7z"/>
		</g>
	</g>
	<g>
		<g>
			
				<text transform="matrix(1 0 0 1 1181.9501 383.921)" class="st5" style="font-family:'MyriadPro-Regular'; font-size:18.8993px;">S</text>
		</g>
		<g>
			
				<text transform="matrix(1 0 0 1 1191.3807 383.921)" class="st5" style="font-family:'MyriadPro-Regular'; font-size:18.8993px;">e</text>
		</g>
		<g>
			
				<text transform="matrix(1 0 0 1 1200.8495 383.921)" class="st5" style="font-family:'MyriadPro-Regular'; font-size:18.8993px;">r</text>
		</g>
		<g>
			
				<text transform="matrix(1 0 0 1 1207.5018 383.921)" class="st5" style="font-family:'MyriadPro-Regular'; font-size:18.8993px;">vi</text>
		</g>
		<g>
			
				<text transform="matrix(1 0 0 1 1221.0145 383.921)" class="st5" style="font-family:'MyriadPro-Regular'; font-size:18.8993px;">c</text>
		</g>
		<g>
			
				<text transform="matrix(1 0 0 1 1229.3671 383.921)" class="st5" style="font-family:'MyriadPro-Regular'; font-size:18.8993px;">es</text>
		</g>
	</g>
	<g>
		<g>
			<path class="st4" d="M1097.3-222.1c-1.9,1-5.8,1.9-10.8,1.9c-11.6,0-20.2-7.3-20.2-20.8c0-12.9,8.7-21.6,21.4-21.6
				c5.1,0,8.3,1.1,9.7,1.8l-1.3,4.3c-1.9-1-4.8-1.7-8.2-1.7c-9.6,0-16,6.1-16,16.9c0,10.1,5.8,16.5,15.7,16.5c3.3,0,6.6-0.7,8.7-1.7
				L1097.3-222.1z"/>
		</g>
		<g>
			<path class="st4" d="M1129.8-235.8c0,10.9-7.6,15.6-14.7,15.6c-7.9,0-14.1-5.8-14.1-15.2c0-9.8,6.5-15.6,14.6-15.6
				C1124-250.9,1129.8-244.8,1129.8-235.8z M1106.4-235.5c0,6.5,3.7,11.3,8.9,11.3c5.1,0,8.9-4.8,8.9-11.4c0-5-2.5-11.3-8.8-11.3
				C1109.2-246.9,1106.4-241.1,1106.4-235.5z"/>
		</g>
		<g>
			<path class="st4" d="M1136.5-242.4c0-3.1-0.1-5.5-0.2-8h4.7l0.3,4.9h0.1c1.5-2.7,4.9-5.5,9.7-5.5c4.1,0,10.4,2.4,10.4,12.5v17.5
				h-5.4v-17c0-4.7-1.8-8.7-6.8-8.7c-3.5,0-6.2,2.5-7.2,5.5c-0.2,0.7-0.4,1.6-0.4,2.5v17.7h-5.4V-242.4z"/>
		</g>
		<g>
			<path class="st4" d="M1176.5-257.4v7.1h7.7v4.1h-7.7v15.9c0,3.7,1,5.7,4,5.7c1.5,0,2.3-0.1,3.1-0.4l0.2,4.1
				c-1,0.4-2.7,0.7-4.7,0.7c-2.5,0-4.5-0.9-5.8-2.3c-1.5-1.6-2.1-4.3-2.1-7.7v-16.1h-4.6v-4.1h4.6v-5.5L1176.5-257.4z"/>
			<path class="st4" d="M1210.9-227.9c0,2.6,0.1,5.1,0.4,7.1h-4.8l-0.4-3.7h-0.2c-1.6,2.3-4.8,4.4-9,4.4c-6,0-9-4.2-9-8.5
				c0-7.1,6.3-11,17.7-11v-0.6c0-2.4-0.7-6.8-6.7-6.8c-2.8,0-5.7,0.8-7.7,2.2l-1.2-3.6c2.4-1.5,6-2.6,9.7-2.6c9,0,11.2,6.1,11.2,12
				V-227.9z M1205.7-235.9c-5.8-0.1-12.5,0.9-12.5,6.6c0,3.5,2.3,5.1,5,5.1c3.9,0,6.4-2.4,7.2-4.9c0.2-0.6,0.2-1.2,0.2-1.7V-235.9z"
				/>
		</g>
		<g>
			<path class="st4" d="M1240.5-221.9c-1.4,0.7-4.5,1.7-8.5,1.7c-8.9,0-14.7-6-14.7-15c0-9.1,6.2-15.7,15.8-15.7
				c3.2,0,6,0.8,7.4,1.6l-1.2,4.1c-1.3-0.7-3.3-1.4-6.2-1.4c-6.8,0-10.4,5.1-10.4,11.1c0,6.8,4.4,11,10.2,11c3,0,5.1-0.7,6.6-1.4
				L1240.5-221.9z"/>
		</g>
		<g>
			<path class="st4" d="M1254-257.4v7.1h7.7v4.1h-7.7v15.9c0,3.7,1,5.7,4,5.7c1.5,0,2.3-0.1,3.1-0.4l0.2,4.1c-1,0.4-2.7,0.7-4.7,0.7
				c-2.5,0-4.5-0.9-5.8-2.3c-1.5-1.6-2.1-4.3-2.1-7.7v-16.1h-4.6v-4.1h4.6v-5.5L1254-257.4z"/>
		</g>
	</g>
	<g>
		<g>
			<text transform="matrix(1 0 0 1 918.4501 383.421)" class="st5" style="font-family:'MyriadPro-Regular'; font-size:18.8993px;">P</text>
		</g>
		<g>
			<text transform="matrix(1 0 0 1 928.4101 383.421)" class="st5" style="font-family:'MyriadPro-Regular'; font-size:18.8993px;">l</text>
		</g>
		<g>
			<text transform="matrix(1 0 0 1 932.8701 383.421)" class="st5" style="font-family:'MyriadPro-Regular'; font-size:18.8993px;">a</text>
		</g>
		<g>
			<text transform="matrix(1 0 0 1 941.8286 383.421)" class="st5" style="font-family:'MyriadPro-Regular'; font-size:18.8993px;">y</text>
		</g>
	</g>
	<g>
		<g>
			<text transform="matrix(1 0 0 1 777.9501 384.421)" class="st5" style="font-family:'MyriadPro-Regular'; font-size:18.8993px;">P</text>
		</g>
		<g>
			<text transform="matrix(1 0 0 1 787.5322 384.421)" class="st5" style="font-family:'MyriadPro-Regular'; font-size:18.8993px;">o</text>
		</g>
		<g>
			<text transform="matrix(1 0 0 1 797.9077 384.421)" class="st5" style="font-family:'MyriadPro-Regular'; font-size:18.8993px;">r</text>
		</g>
		<g>
			<text transform="matrix(1 0 0 1 804.541 384.421)" class="st5" style="font-family:'MyriadPro-Regular'; font-size:18.8993px;">t</text>
		</g>
		<g>
			<text transform="matrix(1 0 0 1 810.7968 384.421)" class="st5" style="font-family:'MyriadPro-Regular'; font-size:18.8993px;">f</text>
		</g>
		<g>
			<text transform="matrix(1 0 0 1 816.0693 384.421)" class="st5" style="font-family:'MyriadPro-Regular'; font-size:18.8993px;">olio</text>
		</g>
	</g>
	<g>
		<g>
			
				<text transform="matrix(1 0 0 1 1038.4501 232.421)" class="st5" style="font-family:'MyriadPro-Regular'; font-size:18.8993px;">F</text>
		</g>
		<g>
			
				<text transform="matrix(1 0 0 1 1046.8036 232.421)" class="st5" style="font-family:'MyriadPro-Regular'; font-size:18.8993px;">a</text>
		</g>
		<g>
			
				<text transform="matrix(1 0 0 1 1055.7616 232.421)" class="st5" style="font-family:'MyriadPro-Regular'; font-size:18.8993px;">v</text>
		</g>
		<g>
			
				<text transform="matrix(1 0 0 1 1064.6635 232.421)" class="st5" style="font-family:'MyriadPro-Regular'; font-size:18.8993px;">ou</text>
		</g>
		<g>
			<text transform="matrix(1 0 0 1 1085.452 232.421)" class="st5" style="font-family:'MyriadPro-Regular'; font-size:18.8993px;">r</text>
		</g>
		<g>
			
				<text transform="matrix(1 0 0 1 1091.7079 232.421)" class="st5" style="font-family:'MyriadPro-Regular'; font-size:18.8993px;">i</text>
		</g>
		<g>
			
				<text transform="matrix(1 0 0 1 1096.1298 232.421)" class="st5" style="font-family:'MyriadPro-Regular'; font-size:18.8993px;">t</text>
		</g>
		<g>
			
				<text transform="matrix(1 0 0 1 1102.2723 232.421)" class="st5" style="font-family:'MyriadPro-Regular'; font-size:18.8993px;">e</text>
		</g>
	</g>
	<g>
		<g>
			
				<text transform="matrix(1 0 0 1 1183.9501 231.921)" class="st5" style="font-family:'MyriadPro-Regular'; font-size:18.8993px;">F</text>
		</g>
		<g>
			
				<text transform="matrix(1 0 0 1 1192.5682 231.921)" class="st5" style="font-family:'MyriadPro-Regular'; font-size:18.8993px;">orum</text>
		</g>
	</g>
	<g>
		<g>
			<path class="st4" d="M-382.1-249.7c2.1-0.4,4.9-0.7,8.4-0.7c4.3,0,7.5,1,9.5,2.8c1.8,1.6,3,4.1,3,7.1c0,3.1-0.9,5.5-2.6,7.3
				c-2.4,2.5-6.1,3.7-10.4,3.7c-1.3,0-2.5-0.1-3.5-0.3v13.6h-4.4V-249.7z M-377.7-233.3c1,0.3,2.2,0.4,3.6,0.4
				c5.3,0,8.5-2.6,8.5-7.2c0-4.5-3.2-6.7-8-6.7c-1.9,0-3.4,0.2-4.1,0.4V-233.3z"/>
		</g>
		<g>
			<path class="st4" d="M-356.2-232.9c0-2.9-0.1-5.4-0.2-7.6h3.9l0.2,4.8h0.2c1.1-3.3,3.8-5.4,6.8-5.4c0.5,0,0.8,0.1,1.2,0.1v4.2
				c-0.5-0.1-0.9-0.1-1.5-0.1c-3.1,0-5.3,2.3-6,5.7c-0.1,0.6-0.2,1.4-0.2,2.1v13h-4.4V-232.9z"/>
		</g>
		<g>
			<path class="st4" d="M-334.6-247.4c0,1.5-1.1,2.7-2.8,2.7c-1.6,0-2.7-1.2-2.7-2.7s1.1-2.8,2.8-2.8
				C-335.7-250.2-334.6-248.9-334.6-247.4z M-339.5-216.1v-24.4h4.4v24.4H-339.5z"/>
			<path class="st4" d="M-310.3-216.9c-1.2,0.6-3.7,1.4-7,1.4c-7.4,0-12.2-5-12.2-12.5c0-7.5,5.1-13,13.1-13c2.6,0,4.9,0.7,6.2,1.3
				l-1,3.4c-1.1-0.6-2.7-1.2-5.1-1.2c-5.6,0-8.6,4.2-8.6,9.2c0,5.7,3.6,9.1,8.5,9.1c2.5,0,4.2-0.6,5.5-1.2L-310.3-216.9z"/>
			<path class="st4" d="M-300.2-247.4c0,1.5-1.1,2.7-2.8,2.7c-1.6,0-2.7-1.2-2.7-2.7s1.1-2.8,2.8-2.8
				C-301.3-250.2-300.2-248.9-300.2-247.4z M-305.1-216.1v-24.4h4.4v24.4H-305.1z"/>
			<path class="st4" d="M-293.3-233.9c0-2.6-0.1-4.6-0.2-6.6h3.9l0.3,4h0.1c1.2-2.3,4-4.5,8.1-4.5c3.4,0,8.6,2,8.6,10.4v14.5h-4.4
				v-14.1c0-3.9-1.5-7.2-5.7-7.2c-2.9,0-5.1,2.1-6,4.5c-0.2,0.6-0.3,1.3-0.3,2.1v14.7h-4.4V-233.9z"/>
			<path class="st4" d="M-244.4-219.7c0,5.7-1.2,9-3.5,11.2c-2.4,2.2-5.9,2.9-8.9,2.9c-2.9,0-6.2-0.7-8.1-2l1.1-3.4
				c1.6,1.1,4.1,2,7.2,2c4.5,0,7.9-2.4,7.9-8.6v-2.7h-0.1c-1.3,2.3-4,4.1-7.8,4.1c-6.1,0-10.4-5.1-10.4-11.9
				c0-8.3,5.4-12.9,11.1-12.9c4.2,0,6.5,2.2,7.6,4.2h0.1l0.2-3.7h3.9c-0.2,1.7-0.2,3.7-0.2,6.7V-219.7z M-248.8-230.9
				c0-0.8-0.1-1.4-0.3-2c-0.8-2.6-2.9-4.7-6.2-4.7c-4.2,0-7.3,3.6-7.3,9.2c0,4.8,2.5,8.8,7.2,8.8c2.8,0,5.2-1.7,6.2-4.5
				c0.3-0.8,0.4-1.6,0.4-2.4V-230.9z"/>
		</g>
	</g>
	<g>
		<g>
			<path class="st4" d="M536.1-194.5c1.9-0.5,5-0.8,8.1-0.8c4.4,0,7.3,0.8,9.4,2.5c1.8,1.3,2.9,3.4,2.9,6.1c0,3.4-2.2,6.3-5.8,7.5
				v0.2c3.3,0.8,7.1,3.5,7.1,8.6c0,3-1.2,5.2-3,6.9c-2.3,2.2-6.2,3.2-11.8,3.2c-3.1,0-5.4-0.2-6.9-0.4V-194.5z M540.6-180.4h4
				c4.6,0,7.4-2.5,7.4-5.8c0-4-3-5.6-7.5-5.6c-2,0-3.2,0.2-3.9,0.3V-180.4z M540.6-164c0.9,0.2,2.1,0.2,3.7,0.2
				c4.6,0,8.8-1.7,8.8-6.7c0-4.6-4-6.6-8.9-6.6h-3.7V-164z"/>
			<path class="st4" d="M563.6-196.8h4.5v36.2h-4.5V-196.8z"/>
			<path class="st4" d="M597.9-173.1c0,9.1-6.4,13.1-12.3,13.1c-6.6,0-11.8-4.9-11.8-12.7c0-8.2,5.5-13,12.2-13
				C593.2-185.8,597.9-180.6,597.9-173.1z M578.4-172.9c0,5.4,3.1,9.5,7.4,9.5c4.3,0,7.5-4,7.5-9.6c0-4.2-2.1-9.4-7.4-9.4
				C580.7-182.4,578.4-177.5,578.4-172.9z"/>
			<path class="st4" d="M624.7-164.2c0,5.7-1.2,9.1-3.5,11.3c-2.4,2.2-5.9,3-9,3c-3,0-6.2-0.7-8.2-2l1.1-3.5c1.6,1.1,4.2,2,7.2,2
				c4.6,0,8-2.4,8-8.7v-2.7h-0.1c-1.3,2.3-4,4.1-7.8,4.1c-6.1,0-10.5-5.2-10.5-12c0-8.4,5.5-13,11.2-13c4.3,0,6.6,2.2,7.7,4.2h0.1
				l0.2-3.7h4c-0.2,1.7-0.2,3.8-0.2,6.7V-164.2z M620.2-175.5c0-0.8-0.1-1.4-0.3-2c-0.8-2.7-3-4.8-6.3-4.8c-4.3,0-7.3,3.6-7.3,9.3
				c0,4.8,2.5,8.9,7.3,8.9c2.8,0,5.3-1.7,6.2-4.6c0.3-0.8,0.4-1.6,0.4-2.4V-175.5z"/>
		</g>
	</g>
	<g>
		<g>
			<text transform="matrix(1 0 0 1 779.9501 231.421)" class="st5" style="font-family:'MyriadPro-Regular'; font-size:18.8993px;">L</text>
		</g>
		<g>
			<text transform="matrix(1 0 0 1 788.6059 231.421)" class="st5" style="font-family:'MyriadPro-Regular'; font-size:18.8993px;">oc</text>
		</g>
		<g>
			<text transform="matrix(1 0 0 1 807.4482 231.421)" class="st5" style="font-family:'MyriadPro-Regular'; font-size:18.8993px;">a</text>
		</g>
		<g>
			<text transform="matrix(1 0 0 1 816.4824 231.421)" class="st5" style="font-family:'MyriadPro-Regular'; font-size:18.8993px;">tion</text>
		</g>
	</g>
	<g>
		<g>
			
				<text transform="matrix(1 0 0 1 1044.4501 1105.421)" class="st5" style="font-family:'MyriadPro-Regular'; font-size:18.8993px;">A</text>
		</g>
		<g>
			
				<text transform="matrix(1 0 0 1 1055.9598 1105.421)" class="st5" style="font-family:'MyriadPro-Regular'; font-size:18.8993px;">bout</text>
		</g>
	</g>
	<g>
		<g>
			
				<text transform="matrix(1 0 0 1 1181.9501 1105.921)" class="st5" style="font-family:'MyriadPro-Regular'; font-size:18.8993px;">S</text>
		</g>
		<g>
			
				<text transform="matrix(1 0 0 1 1191.3807 1105.921)" class="st5" style="font-family:'MyriadPro-Regular'; font-size:18.8993px;">e</text>
		</g>
		<g>
			
				<text transform="matrix(1 0 0 1 1200.8495 1105.921)" class="st5" style="font-family:'MyriadPro-Regular'; font-size:18.8993px;">r</text>
		</g>
		<g>
			
				<text transform="matrix(1 0 0 1 1207.5018 1105.921)" class="st5" style="font-family:'MyriadPro-Regular'; font-size:18.8993px;">vi</text>
		</g>
		<g>
			
				<text transform="matrix(1 0 0 1 1221.0145 1105.921)" class="st5" style="font-family:'MyriadPro-Regular'; font-size:18.8993px;">c</text>
		</g>
		<g>
			
				<text transform="matrix(1 0 0 1 1229.3671 1105.921)" class="st5" style="font-family:'MyriadPro-Regular'; font-size:18.8993px;">es</text>
		</g>
	</g>
	<g>
		<g>
			
				<text transform="matrix(1 0 0 1 1308.9501 1105.921)" class="st5" style="font-family:'MyriadPro-Regular'; font-size:18.8993px;">C</text>
		</g>
		<g>
			
				<text transform="matrix(1 0 0 1 1319.704 1105.921)" class="st5" style="font-family:'MyriadPro-Regular'; font-size:18.8993px;">o</text>
		</g>
		<g>
			<text transform="matrix(1 0 0 1 1330.08 1105.921)" class="st5" style="font-family:'MyriadPro-Regular'; font-size:18.8993px;">n</text>
		</g>
		<g>
			
				<text transform="matrix(1 0 0 1 1340.493 1105.921)" class="st5" style="font-family:'MyriadPro-Regular'; font-size:18.8993px;">ta</text>
		</g>
		<g>
			
				<text transform="matrix(1 0 0 1 1355.8573 1105.921)" class="st5" style="font-family:'MyriadPro-Regular'; font-size:18.8993px;">c</text>
		</g>
		<g>
			
				<text transform="matrix(1 0 0 1 1364.5702 1105.921)" class="st5" style="font-family:'MyriadPro-Regular'; font-size:18.8993px;">t</text>
		</g>
	</g>
	<g>
		<g>
			
				<text transform="matrix(1 0 0 1 918.4501 1105.421)" class="st5" style="font-family:'MyriadPro-Regular'; font-size:18.8993px;">P</text>
		</g>
		<g>
			
				<text transform="matrix(1 0 0 1 928.4101 1105.421)" class="st5" style="font-family:'MyriadPro-Regular'; font-size:18.8993px;">l</text>
		</g>
		<g>
			
				<text transform="matrix(1 0 0 1 932.8701 1105.421)" class="st5" style="font-family:'MyriadPro-Regular'; font-size:18.8993px;">a</text>
		</g>
		<g>
			
				<text transform="matrix(1 0 0 1 941.8286 1105.421)" class="st5" style="font-family:'MyriadPro-Regular'; font-size:18.8993px;">y</text>
		</g>
	</g>
	<g>
		<g>
			
				<text transform="matrix(1 0 0 1 777.9501 1106.421)" class="st5" style="font-family:'MyriadPro-Regular'; font-size:18.8993px;">P</text>
		</g>
		<g>
			
				<text transform="matrix(1 0 0 1 787.5322 1106.421)" class="st5" style="font-family:'MyriadPro-Regular'; font-size:18.8993px;">o</text>
		</g>
		<g>
			
				<text transform="matrix(1 0 0 1 797.9077 1106.421)" class="st5" style="font-family:'MyriadPro-Regular'; font-size:18.8993px;">r</text>
		</g>
		<g>
			<text transform="matrix(1 0 0 1 804.541 1106.421)" class="st5" style="font-family:'MyriadPro-Regular'; font-size:18.8993px;">t</text>
		</g>
		<g>
			
				<text transform="matrix(1 0 0 1 810.7968 1106.421)" class="st5" style="font-family:'MyriadPro-Regular'; font-size:18.8993px;">f</text>
		</g>
		<g>
			
				<text transform="matrix(1 0 0 1 816.0693 1106.421)" class="st5" style="font-family:'MyriadPro-Regular'; font-size:18.8993px;">olio</text>
		</g>
	</g>
	<g>
		<g>
			
				<text transform="matrix(1 0 0 1 1038.4501 954.4211)" class="st5" style="font-family:'MyriadPro-Regular'; font-size:18.8993px;">F</text>
		</g>
		<g>
			
				<text transform="matrix(1 0 0 1 1046.8036 954.4211)" class="st5" style="font-family:'MyriadPro-Regular'; font-size:18.8993px;">a</text>
		</g>
		<g>
			
				<text transform="matrix(1 0 0 1 1055.7616 954.4211)" class="st5" style="font-family:'MyriadPro-Regular'; font-size:18.8993px;">v</text>
		</g>
		<g>
			
				<text transform="matrix(1 0 0 1 1064.6635 954.4211)" class="st5" style="font-family:'MyriadPro-Regular'; font-size:18.8993px;">ou</text>
		</g>
		<g>
			
				<text transform="matrix(1 0 0 1 1085.452 954.4211)" class="st5" style="font-family:'MyriadPro-Regular'; font-size:18.8993px;">r</text>
		</g>
		<g>
			
				<text transform="matrix(1 0 0 1 1091.7079 954.4211)" class="st5" style="font-family:'MyriadPro-Regular'; font-size:18.8993px;">i</text>
		</g>
		<g>
			
				<text transform="matrix(1 0 0 1 1096.1298 954.4211)" class="st5" style="font-family:'MyriadPro-Regular'; font-size:18.8993px;">t</text>
		</g>
		<g>
			
				<text transform="matrix(1 0 0 1 1102.2723 954.4211)" class="st5" style="font-family:'MyriadPro-Regular'; font-size:18.8993px;">e</text>
		</g>
	</g>
	<g>
		<g>
			
				<text transform="matrix(1 0 0 1 1183.9501 953.9211)" class="st5" style="font-family:'MyriadPro-Regular'; font-size:18.8993px;">F</text>
		</g>
		<g>
			
				<text transform="matrix(1 0 0 1 1192.5682 953.9211)" class="st5" style="font-family:'MyriadPro-Regular'; font-size:18.8993px;">orum</text>
		</g>
	</g>
	<g>
		<g>
			
				<text transform="matrix(1 0 0 1 1312.4501 953.4211)" class="st5" style="font-family:'MyriadPro-Regular'; font-size:18.8993px;">P</text>
		</g>
		<g>
			
				<text transform="matrix(1 0 0 1 1322.202 953.4211)" class="st5" style="font-family:'MyriadPro-Regular'; font-size:18.8993px;">r</text>
		</g>
		<g>
			
				<text transform="matrix(1 0 0 1 1328.4579 953.4211)" class="st5" style="font-family:'MyriadPro-Regular'; font-size:18.8993px;">icing</text>
		</g>
	</g>
	<g>
		<g>
			
				<text transform="matrix(1 0 0 1 920.4501 954.4211)" class="st5" style="font-family:'MyriadPro-Regular'; font-size:18.8993px;">Blog</text>
		</g>
	</g>
	<g>
		<g>
			
				<text transform="matrix(1 0 0 1 779.9501 953.4211)" class="st5" style="font-family:'MyriadPro-Regular'; font-size:18.8993px;">L</text>
		</g>
		<g>
			
				<text transform="matrix(1 0 0 1 788.6059 953.4211)" class="st5" style="font-family:'MyriadPro-Regular'; font-size:18.8993px;">oc</text>
		</g>
		<g>
			
				<text transform="matrix(1 0 0 1 807.4482 953.4211)" class="st5" style="font-family:'MyriadPro-Regular'; font-size:18.8993px;">a</text>
		</g>
		<g>
			
				<text transform="matrix(1 0 0 1 816.4824 953.4211)" class="st5" style="font-family:'MyriadPro-Regular'; font-size:18.8993px;">tion</text>
		</g>
	</g>
</g>
<g id="ICONS">
	<g id="Blog_1_">
		<path class="st5" d="M-950,189.4c-23.2,0-42-18.8-42-42s18.8-42,42-42s42,18.8,42,42S-926.9,189.4-950,189.4z M-950,110.4
			c-20.4,0-37,16.6-37,37s16.6,37,37,37s37-16.6,37-37S-929.6,110.4-950,110.4z"/>
		<g>
			<line class="st5" x1="-970.5" y1="137.4" x2="-928.5" y2="137.4"/>
			<rect x="-971.5" y="134.4" class="st5" width="42" height="5"/>
		</g>
		<g>
			<line class="st5" x1="-970.5" y1="149.4" x2="-928.5" y2="149.4"/>
			<rect x="-971.5" y="146.4" class="st5" width="42" height="5"/>
		</g>
		<g>
			<line class="st5" x1="-970.5" y1="161.4" x2="-928.5" y2="161.4"/>
			<rect x="-971.5" y="158.4" class="st5" width="42" height="5"/>
		</g>
	</g>
	<g id="Forum_1_">
		<path class="st5" d="M-680,190.4c-23.2,0-42-18.8-42-42s18.8-42,42-42c23.2,0,42,18.8,42,42c0,8.2-2.4,16.1-6.9,23
			c5,7.6,10.4,13.1,10.5,13.2l3.5,3.5l-4.9,0.7c-1.9,0.3-3.9,0.4-6,0.4h0c-5.9,0-12.5-1.1-19.6-3.2
			C-667.2,188.9-673.6,190.4-680,190.4z M-680,111.4c-20.4,0-37,16.6-37,37s16.6,37,37,37c6,0,12-1.5,17.2-4.3l0.9-0.5l1,0.3
			c6.8,2.1,13.4,3.3,19.1,3.3h0c0.1,0,0.3,0,0.4,0c-2.4-2.8-5.6-6.8-8.6-11.6l-0.9-1.4l1-1.4c4.5-6.3,6.9-13.7,6.9-21.5
			C-643,128-659.6,111.4-680,111.4z"/>
	</g>
	<g id="Pricing_1_">
		<path class="st5" d="M-553,189.4c-23.2,0-42-18.8-42-42s18.8-42,42-42c23.2,0,42,18.8,42,42S-529.9,189.4-553,189.4z M-553,110.4
			c-20.4,0-37,16.6-37,37s16.6,37,37,37c20.4,0,37-16.6,37-37S-532.6,110.4-553,110.4z"/>
		<g>
			<path class="st5" d="M-555,169.3V164c-3-0.1-6.2-1-8-2.3l1.3-3.5c1.9,1.3,4.6,2.3,7.6,2.3c3.7,0,6.2-2.2,6.2-5.1
				c0-2.9-2-4.7-5.9-6.2c-5.4-2.1-8.7-4.5-8.7-9.1c0-4.4,3.1-7.7,7.9-8.4v-5.3h3.3v5.1c3.1,0.1,5.3,0.9,6.8,1.8l-1.3,3.5
				c-1.1-0.6-3.3-1.8-6.6-1.8c-4,0-5.6,2.4-5.6,4.5c0,2.7,1.9,4.1,6.5,6c5.4,2.2,8.1,4.9,8.1,9.6c0,4.1-2.9,8-8.3,8.9v5.5H-555z"/>
		</g>
	</g>
	<g id="About_1_">
		<path class="st5" d="M-784.5,349.4h-61.1l-0.7-1.6c-2.9-4.3-4.6-10.8-4.6-16.8c0-12.4,7.1-23.8,18.4-29.7
			c-3.4-3.9-5.2-8.9-5.2-14.1c0-11.9,9.7-21.6,21.6-21.6s21.6,9.7,21.6,21.6c0,4.8-1.7,9.5-4.6,13.3c12.1,5.7,19.9,17.4,19.9,30.4
			c0,6-1.7,12.7-4.6,17L-784.5,349.4z M-842.8,344.4h55.6c1.9-4,3.1-8.6,3.1-13.1c0-12-8.1-23.1-20.1-27.3l-4-1.5l3.2-2.9
			c3.5-3.2,5.6-7.7,5.6-12.4c0-9.1-7.4-16.6-16.6-16.6c-9.1,0-16.6,7.4-16.6,16.6c0,5,2.2,9.7,6.1,12.9l3.3,2.7l-3.9,1.6
			c-11.4,4.6-18.7,15.5-18.7,27C-845.9,335.8-844.8,340.4-842.8,344.4z"/>
	</g>
	<g id="Favourite_1_">
		<path class="st5" d="M-817.8,190.2c-0.8,0-1.8-0.6-7.7-4.5c-3.6-2.4-9-6.3-14.7-11c-14.8-12.3-23.8-24-26.6-34.8l0-0.1
			c-0.5-2.3-0.7-4.3-0.7-6.1c0-15.8,12.8-28.6,28.6-28.6c8.1,0,15.7,3.4,21,9.5c5.4-6,13.1-9.5,21.2-9.5c15.7,0,28.6,12.8,28.6,28.6
			c0,2.2-0.4,4.4-0.8,6.1l0,0.1c-2.8,10.8-11.7,22.5-26.4,34.8c-5.6,4.7-11,8.6-14.6,11c-6,4.1-7,4.6-7.7,4.5
			C-817.7,190.2-817.7,190.2-817.8,190.2z M-862,138.7c5.6,21.1,37.5,41.9,44.3,46.1c6.7-4.2,38.3-25,43.9-46.1
			c0.3-1.5,0.7-3.3,0.7-5c0-13-10.6-23.6-23.6-23.6c-7.6,0-14.8,3.7-19.2,9.9l-2,2.8l-2-2.8c-4.5-6.3-11.4-9.9-19-9.9
			c-13,0-23.6,10.6-23.6,23.6C-862.6,135.1-862.4,136.7-862,138.7z"/>
	</g>
	<g id="Play_1_">
		<path class="st5" d="M-951,350.4c-23.2,0-42-18.8-42-42c0-23.2,18.8-42,42-42s42,18.8,42,42C-909,331.6-927.9,350.4-951,350.4z
			 M-951,271.4c-20.4,0-37,16.6-37,37c0,20.4,16.6,37,37,37s37-16.6,37-37C-914,288-930.6,271.4-951,271.4z"/>
		<path class="st5" d="M-958.6,323.4L-958.6,323.4c-2,0-4-1.6-4-3.8v-22.5c0-2.1,2-3.7,3.9-3.7c0.7,0,1.7,0.2,2.4,0.6L-937,306
			c1.2,0.8,2,1.9,1.9,3.2c0,1.3-0.7,2.4-2,3.1l-19.2,10.6C-957,323.2-957.9,323.4-958.6,323.4z M-957.5,299.6v17.8l15.1-8.4
			L-957.5,299.6z"/>
	</g>
	<g id="Contact_1_">
		<path class="st5" d="M-518.5,338.8c0,7.5-6.1,13.6-13.6,13.6h-29.7c-7.5,0-13.6-6.1-13.6-13.6V279c0-7.5,6.1-13.6,13.6-13.6h29.7
			c7.5,0,13.6,6.1,13.6,13.6V338.8z M-523.5,279c0-4.8-3.9-8.6-8.6-8.6h-29.7c-4.8,0-8.6,3.9-8.6,8.6v59.7c0,4.8,3.9,8.6,8.6,8.6
			h29.7c4.8,0,8.6-3.9,8.6-8.6V279z"/>
		<path class="st5" d="M-545.6,342.5c-3.5,0-6.4-2.9-6.4-6.4s2.9-6.4,6.4-6.4c3.5,0,6.4,2.9,6.4,6.4S-542.1,342.5-545.6,342.5z
			 M-545.6,332.8c-1.9,0-3.4,1.5-3.4,3.4c0,1.9,1.5,3.4,3.4,3.4c1.9,0,3.4-1.5,3.4-3.4C-542.2,334.3-543.7,332.8-545.6,332.8z"/>
		<path class="st5" d="M-527.5,328.4h-39v-52h39V328.4z M-562.5,324.4h31v-44h-31V324.4z"/>
	</g>
	<g id="Portfolio_1_">
		<path class="st5" d="M-1041.5,347.4h-67.1c-3.8,0-5.4-2.4-6-3.5c-0.6-1.1-1.3-3.7,0.7-6.8l23.6-38.3c1.8-2.9,2.9-8.4,2.9-11.7v-27
			l3,0c0.5,0,1.1,0,7.5,2.1l6.7,2.4c7.1,2.4,7.8,2.7,7.8,4.8v24.4c0,3.2,2.2,8.4,4.2,11.3l21.8,31.7c2.1,3.1,1.6,5.9,1,7
			C-1036.2,345-1037.7,347.4-1041.5,347.4z M-1082.5,265.9v21.2c0,4.3-1.3,10.5-3.7,14.3l-23.8,38.1c-0.6,0.9-0.4,1.9-0.4,2
			c0,0.1,0.6,0.9,1.8,0.9h67.1c1.1,0,1.5-0.8,1.6-0.8c0-0.1-0.1-0.8-0.6-1.6l-22-31.8c-2.5-3.8-5-10.1-5-14.2v-22.8
			c-1-0.4-2.2-1-4.2-1.7l-7.3-2.4C-1080.5,266.5-1081.5,266.2-1082.5,265.9z"/>
	</g>
	<g>
		<g>
			<path class="st4" d="M43-183.9h5.7v39h18.7v4.7H43V-183.9z"/>
		</g>
		<g>
			<path class="st4" d="M101-156.1c0,11.6-8.1,16.7-15.6,16.7c-8.4,0-15-6.2-15-16.1c0-10.4,6.9-16.6,15.6-16.6
				C94.9-172.2,101-165.7,101-156.1z M76.2-155.8c0,6.9,3.9,12.1,9.5,12.1c5.4,0,9.5-5.1,9.5-12.2c0-5.3-2.7-12-9.4-12
				C79.1-167.9,76.2-161.7,76.2-155.8z"/>
			<path class="st4" d="M130.6-141.3c-1.5,0.7-4.8,1.8-9,1.8c-9.5,0-15.6-6.4-15.6-16c0-9.7,6.6-16.7,16.9-16.7
				c3.4,0,6.4,0.8,7.9,1.7l-1.3,4.3c-1.4-0.7-3.5-1.5-6.6-1.5c-7.2,0-11.1,5.4-11.1,11.9c0,7.3,4.7,11.7,10.9,11.7
				c3.2,0,5.4-0.8,7-1.5L130.6-141.3z"/>
		</g>
		<g>
			<path class="st4" d="M159.3-147.7c0,2.7,0.1,5.4,0.5,7.5h-5.1l-0.5-4H154c-1.8,2.5-5.1,4.7-9.6,4.7c-6.4,0-9.6-4.5-9.6-9
				c0-7.6,6.7-11.7,18.9-11.7v-0.6c0-2.5-0.7-7.3-7.1-7.2c-3,0-6,0.8-8.2,2.3l-1.3-3.8c2.6-1.6,6.4-2.7,10.4-2.7
				c9.6,0,11.9,6.5,11.9,12.8V-147.7z M153.8-156.2c-6.2-0.1-13.3,1-13.3,7.1c0,3.8,2.5,5.4,5.3,5.4c4.2,0,6.8-2.6,7.7-5.3
				c0.2-0.6,0.3-1.3,0.3-1.8V-156.2z"/>
		</g>
		<g>
			<path class="st4" d="M175.1-179.1v7.5h8.2v4.3h-8.2v16.9c0,3.9,1.1,6.1,4.3,6.1c1.6,0,2.5-0.1,3.3-0.4l0.3,4.3
				c-1.1,0.4-2.9,0.8-5.1,0.8c-2.7,0-4.8-0.9-6.2-2.4c-1.6-1.8-2.2-4.5-2.2-8.2v-17.1h-4.9v-4.3h4.9v-5.8L175.1-179.1z"/>
			<path class="st4" d="M196-180.4c0,1.9-1.4,3.5-3.6,3.5c-2.1,0-3.4-1.6-3.4-3.5c0-1.9,1.4-3.6,3.6-3.6
				C194.6-184,196-182.4,196-180.4z M189.7-140.2v-31.4h5.7v31.4H189.7z"/>
			<path class="st4" d="M233.3-156.1c0,11.6-8.1,16.7-15.6,16.7c-8.4,0-15-6.2-15-16.1c0-10.4,6.9-16.6,15.6-16.6
				C227.2-172.2,233.3-165.7,233.3-156.1z M208.4-155.8c0,6.9,3.9,12.1,9.5,12.1c5.4,0,9.5-5.1,9.5-12.2c0-5.3-2.7-12-9.4-12
				C211.3-167.9,208.4-161.7,208.4-155.8z"/>
			<path class="st4" d="M240.4-163.1c0-3.3-0.1-5.9-0.3-8.5h5.1l0.3,5.2h0.1c1.6-2.9,5.2-5.8,10.4-5.8c4.3,0,11.1,2.6,11.1,13.4
				v18.7h-5.7v-18.1c0-5.1-1.9-9.3-7.3-9.3c-3.7,0-6.6,2.7-7.7,5.8c-0.3,0.7-0.4,1.7-0.4,2.7v18.9h-5.7V-163.1z"/>
		</g>
	</g>
	<g id="Location_1_">
		<path class="st4" d="M147.7-255.5L60.8-362.2c-9.5-10.5-17.1-22.3-22.6-35.2c-6.5-15.3-9.8-31.6-9.8-48.3
			c0-68.4,55.7-124.1,124.1-124.1c68.4,0,124.1,55.7,124.1,124.1c0,28.5-9.9,56.4-27.9,78.4l-0.3,0.3L147.7-255.5z M152.6-552.7
			c-59,0-106.9,48-106.9,106.9c0,14.4,2.8,28.4,8.4,41.6c4.7,11.2,11.3,21.5,19.6,30.5l0.3,0.4l74.4,91.3l87.2-96.4
			c15.4-19,23.9-42.9,23.9-67.4C259.5-504.7,211.5-552.7,152.6-552.7z"/>
		<path class="st4" d="M149.5-402.8c-24.1,0-43.7-19.6-43.7-43.7c0-24.1,19.6-43.7,43.7-43.7c24.1,0,43.7,19.6,43.7,43.7
			C193.3-422.4,173.6-402.8,149.5-402.8z M149.5-473c-14.6,0-26.6,11.9-26.6,26.6s11.9,26.6,26.6,26.6s26.6-11.9,26.6-26.6
			S164.2-473,149.5-473z"/>
	</g>
	<g id="Services_1_">
		<path class="st5" d="M-668.1,350.3l-3.3-8.8c-2.8,0.3-5.1,0.2-7.7-0.1l-3.8,8.3l-17.3-7.9l3.6-7.9c-2.5-2-4.6-4.4-6.4-7l-8.2,2.9
			l-6.4-17.9l8.6-3.1c0-0.5,0-0.9,0-1.3c0-1.9,0.2-3.9,0.5-5.9l-8-4.1l8.6-17l7.7,3.9c1.7-1.8,3.5-3.5,5.6-4.9l-3.2-8.5l17.8-6.7
			l3.3,8.9c2.6-0.1,5,0,7.5,0.4l3.9-8.5l17.3,7.9l-4,8.9c1.7,1.5,3.2,3.2,4.6,5l9.2-3.3l6.4,17.9l-8.8,3.1c0.1,1,0.1,1.9,0.1,2.8
			c0,2.3-0.3,4.7-0.8,7.1l8.2,4.2l-8.6,17l-8.5-4.3c-1.1,1.1-2.3,2.2-3.5,3.2l3.4,9.2L-668.1,350.3z M-668.4,336.5l3,7.9l9.3-3.5
			l-3-8.2l1.5-1c2-1.4,3.8-3,5.4-4.8l1.2-1.3l7.6,3.9l4.5-8.8l-7.4-3.8l0.5-1.8c0.7-2.6,1-5.2,1-7.7c0-1.2-0.1-2.5-0.3-4.1l-0.3-1.8
			l8-2.8l-3.3-9.3l-8.2,2.9l-1-1.5c-1.7-2.5-3.7-4.7-6.1-6.6l-1.4-1.1l3.6-7.9l-9-4.1l-3.5,7.7l-1.8-0.4c-2.2-0.5-4.4-0.7-6.5-0.7
			c-1,0-2.1,0.1-3.2,0.2l-1.8,0.2l-3-7.9l-9.3,3.5l2.9,7.7l-1.6,1c-2.8,1.8-5.2,3.9-7.2,6.4l-1.2,1.4l-6.9-3.5l-4.5,8.8l7,3.6
			l-0.4,1.7c-0.5,2.2-0.8,4.5-0.8,6.6c0,0.8,0,1.7,0.1,2.7l0.2,1.8l-7.6,2.7l3.3,9.3l7.4-2.6l1,1.6c2,3.3,4.6,6.1,7.7,8.4l1.5,1.1
			l-3.2,7.1l9,4.1l3.3-7.3l1.7,0.3c1.9,0.3,3.6,0.5,5.3,0.5c1.4,0,2.8-0.1,4.5-0.4L-668.4,336.5z"/>
		<path class="st5" d="M-674.7,322.3c-8.3,0-15-6.7-15-15c0-8.3,6.7-15,15-15c8.3,0,15,6.7,15,15
			C-659.7,315.6-666.4,322.3-674.7,322.3z M-674.7,296.8c-5.8,0-10.5,4.7-10.5,10.5c0,5.8,4.7,10.5,10.5,10.5
			c5.8,0,10.5-4.7,10.5-10.5C-664.3,301.5-668.9,296.8-674.7,296.8z"/>
	</g>
	<g id="Blog_2_">
		<path class="st4" d="M574-276.6c-62.4,0-113.2-50.8-113.2-113.2S511.6-503,574-503s113.2,50.8,113.2,113.2S636.5-276.6,574-276.6z
			 M574-489.6c-55,0-99.7,44.7-99.7,99.7s44.7,99.7,99.7,99.7c55,0,99.7-44.7,99.7-99.7S629-489.6,574-489.6z"/>
		<g>
			<line class="st4" x1="518.8" y1="-416.8" x2="632" y2="-416.8"/>
			<rect x="516.1" y="-424.9" class="st4" width="113.2" height="13.5"/>
		</g>
		<g>
			<line class="st4" x1="518.8" y1="-384.4" x2="632" y2="-384.4"/>
			<rect x="516.1" y="-392.5" class="st4" width="113.2" height="13.5"/>
		</g>
		<g>
			<line class="st4" x1="518.8" y1="-352.1" x2="632" y2="-352.1"/>
			<rect x="516.1" y="-360.2" class="st4" width="113.2" height="13.5"/>
		</g>
	</g>
	<g id="Forum_3_">
		<path class="st5" d="M1206,190.4c-23.2,0-42-18.8-42-42s18.8-42,42-42s42,18.8,42,42c0,8.2-2.4,16.1-6.9,23
			c5,7.6,10.4,13.1,10.5,13.2l3.5,3.5l-4.9,0.7c-1.9,0.3-3.9,0.4-6,0.4h0c-5.9,0-12.5-1.1-19.6-3.2
			C1218.8,188.9,1212.4,190.4,1206,190.4z M1206,111.4c-20.4,0-37,16.6-37,37s16.6,37,37,37c6,0,12-1.5,17.2-4.3l0.9-0.5l1,0.3
			c6.8,2.1,13.4,3.3,19.1,3.3h0c0.1,0,0.3,0,0.4,0c-2.4-2.8-5.6-6.8-8.6-11.6l-0.9-1.4l1-1.4c4.5-6.3,6.9-13.7,6.9-21.5
			C1243,128,1226.4,111.4,1206,111.4z"/>
	</g>
	<g id="Pricing_2_">
		<path class="st4" d="M-331.2-328.3c-61.8,0-112.1-50.3-112.1-112.1s50.3-112.1,112.1-112.1c61.8,0,112.1,50.3,112.1,112.1
			S-269.4-328.3-331.2-328.3z M-331.2-539.2c-54.5,0-98.8,44.3-98.8,98.8s44.3,98.8,98.8,98.8c54.5,0,98.8-44.3,98.8-98.8
			S-276.7-539.2-331.2-539.2z"/>
		<g>
			<path class="st4" d="M-336.4-381.9v-14.1c-8.1-0.1-16.5-2.7-21.4-6.2l3.4-9.4c5,3.4,12.3,6,20.2,6c9.9,0,16.7-5.7,16.7-13.7
				c0-7.7-5.5-12.5-15.8-16.7c-14.3-5.6-23.1-12-23.1-24.2c0-11.6,8.3-20.5,21.2-22.6V-497h8.7v13.6c8.4,0.3,14.1,2.5,18.2,4.9
				l-3.5,9.2c-2.9-1.7-8.7-4.8-17.7-4.8c-10.8,0-14.8,6.4-14.8,12c0,7.3,5.2,10.9,17.4,16c14.4,5.9,21.7,13.2,21.7,25.6
				c0,11.1-7.7,21.4-22.1,23.8v14.6H-336.4z"/>
		</g>
	</g>
	<g id="About_3_">
		<path class="st4" d="M218.2,297.7H51.4l-2-4.4c-7.8-11.8-12.4-29.4-12.4-45.8c0-33.9,19.4-65,50.3-81.2
			C78,155.7,72.9,142,72.9,127.7c0-32.5,26.4-59,58.9-59s58.9,26.4,58.9,58.9c0,13.2-4.5,26-12.6,36.3c33,15.5,54.5,47.6,54.5,82.9
			c0,16.4-4.7,34.7-12.4,46.5L218.2,297.7z M58.9,284.1h151.8c5.3-10.9,8.3-23.4,8.3-35.9c0-32.8-22-63.1-54.8-74.6l-11-4.2l8.7-7.9
			c9.7-8.6,15.3-21,15.3-33.9c0-25-20.3-45.3-45.3-45.3c-25,0-45.3,20.3-45.3,45.3c0,13.7,6.1,26.5,16.8,35.1l9,7.3l-10.8,4.3
			c-31,12.5-51,42.3-51,73.8C50.6,260.7,53.6,273.2,58.9,284.1z"/>
	</g>
	<g id="Favourite_3_">
		<path class="st5" d="M1068.2,190.2c-0.8,0-1.8-0.6-7.7-4.5c-3.6-2.4-9-6.3-14.7-11c-14.8-12.3-23.8-24-26.6-34.8l0-0.1
			c-0.5-2.3-0.7-4.3-0.7-6.1c0-15.8,12.8-28.6,28.6-28.6c8.1,0,15.7,3.4,21,9.5c5.4-6,13.1-9.5,21.2-9.5c15.7,0,28.6,12.8,28.6,28.6
			c0,2.2-0.4,4.4-0.8,6.1l0,0.1c-2.8,10.8-11.7,22.5-26.4,34.8c-5.6,4.7-11,8.6-14.6,11c-6,4.1-7,4.6-7.7,4.5
			C1068.3,190.2,1068.3,190.2,1068.2,190.2z M1024,138.7c5.6,21.1,37.5,41.9,44.3,46.1c6.7-4.2,38.3-25,43.9-46.1
			c0.3-1.5,0.7-3.3,0.7-5c0-13-10.6-23.6-23.6-23.6c-7.6,0-14.8,3.7-19.2,9.9l-2,2.8l-2-2.8c-4.5-6.3-11.4-9.9-19-9.9
			c-13,0-23.6,10.6-23.6,23.6C1023.4,135.1,1023.6,136.7,1024,138.7z"/>
	</g>
	<g id="Play_3_">
		<path class="st5" d="M935,350.4c-23.2,0-42-18.8-42-42c0-23.2,18.8-42,42-42s42,18.8,42,42C977,331.6,958.1,350.4,935,350.4z
			 M935,271.4c-20.4,0-37,16.6-37,37c0,20.4,16.6,37,37,37s37-16.6,37-37C972,288,955.4,271.4,935,271.4z"/>
		<path class="st5" d="M927.4,323.4L927.4,323.4c-2,0-4-1.6-4-3.8v-22.5c0-2.1,2-3.7,3.9-3.7c0.7,0,1.7,0.2,2.4,0.6L949,306
			c1.2,0.8,2,1.9,1.9,3.2c0,1.3-0.7,2.4-2,3.1l-19.2,10.6C929,323.2,928.1,323.4,927.4,323.4z M928.5,299.6v17.8l15.1-8.4
			L928.5,299.6z"/>
	</g>
	<g id="Contact_2_">
		<path class="st4" d="M1252.4-366.3c0,24.3-19.7,43.9-43.9,43.9h-95.7c-24.3,0-43.9-19.7-43.9-43.9v-192.3
			c0-24.3,19.7-43.9,43.9-43.9h95.7c24.3,0,43.9,19.7,43.9,43.9V-366.3z M1236.3-558.6c0-15.4-12.5-27.8-27.8-27.8h-95.7
			c-15.4,0-27.8,12.5-27.8,27.8v192.3c0,15.4,12.5,27.8,27.8,27.8h95.7c15.4,0,27.8-12.5,27.8-27.8V-558.6z"/>
		<path class="st4" d="M1165.3-354.2c-11.3,0-20.5-9.2-20.5-20.5s9.2-20.5,20.5-20.5c11.3,0,20.5,9.2,20.5,20.5
			S1176.7-354.2,1165.3-354.2z M1165.3-385.6c-6,0-10.9,4.9-10.9,10.9c0,6,4.9,10.9,10.9,10.9c6,0,10.9-4.9,10.9-10.9
			C1176.2-380.8,1171.3-385.6,1165.3-385.6z"/>
		<path class="st4" d="M1223.4-399.7h-125.6v-167.5h125.6V-399.7z M1110.7-412.6h99.8v-141.7h-99.8V-412.6z"/>
	</g>
	<g id="Portfolio_3_">
		<path class="st5" d="M844.5,347.4h-67.1c-3.8,0-5.4-2.4-6-3.5c-0.6-1.1-1.3-3.7,0.7-6.8l23.6-38.3c1.8-2.9,2.9-8.4,2.9-11.7v-27
			l3,0c0.5,0,1.1,0,7.5,2.1l6.7,2.4c7.1,2.4,7.8,2.7,7.8,4.8v24.4c0,3.2,2.2,8.4,4.2,11.3l21.8,31.7c2.1,3.1,1.6,5.9,1,7
			C849.8,345,848.3,347.4,844.5,347.4z M803.5,265.9v21.2c0,4.3-1.3,10.5-3.7,14.3L776,339.5c-0.6,0.9-0.4,1.9-0.4,2
			c0,0.1,0.6,0.9,1.8,0.9h67.1c1.1,0,1.5-0.8,1.6-0.8c0-0.1-0.1-0.8-0.6-1.6l-22-31.8c-2.5-3.8-5-10.1-5-14.2v-22.8
			c-1-0.4-2.2-1-4.2-1.7l-7.3-2.4C805.5,266.5,804.5,266.2,803.5,265.9z"/>
	</g>
	<g id="Location_3_">
		<path class="st5" d="M811.9,197.8l-25.3-31.1c-2.8-3-5-6.5-6.6-10.3c-1.9-4.5-2.8-9.2-2.8-14.1c0-19.9,16.2-36.2,36.2-36.2
			c19.9,0,36.2,16.2,36.2,36.2c0,8.3-2.9,16.4-8.1,22.9l-0.1,0.1L811.9,197.8z M813.3,111.2c-17.2,0-31.2,14-31.2,31.2
			c0,4.2,0.8,8.3,2.4,12.1c1.4,3.3,3.3,6.3,5.7,8.9l0.1,0.1l21.7,26.6l25.4-28.1c4.5-5.5,7-12.5,7-19.7
			C844.5,125.2,830.5,111.2,813.3,111.2z"/>
		<path class="st5" d="M812.4,154.9c-7,0-12.7-5.7-12.7-12.7c0-7,5.7-12.7,12.7-12.7c7,0,12.7,5.7,12.7,12.7
			C825.2,149.2,819.4,154.9,812.4,154.9z M812.4,134.4c-4.3,0-7.7,3.5-7.7,7.7c0,4.3,3.5,7.7,7.7,7.7s7.7-3.5,7.7-7.7
			C820.2,137.9,816.7,134.4,812.4,134.4z"/>
	</g>
	<g id="Services_3_">
		<path class="st5" d="M1217.9,350.3l-3.3-8.8c-2.8,0.3-5.1,0.2-7.7-0.1l-3.8,8.3l-17.3-7.9l3.6-7.9c-2.5-2-4.6-4.4-6.4-7l-8.2,2.9
			l-6.4-17.9l8.6-3.1c0-0.5,0-0.9,0-1.3c0-1.9,0.2-3.9,0.5-5.9l-8-4.1l8.6-17l7.7,3.9c1.7-1.8,3.5-3.5,5.6-4.9l-3.2-8.5l17.8-6.7
			l3.3,8.9c2.6-0.1,5,0,7.5,0.4l3.9-8.5l17.3,7.9l-4,8.9c1.7,1.5,3.2,3.2,4.6,5l9.2-3.3l6.4,17.9l-8.8,3.1c0.1,1,0.1,1.9,0.1,2.8
			c0,2.3-0.3,4.7-0.8,7.1l8.2,4.2l-8.6,17l-8.5-4.3c-1.1,1.1-2.3,2.2-3.5,3.2l3.4,9.2L1217.9,350.3z M1217.6,336.5l3,7.9l9.3-3.5
			l-3-8.2l1.5-1c2-1.4,3.8-3,5.4-4.8l1.2-1.3l7.6,3.9l4.5-8.8l-7.4-3.8l0.5-1.8c0.7-2.6,1-5.2,1-7.7c0-1.2-0.1-2.5-0.3-4.1l-0.3-1.8
			l8-2.8l-3.3-9.3l-8.2,2.9l-1-1.5c-1.7-2.5-3.7-4.7-6.1-6.6l-1.4-1.1l3.6-7.9l-9-4.1l-3.5,7.7l-1.8-0.4c-2.2-0.5-4.4-0.7-6.5-0.7
			c-1,0-2.1,0.1-3.2,0.2l-1.8,0.2l-3-7.9l-9.3,3.5l2.9,7.7l-1.6,1c-2.8,1.8-5.2,3.9-7.2,6.4l-1.2,1.4l-6.9-3.5l-4.5,8.8l7,3.6
			l-0.4,1.7c-0.5,2.2-0.8,4.5-0.8,6.6c0,0.8,0,1.7,0.1,2.7l0.2,1.8l-7.6,2.7l3.3,9.3l7.4-2.6l1,1.6c2,3.3,4.6,6.1,7.7,8.4l1.5,1.1
			l-3.2,7.1l9,4.1l3.3-7.3l1.7,0.3c1.9,0.3,3.6,0.5,5.3,0.5c1.4,0,2.8-0.1,4.5-0.4L1217.6,336.5z"/>
		<path class="st5" d="M1211.3,322.3c-8.3,0-15-6.7-15-15c0-8.3,6.7-15,15-15c8.3,0,15,6.7,15,15
			C1226.3,315.6,1219.6,322.3,1211.3,322.3z M1211.3,296.8c-5.8,0-10.5,4.7-10.5,10.5c0,5.8,4.7,10.5,10.5,10.5
			c5.8,0,10.5-4.7,10.5-10.5C1221.7,301.5,1217.1,296.8,1211.3,296.8z"/>
	</g>
	<g id="Blog_4_">
		<path class="st5" d="M936,911.4c-23.2,0-42-18.8-42-42s18.8-42,42-42s42,18.8,42,42S959.1,911.4,936,911.4z M936,832.4
			c-20.4,0-37,16.6-37,37s16.6,37,37,37s37-16.6,37-37S956.4,832.4,936,832.4z"/>
		<g>
			<line class="st5" x1="915.5" y1="859.4" x2="957.5" y2="859.4"/>
			<rect x="914.5" y="856.4" class="st5" width="42" height="5"/>
		</g>
		<g>
			<line class="st5" x1="915.5" y1="871.4" x2="957.5" y2="871.4"/>
			<rect x="914.5" y="868.4" class="st5" width="42" height="5"/>
		</g>
		<g>
			<line class="st5" x1="915.5" y1="883.4" x2="957.5" y2="883.4"/>
			<rect x="914.5" y="880.4" class="st5" width="42" height="5"/>
		</g>
	</g>
	<g id="Forum_4_">
		<path class="st5" d="M1206,912.4c-23.2,0-42-18.8-42-42s18.8-42,42-42s42,18.8,42,42c0,8.2-2.4,16.1-6.9,23
			c5,7.6,10.4,13.1,10.5,13.2l3.5,3.5l-4.9,0.7c-1.9,0.3-3.9,0.4-6,0.4h0c-5.9,0-12.5-1.1-19.6-3.2
			C1218.8,910.9,1212.4,912.4,1206,912.4z M1206,833.4c-20.4,0-37,16.6-37,37s16.6,37,37,37c6,0,12-1.5,17.2-4.3l0.9-0.5l1,0.3
			c6.8,2.1,13.4,3.3,19.1,3.3h0c0.1,0,0.3,0,0.4,0c-2.4-2.8-5.6-6.8-8.6-11.6l-0.9-1.4l1-1.4c4.5-6.3,6.9-13.7,6.9-21.5
			C1243,850,1226.4,833.4,1206,833.4z"/>
	</g>
	<g id="Pricing_4_">
		<path class="st5" d="M1333,911.4c-23.2,0-42-18.8-42-42s18.8-42,42-42s42,18.8,42,42S1356.1,911.4,1333,911.4z M1333,832.4
			c-20.4,0-37,16.6-37,37s16.6,37,37,37c20.4,0,37-16.6,37-37S1353.4,832.4,1333,832.4z"/>
		<g>
			<path class="st5" d="M1331,891.3V886c-3-0.1-6.2-1-8-2.3l1.3-3.5c1.9,1.3,4.6,2.3,7.6,2.3c3.7,0,6.2-2.2,6.2-5.1
				c0-2.9-2-4.7-5.9-6.2c-5.4-2.1-8.7-4.5-8.7-9.1c0-4.4,3.1-7.7,7.9-8.4v-5.3h3.3v5.1c3.1,0.1,5.3,0.9,6.8,1.8l-1.3,3.5
				c-1.1-0.6-3.3-1.8-6.6-1.8c-4,0-5.6,2.4-5.6,4.5c0,2.7,1.9,4.1,6.5,6c5.4,2.2,8.1,4.9,8.1,9.6c0,4.1-2.9,8-8.3,8.9v5.5H1331z"/>
		</g>
	</g>
	<g id="About_4_">
		<path class="st5" d="M1101.5,1071.4h-61.1l-0.7-1.6c-2.9-4.3-4.6-10.8-4.6-16.8c0-12.4,7.1-23.8,18.4-29.7
			c-3.4-3.9-5.2-8.9-5.2-14.1c0-11.9,9.7-21.6,21.6-21.6s21.6,9.7,21.6,21.6c0,4.8-1.7,9.5-4.6,13.3c12.1,5.7,19.9,17.4,19.9,30.4
			c0,6-1.7,12.7-4.6,17L1101.5,1071.4z M1043.2,1066.4h55.6c1.9-4,3.1-8.6,3.1-13.1c0-12-8.1-23.1-20.1-27.3l-4-1.5l3.2-2.9
			c3.5-3.2,5.6-7.7,5.6-12.4c0-9.1-7.4-16.6-16.6-16.6c-9.1,0-16.6,7.4-16.6,16.6c0,5,2.2,9.7,6.1,12.9l3.3,2.7l-3.9,1.6
			c-11.4,4.6-18.7,15.5-18.7,27C1040.1,1057.8,1041.2,1062.4,1043.2,1066.4z"/>
	</g>
	<g id="Favourite_4_">
		<path class="st5" d="M1068.2,912.2c-0.8,0-1.8-0.6-7.7-4.5c-3.6-2.4-9-6.3-14.7-11c-14.8-12.3-23.8-24-26.6-34.8l0-0.1
			c-0.5-2.3-0.7-4.3-0.7-6.1c0-15.8,12.8-28.6,28.6-28.6c8.1,0,15.7,3.4,21,9.5c5.4-6,13.1-9.5,21.2-9.5c15.7,0,28.6,12.8,28.6,28.6
			c0,2.2-0.4,4.4-0.8,6.1l0,0.1c-2.8,10.8-11.7,22.5-26.4,34.8c-5.6,4.7-11,8.6-14.6,11c-6,4.1-7,4.6-7.7,4.5
			C1068.3,912.2,1068.3,912.2,1068.2,912.2z M1024,860.7c5.6,21.1,37.5,41.9,44.3,46.1c6.7-4.2,38.3-25,43.9-46.1
			c0.3-1.5,0.7-3.3,0.7-5c0-13-10.6-23.6-23.6-23.6c-7.6,0-14.8,3.7-19.2,9.9l-2,2.8l-2-2.8c-4.5-6.3-11.4-9.9-19-9.9
			c-13,0-23.6,10.6-23.6,23.6C1023.4,857.1,1023.6,858.7,1024,860.7z"/>
	</g>
	<g id="Play_4_">
		<path class="st5" d="M935,1072.4c-23.2,0-42-18.8-42-42c0-23.2,18.8-42,42-42s42,18.8,42,42C977,1053.6,958.1,1072.4,935,1072.4z
			 M935,993.4c-20.4,0-37,16.6-37,37c0,20.4,16.6,37,37,37s37-16.6,37-37C972,1010,955.4,993.4,935,993.4z"/>
		<path class="st5" d="M927.4,1045.4L927.4,1045.4c-2,0-4-1.6-4-3.8v-22.5c0-2.1,2-3.7,3.9-3.7c0.7,0,1.7,0.2,2.4,0.6L949,1028
			c1.2,0.8,2,1.9,1.9,3.2c0,1.3-0.7,2.4-2,3.1l-19.2,10.6C929,1045.2,928.1,1045.4,927.4,1045.4z M928.5,1021.6v17.8l15.1-8.4
			L928.5,1021.6z"/>
	</g>
	<g id="Contact_4_">
		<path class="st5" d="M1367.5,1060.8c0,7.5-6.1,13.6-13.6,13.6h-29.7c-7.5,0-13.6-6.1-13.6-13.6V1001c0-7.5,6.1-13.6,13.6-13.6
			h29.7c7.5,0,13.6,6.1,13.6,13.6V1060.8z M1362.5,1001c0-4.8-3.9-8.6-8.6-8.6h-29.7c-4.8,0-8.6,3.9-8.6,8.6v59.7
			c0,4.8,3.9,8.6,8.6,8.6h29.7c4.8,0,8.6-3.9,8.6-8.6V1001z"/>
		<path class="st5" d="M1340.4,1064.5c-3.5,0-6.4-2.9-6.4-6.4s2.9-6.4,6.4-6.4c3.5,0,6.4,2.9,6.4,6.4S1343.9,1064.5,1340.4,1064.5z
			 M1340.4,1054.8c-1.9,0-3.4,1.5-3.4,3.4c0,1.9,1.5,3.4,3.4,3.4c1.9,0,3.4-1.5,3.4-3.4C1343.8,1056.3,1342.3,1054.8,1340.4,1054.8z
			"/>
		<path class="st5" d="M1358.5,1050.4h-39v-52h39V1050.4z M1323.5,1046.4h31v-44h-31V1046.4z"/>
	</g>
	<g id="Portfolio_4_">
		<path class="st5" d="M844.5,1069.4h-67.1c-3.8,0-5.4-2.4-6-3.5c-0.6-1.1-1.3-3.7,0.7-6.8l23.6-38.3c1.8-2.9,2.9-8.4,2.9-11.7v-27
			l3,0c0.5,0,1.1,0,7.5,2.1l6.7,2.4c7.1,2.4,7.8,2.7,7.8,4.8v24.4c0,3.2,2.2,8.4,4.2,11.3l21.8,31.7c2.1,3.1,1.6,5.9,1,7
			C849.8,1067,848.3,1069.4,844.5,1069.4z M803.5,987.9v21.2c0,4.3-1.3,10.5-3.7,14.3l-23.8,38.1c-0.6,0.9-0.4,1.9-0.4,2
			c0,0.1,0.6,0.9,1.8,0.9h67.1c1.1,0,1.5-0.8,1.6-0.8c0-0.1-0.1-0.8-0.6-1.6l-22-31.8c-2.5-3.8-5-10.1-5-14.2v-22.8
			c-1-0.4-2.2-1-4.2-1.7l-7.3-2.4C805.5,988.5,804.5,988.2,803.5,987.9z"/>
	</g>
	<g id="Location_4_">
		<path class="st5" d="M811.9,919.8l-25.3-31.1c-2.8-3-5-6.5-6.6-10.3c-1.9-4.5-2.8-9.2-2.8-14.1c0-19.9,16.2-36.2,36.2-36.2
			c19.9,0,36.2,16.2,36.2,36.2c0,8.3-2.9,16.4-8.1,22.9l-0.1,0.1L811.9,919.8z M813.3,833.2c-17.2,0-31.2,14-31.2,31.2
			c0,4.2,0.8,8.3,2.4,12.1c1.4,3.3,3.3,6.3,5.7,8.9l0.1,0.1l21.7,26.6l25.4-28.1c4.5-5.5,7-12.5,7-19.7
			C844.5,847.2,830.5,833.2,813.3,833.2z"/>
		<path class="st5" d="M812.4,876.9c-7,0-12.7-5.7-12.7-12.7c0-7,5.7-12.7,12.7-12.7c7,0,12.7,5.7,12.7,12.7
			C825.2,871.2,819.4,876.9,812.4,876.9z M812.4,856.4c-4.3,0-7.7,3.5-7.7,7.7c0,4.3,3.5,7.7,7.7,7.7s7.7-3.5,7.7-7.7
			C820.2,859.9,816.7,856.4,812.4,856.4z"/>
	</g>
	<g id="Services_4_">
		<path class="st5" d="M1217.9,1072.3l-3.3-8.8c-2.8,0.3-5.1,0.2-7.7-0.1l-3.8,8.3l-17.3-7.9l3.6-7.9c-2.5-2-4.6-4.4-6.4-7l-8.2,2.9
			l-6.4-17.9l8.6-3.1c0-0.5,0-0.9,0-1.3c0-1.9,0.2-3.9,0.5-5.9l-8-4.1l8.6-17l7.7,3.9c1.7-1.8,3.5-3.5,5.6-4.9l-3.2-8.5l17.8-6.7
			l3.3,8.9c2.6-0.1,5,0,7.5,0.4l3.9-8.5l17.3,7.9l-4,8.9c1.7,1.5,3.2,3.2,4.6,5l9.2-3.3l6.4,17.9l-8.8,3.1c0.1,1,0.1,1.9,0.1,2.8
			c0,2.3-0.3,4.7-0.8,7.1l8.2,4.2l-8.6,17l-8.5-4.3c-1.1,1.1-2.3,2.2-3.5,3.2l3.4,9.2L1217.9,1072.3z M1217.6,1058.5l3,7.9l9.3-3.5
			l-3-8.2l1.5-1c2-1.4,3.8-3,5.4-4.8l1.2-1.3l7.6,3.9l4.5-8.8l-7.4-3.8l0.5-1.8c0.7-2.6,1-5.2,1-7.7c0-1.2-0.1-2.5-0.3-4.1l-0.3-1.8
			l8-2.8l-3.3-9.3l-8.2,2.9l-1-1.5c-1.7-2.5-3.7-4.7-6.1-6.6l-1.4-1.1l3.6-7.9l-9-4.1l-3.5,7.7l-1.8-0.4c-2.2-0.5-4.4-0.7-6.5-0.7
			c-1,0-2.1,0.1-3.2,0.2l-1.8,0.2l-3-7.9l-9.3,3.5l2.9,7.7l-1.6,1c-2.8,1.8-5.2,3.9-7.2,6.4l-1.2,1.4l-6.9-3.5l-4.5,8.8l7,3.6
			l-0.4,1.7c-0.5,2.2-0.8,4.5-0.8,6.6c0,0.8,0,1.7,0.1,2.7l0.2,1.8l-7.6,2.7l3.3,9.3l7.4-2.6l1,1.6c2,3.3,4.6,6.1,7.7,8.4l1.5,1.1
			l-3.2,7.1l9,4.1l3.3-7.3l1.7,0.3c1.9,0.3,3.6,0.5,5.3,0.5c1.4,0,2.8-0.1,4.5-0.4L1217.6,1058.5z"/>
		<path class="st5" d="M1211.3,1044.3c-8.3,0-15-6.7-15-15c0-8.3,6.7-15,15-15c8.3,0,15,6.7,15,15
			C1226.3,1037.6,1219.6,1044.3,1211.3,1044.3z M1211.3,1018.8c-5.8,0-10.5,4.7-10.5,10.5c0,5.8,4.7,10.5,10.5,10.5
			c5.8,0,10.5-4.7,10.5-10.5C1221.7,1023.5,1217.1,1018.8,1211.3,1018.8z"/>
	</g>
	<rect x="-184.4" y="66.8" class="st5" width="33.3" height="32.3"/>
</g>
</svg>
