<?xml version="1.0" encoding="utf-8"?>
<!-- Generator: Adobe Illustrator 19.0.0, SVG Export Plug-In . SVG Version: 6.00 Build 0)  -->
<svg version="1.1" id="Layer_1" xmlns="http://www.w3.org/2000/svg" xmlns:xlink="http://www.w3.org/1999/xlink" x="0px" y="0px"
	 viewBox="0 0 169 295" style="enable-background:new 0 0 169 295;" xml:space="preserve">
<style type="text/css">
	.st0{clip-path:url(#SVGID_2_);fill:#FFFFFF;}
</style>
<g>
	<g>
		<defs>
			<rect id="SVGID_1_" x="8.8" y="8" width="152.3" height="278.9"/>
		</defs>
		<clipPath id="SVGID_2_">
			<use xlink:href="#SVGID_1_"  style="overflow:visible;"/>
		</clipPath>
		<path class="st0" d="M154,7.7l-36.2-0.1c-40.6,0-66.9,26.9-66.9,68.6v31.7H14.5c-3.1,0-5.7,2.5-5.7,5.7v45.9
			c0,3.1,2.5,5.7,5.7,5.7h36.4v115.7c0,3.1,2.5,5.7,5.7,5.7H104c3.1,0,5.7-2.5,5.7-5.7V165.1h42.5c3.1,0,5.7-2.5,5.7-5.7l0-45.9
			c0-1.5-0.6-2.9-1.7-4c-1.1-1.1-2.5-1.7-4-1.7h-42.5V81.1c0-12.9,3.1-19.4,19.9-19.4l24.4,0c3.1,0,5.7-2.5,5.7-5.7V13.4
			C159.6,10.2,157.1,7.7,154,7.7L154,7.7z M154,7.7"/>
	</g>
</g>
</svg>
