<?xml version="1.0" encoding="utf-8"?>
<!-- Generator: Adobe Illustrator 19.0.0, SVG Export Plug-In . SVG Version: 6.00 Build 0)  -->
<svg version="1.1" id="Layer_1" xmlns="http://www.w3.org/2000/svg" xmlns:xlink="http://www.w3.org/1999/xlink" x="0px" y="0px"
	 viewBox="0 0 277 294" style="enable-background:new 0 0 277 294;" xml:space="preserve">
<style type="text/css">
	.st0{fill:#FFFFFF;}
</style>
<g>
	<path class="st0" d="M178.5,7h-64.8c-28.8,0-48.8,6.3-66.8,21.2C32.8,40.4,24.4,58.1,24.4,75.6c0,27,20.5,55.6,58.6,55.6
		c3.7,0,7.7-0.4,11.3-0.7l-0.5,1.3c-1.5,3.7-3,7.1-3,12.5c0,10.5,5.1,17,10,23.3l0.6,0.8l-1.1,0.1c-15.7,1.1-45,3.1-66.4,16.2
		c-25.3,15-27.2,36.8-27.2,43.2c0,25.2,23.5,50.6,75.9,50.6c61,0,92.9-33.6,92.9-66.9c0-24.6-14.4-36.7-29.7-49.6l-12.9-10
		c-4-3.3-9-7.4-9-15c0-7.5,5-12.4,9.4-16.8l0.5-0.5c13.9-11,29.7-23.4,29.7-50.4c0-27.1-16.9-41.1-25.1-47.8H160
		c0.3,0,0.5-0.1,0.7-0.2l18.5-11.6c0.5-0.3,0.8-1,0.6-1.6C179.6,7.4,179.1,7,178.5,7L178.5,7z M100,263.6
		c-37.2,0-62.2-17.4-62.2-43.2c0-16.9,10.2-29.1,30.3-36.4c16.1-5.4,36.9-5.7,37.1-5.7c3.5,0,5.3,0,8.1,0.4
		c26,18.5,38.5,28.2,38.5,46.8C151.9,249,132,263.6,100,263.6L100,263.6z M99.6,121.3c-31.2,0-44.2-41-44.2-63
		c0-11.2,2.5-19.7,7.8-26.2C68.9,25,78.6,20.4,88,20.4c28.7,0,44.5,38.5,44.5,65.1c0,4.2,0,17-8.8,25.8
		C117.7,117.3,108.1,121.3,99.6,121.3L99.6,121.3z M99.6,121.3"/>
	<path class="st0" d="M269.2,133.8h-34.1v-34c0-0.8-0.6-1.4-1.4-1.4H219c-0.8,0-1.4,0.6-1.4,1.4v34h-33.9c-0.8,0-1.4,0.6-1.4,1.4
		v14.9c0,0.8,0.6,1.4,1.4,1.4h33.9v34.2c0,0.8,0.6,1.4,1.4,1.4h14.7c0.8,0,1.4-0.6,1.4-1.4v-34.2h34.1c0.8,0,1.4-0.6,1.4-1.4v-14.9
		C270.6,134.4,270,133.8,269.2,133.8L269.2,133.8z M269.2,133.8"/>
</g>
</svg>
