<?xml version="1.0" encoding="utf-8"?>
<!-- Generator: Adobe Illustrator 19.0.0, SVG Export Plug-In . SVG Version: 6.00 Build 0)  -->
<svg version="1.1" xmlns="http://www.w3.org/2000/svg" xmlns:xlink="http://www.w3.org/1999/xlink" x="0px" y="0px"
	 viewBox="0 0 799.9 799.9" style="enable-background:new 0 0 799.9 799.9;" xml:space="preserve">
<style type="text/css">
	.st0{fill-rule:evenodd;clip-rule:evenodd;fill:url(#SVGID_1_);}
	.st1{fill-rule:evenodd;clip-rule:evenodd;fill:url(#SVGID_2_);}
	.st2{fill-rule:evenodd;clip-rule:evenodd;fill:#8F3763;}
	.st3{fill-rule:evenodd;clip-rule:evenodd;fill:#FFFFFF;}
</style>
<g id="Background">
	<radialGradient id="SVGID_1_" cx="-492.3895" cy="-523.6677" r="565.6234" gradientUnits="userSpaceOnUse">
		<stop  offset="0" style="stop-color:#FFFFFF"/>
		<stop  offset="1" style="stop-color:#FDF6EE"/>
	</radialGradient>
	<rect x="-892.3" y="-923.6" class="st0" width="799.9" height="799.9"/>
	<radialGradient id="SVGID_2_" cx="1308.552" cy="399.9599" r="565.6234" gradientUnits="userSpaceOnUse">
		<stop  offset="0" style="stop-color:#FFFFFF"/>
		<stop  offset="1" style="stop-color:#FDF6EE"/>
	</radialGradient>
	<rect x="908.6" y="0" class="st1" width="799.9" height="799.9"/>
</g>
<g id="Objects">
	<path class="st2" d="M-416.4-818.1h2.6c3,0,5.4,2.4,5.4,5.4v62.2c16.3,16.8,37.2,44.8,8.8,68.8h-16.7v-3.9h15.3
		c7.2-6.4,12.2-14.4,11.5-24.5c-0.5-7.9-4.3-15.5-8.6-21.9c-3-4.5-6.6-8.8-10.3-12.8v0h-8v-6.7h2.1v-59.2c0-0.4-0.3-0.7-0.7-0.7
		h-1.4V-818.1z M-424.8-818.1h8.4v6.7h-1.4c-0.4,0-0.7,0.3-0.7,0.7v59.2h2.1v6.7h-4.9v36.2c0.8,3.6,8.7,17.8-3.5,17.8l0,0V-818.1
		L-424.8-818.1z M-416.4-681.7h-8.4v-3.9h8.4V-681.7z M-435.8-818.1h11v127.2c-12.2,0-4.4-14.2-3.5-17.8v-36.2h-12.8v0
		c-3.7,4-7.2,8.3-10.3,12.8c-11.2,16.6-12.8,32.4,2.9,46.4h23.7v3.9h-25.1c-28.4-24-7.5-52,8.8-68.8v-62.1
		C-441.1-815.6-438.7-818.1-435.8-818.1z"/>
	<g>
		<path class="st2" d="M-617.5-681.7h34.3c2.3,0,4.2-1.9,4.2-4.2v-67.6c0-20.3-42.6-20.2-42.6,0v67.6
			C-621.6-683.6-619.7-681.7-617.5-681.7z"/>
		<rect x="-611.9" y="-772.4" class="st2" width="23.1" height="20.2"/>
		<path class="st2" d="M-600.3-789.7h11.5c1.2,0,2.1,1,2.1,2.1v11.5c0,1.2-1,2.1-2.1,2.1h-11.5v3.5h11.5c3.1,0,5.6-2.5,5.6-5.6
			v-11.5c0-3.1-2.5-5.6-5.6-5.6h-11.5V-789.7z M-611.9-789.7h11.5v-3.5h-11.5c-3.1,0-5.6,2.5-5.6,5.6v11.5c0,3.1,2.5,5.6,5.6,5.6
			h11.5v-3.5h-11.5c-1.2,0-2.1-1-2.1-2.1v-11.5C-614-788.8-613-789.7-611.9-789.7z"/>
		<rect x="-604.2" y="-812.7" class="st2" width="7.7" height="21.5"/>
		<path class="st2" d="M-607.5-817h32.3c5.7,0,9.1,3.7,10.3,7.1h-5.9c-0.5-0.9-2.1-1.5-3.7-1.4l-33.1,1.1c-1.2,0-2.1-1-2.1-2.1v-2.6
			C-609.6-816-608.7-817-607.5-817z"/>
		<path class="st2" d="M-588.8-791.2v-4c0-1.3-1.1-2.4-2.4-2.4h-18.3c-1.3,0-2.4,1.1-2.4,2.4v4H-588.8z"/>
		<path class="st3" d="M-588.4-686.1h3.9c0.3,0,0.5-0.2,0.5-0.5v-65.7c0-6.3-5.6-12.9-7.4-11.8c-1.2,0.8,2.6,2.7,2.6,11.8v65.7
			C-588.9-686.3-588.7-686.1-588.4-686.1z"/>
	</g>
	<g>
		<path class="st2" d="M-253.9-684.8c3.6-2.7,5.9-7.1,5.9-11.9v-76.8c0-2.4-1.9-4.3-4.3-4.3h-1.7v4.6h2.1c0.5,0,0.8,0.4,0.8,0.8
			v79.9c0,1.6-1.3,2.9-2.9,2.9h-0.1V-684.8z M-263.6-681.7h0.7c3.4,0,6.5-1.1,9-3.1v-4.7h-0.1c-1.6,0-2.9-1.3-2.9-2.9v-79.9
			c0-0.5,0.4-0.8,0.8-0.8h2.1v-4.6h-20.5c-2.4,0-4.3,1.9-4.3,4.3v76.8C-278.6-688.5-271.9-681.7-263.6-681.7z"/>
		<path class="st2" d="M-262.2-822.3c3.2,0.1,6.2,0.7,9.1,1.6l-4,21.9l5.9-21.2c2.6,1.1,5,2.4,7.1,4.1l-8,19.6l9.6-18.3
			c1.9,1.6,3.6,3.5,5,5.5l-12.1,28.4h-27.2l-12.1-28.4c1.5-2.1,3.3-4.1,5.4-5.8l9.6,17.9l-8-19.1c2.2-1.6,4.6-3,7.2-4l6.3,21.5
			l-4.3-22.2c2.7-0.9,5.6-1.4,8.6-1.5l1,22.4L-262.2-822.3z"/>
		<path class="st2" d="M-216.7-683.6c2.2-1.7,3.6-4.3,3.6-7.2V-750c0-1.4-1.2-2.6-2.6-2.6h-1v2.8h1.3c0.3,0,0.5,0.2,0.5,0.5v61.1
			c0,1-0.8,1.8-1.8,1.8h0V-683.6z M-222.6-681.7h0.4c2.1,0,4-0.7,5.5-1.9v-2.9h0c-1,0-1.8-0.8-1.8-1.8v-61.1c0-0.3,0.2-0.5,0.5-0.5
			h1.3v-2.8h-12.4c-1.4,0-2.6,1.2-2.6,2.6v59.2C-231.7-685.8-227.6-681.7-222.6-681.7z"/>
		<path class="st2" d="M-221.8-792.3c1.9,0.1,3.8,0.4,5.5,1l-2.4,13.3l3.6-12.9c1.6,0.6,3,1.5,4.3,2.5l-4.8,11.9l5.8-11.1
			c1.1,1,2.2,2.1,3,3.3l-7.6,28.7h-16.5l-7.1-28.7c0.9-1.3,2-2.5,3.3-3.5l5.8,10.9l-4.9-11.6c1.3-1,2.8-1.8,4.4-2.4l3.8,13.1
			l-2.6-13.5c1.7-0.5,3.4-0.8,5.2-0.9l0.6,13.6L-221.8-792.3z"/>
	</g>
	<g>
		<path class="st2" d="M-429.8-466.8c2.1-0.1,3.7-1.8,3.7-3.9V-516c0-2.1-1.6-3.8-3.7-3.9v2.3h0.7c0.3,0,0.5,0.2,0.5,0.5v48
			c0,0.3-0.2,0.5-0.5,0.5h-0.7V-466.8z M-441-466.8h11c0.1,0,0.1,0,0.2,0v-2h-0.7c-0.3,0-0.5-0.2-0.5-0.5v-48c0-0.3,0.2-0.5,0.5-0.5
			h0.7v-2.3c-0.1,0-0.1,0-0.2,0h-11c-2.1,0-3.9,1.7-3.9,3.9v45.4C-444.9-468.5-443.1-466.8-441-466.8z"/>
		<path class="st2" d="M-437.5-522.3h1.9v-48.2h-1.9V-522.3L-437.5-522.3z M-434-522.3h1v-48.2h-1V-522.3z"/>
		<g>
			<path class="st2" d="M-432.6-606h-5.5C-436.5-607.8-434.2-607.8-432.6-606z"/>
			<path class="st2" d="M-439-604.4h7.4c0.2,0.4,0.3,0.9,0.4,1.3h-8.3C-439.3-603.5-439.2-604-439-604.4z"/>
			<path class="st2" d="M-439.7-601.4h8.8c0,0.4,0,0.7,0,1.1v0.3h-8.9v-0.3C-439.7-600.7-439.7-601.1-439.7-601.4z"/>
			<rect x="-439.7" y="-598.4" class="st2" width="8.9" height="1.3"/>
			<rect x="-439.7" y="-595.5" class="st2" width="8.9" height="1.3"/>
			<rect x="-439.7" y="-592.5" class="st2" width="8.9" height="1.3"/>
			<rect x="-439.7" y="-589.6" class="st2" width="8.9" height="1.3"/>
			<rect x="-439.7" y="-586.6" class="st2" width="8.9" height="1.3"/>
			<rect x="-439.7" y="-583.6" class="st2" width="8.9" height="1.3"/>
			<rect x="-439.7" y="-580.7" class="st2" width="8.9" height="1.3"/>
			<rect x="-439.7" y="-577.7" class="st2" width="8.9" height="1.3"/>
			<rect x="-439.7" y="-574.8" class="st2" width="8.9" height="1.3"/>
			<rect x="-439.7" y="-571.8" class="st2" width="8.9" height="1.3"/>
		</g>
		<rect x="-436.3" y="-606.7" class="st2" width="2.1" height="36.2"/>
		<path class="st2" d="M-408.4-466.8c2.1-0.1,3.7-1.8,3.7-3.9v-86.5c0-2.1-1.6-3.8-3.7-3.9v2.3h0.7c0.3,0,0.5,0.2,0.5,0.5v89.1
			c0,0.3-0.2,0.5-0.5,0.5h-0.7V-466.8z M-419.6-466.8h11c0.1,0,0.1,0,0.2,0v-2h-0.7c-0.3,0-0.5-0.2-0.5-0.5v-89.1
			c0-0.3,0.2-0.5,0.5-0.5h0.7v-2.3c-0.1,0-0.1,0-0.2,0h-11c-2.1,0-3.9,1.8-3.9,3.9v86.5C-423.5-468.5-421.7-466.8-419.6-466.8z"/>
		<rect x="-420.4" y="-564.7" class="st2" width="12.6" height="2.2"/>
		<rect x="-421.5" y="-567.8" class="st2" width="14.8" height="2.2"/>
		<rect x="-421.5" y="-570.8" class="st2" width="14.8" height="2.2"/>
		<rect x="-420.4" y="-573.9" class="st2" width="12.6" height="2.2"/>
	</g>
	<g>
		<g>
			<path class="st2" d="M-424.8-369.6c10.1,0,20.2,4.3,27.2,12.6c12.4,14.6,10.9,36.4-3.1,49.2l-24.1-28.6V-369.6L-424.8-369.6z
				 M-424.8-298.3c7.7,0,15.4-2.5,21.8-7.5l-21.8-25.8V-298.3z M-446.6-362.1c6.5-5,14.2-7.5,21.8-7.5v33.3L-446.6-362.1
				L-446.6-362.1z M-424.8-331.6l-24.1-28.6c-14,12.9-15.5,34.6-3.1,49.2c7,8.3,17.1,12.6,27.2,12.6V-331.6z"/>
			<path class="st2" d="M-424.8-388.7c15.5,0,31,6.6,41.8,19.4c17.2,20.3,17,49.5,0.9,69.5l-2.3-2.7l-16.1,13.6l2.3,2.7
				c-8.3,4.6-17.5,6.9-26.6,6.9v-15.6c8.9,0,17.9-3,25.3-9.3c16.5-14,18.6-38.7,4.6-55.2c-7.7-9.2-18.8-13.9-29.9-13.9V-388.7z
				 M-460.1-375.7c10.3-8.7,22.8-12.9,35.3-12.9v15.6c-8.9,0-17.9,3-25.3,9.3c-16.5,14-18.6,38.7-4.6,55.2
				c7.7,9.2,18.8,13.9,29.9,13.9v15.6c-15.5,0-31-6.6-41.8-19.4C-486.1-321.7-483.2-356.2-460.1-375.7z"/>
		</g>
		<path class="st2" d="M-382.3-249.5v-2.6c5.8,0,10.4-4.7,10.4-10.4c0-5.8-4.7-10.4-10.4-10.4v-2.6c0.1,0,0.3,0,0.4,0
			c18,0,18,26.1,0,26.1C-382-249.5-382.1-249.5-382.3-249.5z M-467.3-273c5.8,0,10.4,4.7,10.4,10.4c0,5.8-4.7,10.4-10.4,10.4v2.6
			c10.3-0.2,15.2-7.5,18.8-7.5h47.3c3.7,0,8.5,7.3,18.8,7.5v-2.6h0c-5.8,0-10.4-4.7-10.4-10.4c0-5.8,4.7-10.4,10.4-10.4h0v-2.6
			c-10.3,0.2-15.2,7.5-18.8,7.5h-47.3c-3.7,0-8.5-7.3-18.8-7.5V-273z M-467.3-273L-467.3-273v-2.6c-0.1,0-0.3,0-0.4,0
			c-18,0-18,26.1,0,26.1c0.1,0,0.3,0,0.4,0v-2.6l0,0c-5.8,0-10.4-4.7-10.4-10.4C-477.7-268.3-473-273-467.3-273z"/>
	</g>
	<path class="st2" d="M-764.4-594.9h29.1c3.8,0,7,3.1,7,7v3.8c-0.7,4.9-5.1,5.2-8.7,1c-1.9-2.2-4.8-3.7-7.9-3.7
		c-5.8,0-10.5,4.7-10.5,10.5c0,5.8,6,10.5,10.5,10.5c4.5,0,6.2-1.5,8.1-3.8c3.6-4.2,8.5-2.4,8.5,1.1v14.3c-0.7,4.9-5.1,5.2-8.7,1
		c-1.9-2.2-4.8-3.7-7.9-3.7c-5.8,0-10.5,4.7-10.5,10.5c0,5.8,6,10.5,10.5,10.5c4.5,0,6.2-1.5,8.1-3.8c3.6-4.2,8.5-2.4,8.5,1.1v14.3
		c-0.7,4.9-5.1,5.2-8.7,1c-1.9-2.2-4.8-3.7-7.9-3.7c-5.8,0-10.5,4.7-10.5,10.5c0,5.8,6,10.5,10.5,10.5c4.5,0,6.2-1.5,8.1-3.8
		c3.6-4.2,8.5-2.4,8.5,1.1v14.3c-0.7,4.9-5.1,5.2-8.7,1c-1.9-2.2-4.8-3.7-7.9-3.7c-5.8,0-10.5,4.7-10.5,10.5c0,5.8,6,10.5,10.5,10.5
		c4.5,0,6.2-1.5,8.1-3.8c3.6-4.2,8.5-2.4,8.5,1.1v3.8c0,3.8-3.1,7-7,7h-29.1c-3.8,0-7-3.1-7-7v-113
		C-771.4-591.8-768.2-594.9-764.4-594.9L-764.4-594.9z M-785.3-468.3v-3c0.5,0,1-0.5,1-1.5v-49.4c0-0.2-0.2-0.3-0.3-0.3h-0.7v-62
		l1.4,59.7h0.1c1,0,1.7,0.6,1.7,2.3v49.7C-782.1-470.9-783.5-469-785.3-468.3z M-785.3-584.6v62h-0.7c-0.2,0-0.3,0.2-0.3,0.3v49.4
		c0,1,0.5,1.5,1,1.5v3c-0.6,0.2-1.2,0.4-1.9,0.4h-1.2V-525h2.9l-1.4-62.7h-1.5v-6.9l0.2-0.4l2.9,7.2L-785.3-584.6z M-788.5-594.5
		v6.9h-1.5l-1.4,62.7h2.9v57.1h-0.9c-2.8,0-5.1-2.3-5.1-5.1v-49.7c0-1.7,0.5-2.3,1.4-2.3h0.1l1.4-62.7L-788.5-594.5z"/>
	<path class="st2" d="M-221-526.6c3.3-23.1,5.5-47.3,4.6-56.9h-4.6v1.8h2.3v14.3h-2.3V-526.6z M-227.7-489
		c2.3-9.6,4.7-23.4,6.7-37.7v-40.7h-2.3v-14.3h2.3v-1.8h-6.7v1.8h2.3v14.3h-2.3v18.7c0.4-3.5,0.8-7.1,1.1-10.5
		c0.1-1.3,1.2-2.3,2.3-2.1c1.2,0.1,2,1.3,1.9,2.7c-1,10.6-2.3,21.7-4.1,32.7c-0.4,2.5-0.8,4.9-1.2,7.3V-489z M-234.4-466.8h0.7
		c3.1,0,5.6-2.9,5.6-6.4v-14.2c0.1-0.5,0.3-1,0.4-1.6v-29.6c-1.5,8.5-3.3,16.7-5.4,24.2c-0.2,0.8-0.7,1.3-1.4,1.6v5.4h3.9v13.8
		c0,2.3-1.7,4.3-3.7,4.3h-0.1V-466.8L-234.4-466.8z M-227.7-583.6v1.8h-2.3v14.3h2.3v18.7c-0.8,7.3-1.8,14.6-2.9,21.9
		c-1.1,6.9-2.3,13.7-3.8,20.2v-60.8h2.3v-14.3h-2.3v-1.8H-227.7z M-241.2-466.8h6.7v-2.5h-6.7V-466.8L-241.2-466.8z M-234.4-583.6
		h-6.7v1.8h2.3v14.3h-2.3v80h6.7v-5.4c-0.4,0.2-0.9,0.2-1.3,0c-1.1-0.4-1.7-1.8-1.4-3c1-3.5,1.8-7,2.7-10.7v-60.8h-2.3v-14.3h2.3
		V-583.6z M-247.9-466.8h6.7v-2.5h-6.7V-466.8L-247.9-466.8z M-241.2-583.6h-6.7v1.8h2.3v14.3h-2.3v80h6.7v-80h-2.3v-14.3h2.3
		V-583.6z M-254.6-466.8h6.7v-2.5h-6.7V-466.8L-254.6-466.8z M-247.9-583.6h-6.7v1.8h2.3v14.3h-2.3v80h6.7v-80h-2.3v-14.3h2.3
		V-583.6z M-261.3-466.8h6.7v-2.5h-6.7V-466.8L-261.3-466.8z M-254.6-583.6h-6.7v1.8h2.3v14.3h-2.3v80h6.7v-80h-2.3v-14.3h2.3
		V-583.6z M-262.1-466.8h0.7v-2.5h-0.1c-2,0-3.7-1.9-3.7-4.3v-13.8h3.9v-80h-2.3v-14.3h2.3v-1.8h-6.7v1.8h2.3v14.3h-2.3v78.4
		c0.1,0.5,0.3,1.1,0.4,1.6v14.2C-267.7-469.7-265.2-466.8-262.1-466.8z M-268.1-583.6h-6.7v1.8h2.3v14.3h-2.3v40.7
		c2,14.2,4.4,28,6.7,37.7v-78.4h-2.3v-14.3h2.3V-583.6z M-274.8-583.6h-4.6c-0.9,9.6,1.3,33.8,4.6,56.9v-40.7h-2.3v-14.3h2.3V-583.6
		z"/>
	<path class="st2" d="M-736.5-697c7-8.4,1-31.4-5.1-45.8v-11.4c11.7,20.5,23.1,55.9,9.3,72.4h-9.3v-3.7h7.5c1.6-2.3,2.7-5,3.4-7.8
		h-10.9v-40.1c3.4,12.6,5,27.5,0.7,34.5C-743.3-695-738.5-694.7-736.5-697z M-741.6-742.8c-1.4-3.3-2.8-6.2-4.1-8.2
		c-2.3-3.9-6.4-5.3-2.7,0.5c2.3,3.7,4.8,10.1,6.8,17.2v40.1h-19.7v-69.9h12.3l-6.2-50.4c-0.3-2.4-3.2-3.6-6.1-3.6v-3.6
		c4.6,0,9.2,2.3,9.7,6.8l6.8,54.5h0c1.1,1.6,2.2,3.4,3.3,5.3V-742.8L-741.6-742.8z M-741.6-685.4v3.7h-19.7v-3.7H-741.6z
		 M-761.4-820.9v3.6c-2.9,0-5.8,1.2-6.1,3.6l-6.2,50.4h12.3v69.9h-30.7c0.7,2.9,1.8,5.5,3.4,7.8h27.3v3.7h-29.1
		c-15.1-18.1,0-58.8,12.6-77.7h0l6.8-54.5C-770.5-818.6-766-820.9-761.4-820.9z"/>
	<path class="st2" d="M-582-385.8c9.5,0,17.2,9.4,17.2,20.9c0,11.5-9.7,20.9-17.2,20.9v-3.7c7.4,0,13.4-7.7,13.4-17.2
		c0-9.5-6-17.2-13.4-17.2V-385.8z M-595.4-270.3l-4.5,19V-281c0.6-0.1,1.1-0.4,1.5-0.8c1.1-1.1,1.1-2.7,0.3-3.9l-1.8,1.8v-1.1
		l1.2-1.2c-0.4-0.3-0.8-0.5-1.2-0.5v-4.1c0.3,0,0.5-0.1,0.8-0.1v-73.9c0-11.5,7.7-20.9,17.2-20.9v3.7c-7.4,0-13.4,7.7-13.4,17.2
		c0,9.5,6,17.2,13.4,17.2v3.7c-7.5,0-13.4,3.1-13.4,8.9v44.1v10V-270.3z M-599.9-251.3l-0.4,1.9l-3-12.8v-21
		c0.1,0.4,0.3,0.8,0.5,1.1l2.9-2.9v1.1l-2.4,2.4c0.7,0.5,1.6,0.7,2.4,0.5V-251.3L-599.9-251.3z M-603.4-289.4v4.8
		c0.1-0.5,0.4-1,0.8-1.4c0.7-0.7,1.7-1,2.7-0.8v-4.1C-601.2-290.8-602.4-290.2-603.4-289.4L-603.4-289.4z M-603.4-291.9v-82.5
		c1.2,2.8,1.9,6.1,1.9,9.5v72C-602.2-292.6-602.8-292.2-603.4-291.9z M-603.4-262.3l-1.9-8v-15.5c0-1.4,0.8-2.7,1.9-3.6v4.8
		c-0.1,0.4-0.1,0.9,0,1.3V-262.3L-603.4-262.3z M-603.4-374.4v82.5c-1.1,0.7-1.8,1.6-1.9,2.2v-45.5c0-5.7-6-8.9-13.4-8.9l0,0v-3.7
		l0,0c7.4,0,13.4-7.7,13.4-17.2c0-9.5-6-17.2-13.4-17.2l0,0v-3.7l0,0C-612-385.8-606.2-381.1-603.4-374.4z M-618.7-385.8v3.7
		c-7.4,0-13.4,7.7-13.4,17.2c0,9.5,6,17.2,13.4,17.2v3.7c-7.5,0-17.2-9.4-17.2-20.9C-635.8-376.4-628.1-385.8-618.7-385.8z"/>
	<path class="st2" d="M-552.8-535.7c4.6,7.6,7.2,16.5,7.2,26.1c0,9.5-2.6,18.5-7.2,26.1v-10.8c1.7-4.8,2.6-10,2.6-15.4
		c0-5.4-0.9-10.6-2.6-15.4V-535.7L-552.8-535.7z M-552.8-558.6v-26.2c5.8-4.6,14.6-7.5,24.5-7.5c17.5,0,31.7,9.3,31.7,20.7
		c0,11.4-14.2,20.7-31.7,20.7C-538.2-551.1-547-554-552.8-558.6z M-580.2-557.8c11.5,3.9,21.2,11.8,27.4,22.1v10.5
		c-4.5-12.9-14.6-23.1-27.4-27.9h-16.3v-4.6H-580.2L-580.2-557.8L-580.2-557.8L-580.2-557.8z M-552.8-483.6
		c-3.7,6.1-8.6,11.4-14.5,15.5h-2.5h-6.7h-20.1v-5h28.2c2.5-1.9,4.8-4.1,6.9-6.5h-35.1v-5h38.9c2-3,3.6-6.3,4.8-9.7V-483.6
		L-552.8-483.6z M-552.8-584.9v26.2c-4.5-3.6-7.2-8.1-7.2-13.1C-560-576.7-557.3-581.3-552.8-584.9L-552.8-584.9z M-596.5-563.1
		V-585h7.2c5,0,9.2,4.1,9.2,9.2v12.7H-596.5L-596.5-563.1z M-563.3-568.8c-1.8-0.6-4.1-0.9-6.5-0.9c-2.6,0-4.9,0.4-6.8,1.1v-6.1
		c1.9,0.7,4.3,1.1,6.8,1.1c2.4,0,4.6-0.3,6.5-0.9c-0.2,1-0.3,1.9-0.3,2.9C-563.6-570.8-563.5-569.8-563.3-568.8z M-596.5-468.1
		h-20.1h-9h-0.1v-0.1c-13-9.2-21.5-24.4-21.5-41.5c0-22.4,14.5-41.4,34.6-48.1l0,0h16.2v4.6h-16.3c-17.5,6.6-30,23.5-30,43.4
		c0,9.3,2.7,17.9,7.4,25.2h38.9v5h-35.1c2.1,2.4,4.4,4.6,6.9,6.5h28.2V-468.1L-596.5-468.1z M-596.5-585v21.8h-16.2v-12.7
		c0-5,4.1-9.2,9.2-9.2H-596.5z"/>
	<path class="st2" d="M-218-346.5c3.4,0,6.2,2.8,6.2,6.2v84.7c0,3.4-2.8,6.2-6.2,6.2v-3.5h0c1,0,1.8-0.8,1.8-1.8v-86.4
		c0-1-0.8-1.8-1.8-1.8h0V-346.5z M-239.1-346.5h21.1h0v3.5c-1,0-1.8,0.8-1.8,1.8v86.4c0,1,0.8,1.8,1.8,1.8v3.5h0h-21.1
		c-3.4,0-6.2-2.8-6.2-6.2v-84.7C-245.3-343.7-242.5-346.5-239.1-346.5L-239.1-346.5z M-256.2-249.5v-3.4l0,0c1,0,1.8-0.8,1.8-1.8
		v-29.4c0-1-0.8-1.8-1.8-1.8v-3.4c3.2,0.2,5.7,2.9,5.7,6.2v27.5C-250.5-252.4-253-249.7-256.2-249.5L-256.2-249.5z M-256.2-291.9
		v-48.8c0.6,0.8,1,1.7,1,2.8v46.2C-255.5-291.8-255.8-291.9-256.2-291.9L-256.2-291.9z M-256.2-285.9 M-256.2-340.7v48.8
		c-0.2,0-0.3,0-0.5,0h-3.2v-3.3h1.6v-42.1c0-0.9-0.7-1.6-1.6-1.6v-3.5h0.2C-258.2-342.4-257-341.8-256.2-340.7L-256.2-340.7z
		 M-256.2-289.3v3.4l0,0c-1,0-1.8,0.8-1.8,1.8v29.4c0,1,0.8,1.8,1.8,1.8v3.4c-0.2,0-0.3,0-0.5,0h-3.2v-39.9h3.2
		C-256.5-289.3-256.3-289.3-256.2-289.3L-256.2-289.3z M-256.2-252.9 M-259.9-342.4v3.5l0,0c-0.9,0-1.6,0.7-1.6,1.6v42.1h1.6v3.3
		h-3.1v-50.5H-259.9L-259.9-342.4z M-259.9-289.3v39.9h-3.1v-39.9H-259.9L-259.9-289.3z M-262.9-344.5v-9c0.1,0,0.2,0.1,0.4,0.1h0
		c0.7,0,1.4-0.6,1.4-1.4V-371c0-2.1-0.7-6.3-1.7-7.9v-4c1.5,3.3,2.9,8.9,2.9,13.5v24.9H-262.9z M-262.9-382.9v4c0,0,0-0.1-0.1-0.1
		c-0.3-0.4-0.6-0.6-0.9-0.8c0,1.3-0.2,2.6-0.8,3.7c0.7,1.5,0.8,3.9,0.8,5.1v16.2c0,0.6,0.4,1.1,1,1.3v9h-11.4v-24.9
		c0-10.3,4.7-17.2,9.1-16.3C-264.5-385.5-263.7-384.5-262.9-382.9L-262.9-382.9z M-262.9-342.4v50.5h-14.8c-0.5,0-1,0.1-1.5,0.2
		V-338c0-2.4,2-4.4,4.4-4.4H-262.9L-262.9-342.4z M-262.9-289.3v39.9h-14.8c-3.4,0-6.2-2.8-6.2-6.2v-27.5c0-3.4,2.8-6.2,6.2-6.2
		H-262.9z"/>
	<g>
		<path class="st2" d="M-730-308.4v48.3c0,7.3-4.2,10.6-9.3,10.6h-31.5v-3.3l31.3,0c3.6-0.6,5.7-4.2,5.7-7.7v-44.5h-37v-3.3H-730z
			 M-770.9-249.5h-31.5c-5.1,0-9.3-3.3-9.3-10.6v-48.3h40.9v3.3h-37v44.5c0,4.1,1.9,7.8,5.6,7.8l31.4,0V-249.5z"/>
		<path class="st2" d="M-779.1-311.1c7.5-20.2,28.6-4.5,32.6-25c7.8,5.4,10.8,13.8,10,25H-779.1z"/>
		<path class="st2" d="M-736.3-302.7v42.2c0,2.9-2.3,5.2-5.2,5.2h-59.9c-3,0-4.1-2.1-4.1-5.1v-25.7c7.3-13.3,17.1-7.7,22.9-16.6
			H-736.3z"/>
		<path class="st2" d="M-698-251.9l-5.9,2.4l-6.3-15.7v-17.2L-698-251.9L-698-251.9z M-710.2-299.5l18.2,45.3
			c35.1-15.2,15.9-76.5-18.2-77.8V-299.5z M-710.2-265.2l-24.1-60.1l6-2.4l18.2,45.3V-265.2L-710.2-265.2z M-710.2-332.1
			c-3.9-0.2-8,0.5-12.3,2l12.3,30.5V-332.1z"/>
	</g>
	<g>
		<path class="st2" d="M467.5-607.7v259.6c0,39.3-22.6,57.1-50.1,57.1H247.8v-17.9l168.2-0.1c19.3-3.4,30.6-22.4,30.6-41.6v-239.3
			H247.8v-17.8H467.5z M247.8-290.9H78.3c-27.6,0-50.1-17.9-50.1-57.1v-259.6h219.6v17.8H49v239.3c0,21.8,10.4,41.9,30.1,41.9
			l168.8-0.1V-290.9z"/>
		<path class="st2" d="M203.6-622.1c40.3-108.7,153.5-24.1,175.2-134.3c42,28.8,58,74.1,54,134.3H203.6z"/>
		<path class="st2" d="M433.6-576.9v226.7c0,15.7-12.6,27.9-28,27.9H83.8c-15.9,0-21.8-11.1-21.8-27.4v-138.2
			c39-71.3,91.7-41.3,123.3-89H433.6z"/>
		<path class="st2" d="M639.8-303.7l-32,12.8l-33.9-84.5v-92.5L639.8-303.7L639.8-303.7z M573.8-559.9l97.6,243.2
			c188.5-81.8,85.6-411-97.6-418.3V-559.9z M573.8-375.4L444.1-698.6l32-12.8l97.8,243.5V-375.4L573.8-375.4z M573.8-735
			c-21-0.9-43.1,2.5-65.9,11l65.9,164.2V-735z"/>
	</g>
	<path class="st2" d="M387.9,144.9h117c15.4,0,28.1,12.6,28.1,28.1v15.3c-2.7,19.7-20.5,20.9-34.8,4c-7.7-9-19.2-14.7-31.9-14.7
		c-23.3,0-42.1,18.8-42.1,42.1c0,23.3,24,42.1,42.1,42.1c18.2,0,24.8-6,32.5-15.3c14.3-16.8,34.2-9.5,34.2,4.6v57.3
		c-2.7,19.7-20.5,20.9-34.8,4c-7.7-9-19.2-14.7-31.9-14.7c-23.3,0-42.1,18.9-42.1,42.1c0,23.3,24,42.1,42.1,42.1
		c18.2,0,24.8-6,32.5-15.3c14.3-16.8,34.2-9.5,34.2,4.6v57.3c-2.7,19.7-20.5,20.9-34.8,4c-7.7-9-19.2-14.7-31.9-14.7
		c-23.3,0-42.1,18.9-42.1,42.1c0,23.3,24,42.1,42.1,42.1c18.2,0,24.8-6,32.5-15.3c14.3-16.8,34.2-9.5,34.2,4.6v57.3
		c-2.7,19.8-20.5,20.9-34.8,4c-7.7-9-19.2-14.7-31.9-14.7c-23.3,0-42.1,18.8-42.1,42.1c0,23.3,24,42.1,42.1,42.1
		c18.2,0,24.8-6,32.5-15.3c14.3-16.8,34.2-9.5,34.2,4.6V627c0,15.4-12.6,28.1-28.1,28.1h-117c-15.4,0-28.1-12.6-28.1-28.1v-454
		C359.8,157.5,372.4,144.9,387.9,144.9L387.9,144.9z M303.8,653.6v-12.2c2.1,0.1,4.2-1.9,4.2-6.2V436.6c0-0.8-0.6-1.4-1.4-1.4h-2.8
		V186.2l5.5,239.6h0.5c4.2,0,6.9,2.3,6.9,9.1v199.6C316.6,643.1,311.3,650.5,303.8,653.6z M303.8,186.2v249.1H301
		c-0.8,0-1.4,0.6-1.4,1.4v198.5c0,4,2.1,6.1,4.2,6.2v12.2c-2.4,1-5,1.5-7.7,1.5h-4.9V425.8h11.6L297.1,174h-5.9v-27.6l0.7-1.5
		l11.6,29.1L303.8,186.2z M291.2,146.4V174h-5.9l-5.7,251.8h11.6v229.3h-3.7c-11.3,0-20.5-9.2-20.5-20.5V434.9
		c0-6.8,2.1-9.1,5.8-9.1h0.5l5.7-251.9L291.2,146.4z"/>
	<path class="st2" d="M1417.8-646.5c14.4,0,26.3,11.8,26.3,26.3v360.4c0,14.4-11.8,26.3-26.3,26.3v-14.9h0c4.2,0,7.7-3.5,7.7-7.7
		v-367.8c0-4.2-3.5-7.7-7.7-7.7h0V-646.5z M1328.1-646.5h89.7h0v14.9c-4.2,0-7.7,3.5-7.7,7.7v367.8c0,4.2,3.5,7.7,7.7,7.7v14.9h0
		h-89.7c-14.5,0-26.3-11.8-26.3-26.3v-360.4C1301.8-634.7,1313.6-646.5,1328.1-646.5L1328.1-646.5z M1255.4-233.7v-14.4l0,0
		c4.2,0,7.7-3.5,7.7-7.7v-125.3c0-4.2-3.5-7.7-7.7-7.7v-14.4c13.5,1.1,24.2,12.4,24.2,26.2v117.1
		C1279.6-246.1,1268.9-234.7,1255.4-233.7L1255.4-233.7z M1255.4-414.2v-207.9c2.6,3.2,4.1,7.3,4.1,11.7v196.8
		C1258.2-413.8,1256.8-414.1,1255.4-414.2L1255.4-414.2z M1255.4-388.8 M1255.4-622.1v207.9c-0.7,0-1.4-0.1-2.1-0.1h-13.6v-14.2h6.8
		v-179c0-3.7-3-6.8-6.8-6.8v-15h1C1246.6-629.2,1252-626.4,1255.4-622.1L1255.4-622.1z M1255.4-403.2v14.4l0,0
		c-4.2,0-7.7,3.5-7.7,7.7v125.3c0,4.2,3.5,7.7,7.7,7.7v14.4c-0.7,0.1-1.4,0.1-2.1,0.1h-13.6v-169.7h13.6
		C1254.1-403.3,1254.7-403.3,1255.4-403.2L1255.4-403.2z M1255.4-248.1 M1239.7-629.2v15l0,0c-3.7,0-6.8,3-6.8,6.8v179h6.8v14.2
		h-13.1v-214.9H1239.7L1239.7-629.2z M1239.7-403.3v169.7h-13.1v-169.7H1239.7L1239.7-403.3z M1226.6-638v-38.2
		c0.5,0.2,1.1,0.2,1.6,0.2h0c3.2,0,5.8-2.6,5.8-5.8V-751c0-8.8-3.2-26.9-7.4-33.5v-17c6.6,14.1,12.2,38.1,12.2,57.5V-638H1226.6z
		 M1226.6-801.6v17c-0.1-0.2-0.2-0.3-0.3-0.5c-1.2-1.6-2.4-2.7-3.6-3.2c0.2,5.4-0.8,11-3.4,15.8c3,6.3,3.2,16.4,3.2,21.8v69
		c0,2.6,1.8,4.8,4.1,5.5v38.2h-48.3v-106.1c0-43.7,20.1-73.1,38.7-69.3C1220.1-812.8,1223.4-808.3,1226.6-801.6L1226.6-801.6z
		 M1226.6-629.2v214.9h-62.9c-2.1,0-4.2,0.3-6.2,0.7v-196.8c0-10.4,8.5-18.9,18.9-18.9H1226.6L1226.6-629.2z M1226.6-403.3v169.7
		h-62.9c-14.5,0-26.3-11.8-26.3-26.3V-377c0-14.5,11.8-26.3,26.3-26.3H1226.6z"/>
	<path class="st2" d="M1384.6,105.6h2.6c3,0,5.4,2.4,5.4,5.4v62.2c16.3,16.8,37.2,44.8,8.8,68.8h-16.7V238h15.3
		c7.2-6.4,12.2-14.4,11.5-24.5c-0.5-7.9-4.3-15.5-8.6-21.9c-3-4.5-6.6-8.8-10.3-12.8v0h-8v-6.7h2.1v-59.2c0-0.4-0.3-0.7-0.7-0.7
		h-1.4V105.6z M1376.2,105.6h8.4v6.7h-1.4c-0.4,0-0.7,0.3-0.7,0.7v59.2h2.1v6.7h-4.9V215c0.8,3.6,8.7,17.8-3.5,17.8l0,0V105.6
		L1376.2,105.6z M1384.6,241.9h-8.4V238h8.4V241.9z M1365.2,105.6h11v127.2c-12.2,0-4.4-14.2-3.5-17.8v-36.2h-12.8v0
		c-3.7,4-7.2,8.3-10.3,12.8c-11.2,16.6-12.8,32.4,2.9,46.4h23.7v3.9H1351c-28.4-24-7.5-52,8.8-68.8V111
		C1359.8,108,1362.2,105.6,1365.2,105.6z"/>
	<g>
		<path class="st2" d="M1183.5,241.9h34.3c2.3,0,4.2-1.9,4.2-4.2v-67.6c0-20.3-42.6-20.2-42.6,0v67.6
			C1179.3,240,1181.2,241.9,1183.5,241.9z"/>
		<rect x="1189.1" y="151.2" class="st2" width="23.1" height="20.2"/>
		<path class="st2" d="M1200.6,133.9h11.5c1.2,0,2.1,1,2.1,2.1v11.5c0,1.2-1,2.1-2.1,2.1h-11.5v3.5h11.5c3.1,0,5.6-2.5,5.6-5.6V136
			c0-3.1-2.5-5.6-5.6-5.6h-11.5V133.9z M1189.1,133.9h11.5v-3.5h-11.5c-3.1,0-5.6,2.5-5.6,5.6v11.5c0,3.1,2.5,5.6,5.6,5.6h11.5v-3.5
			h-11.5c-1.2,0-2.1-1-2.1-2.1V136C1186.9,134.9,1187.9,133.9,1189.1,133.9z"/>
		<rect x="1196.8" y="110.9" class="st2" width="7.7" height="21.5"/>
		<path class="st2" d="M1193.4,106.7h32.3c5.7,0,9.1,3.7,10.3,7.1h-5.9c-0.5-0.9-2.1-1.5-3.7-1.4l-33.1,1.1c-1.2,0-2.1-1-2.1-2.1
			v-2.6C1191.3,107.6,1192.3,106.7,1193.4,106.7z"/>
		<path class="st2" d="M1212.1,132.4v-4c0-1.3-1.1-2.4-2.4-2.4h-18.3c-1.3,0-2.4,1.1-2.4,2.4v4H1212.1z"/>
		<path class="st3" d="M1212.5,237.5h3.9c0.3,0,0.5-0.2,0.5-0.5v-65.7c0-6.3-5.6-12.9-7.4-11.8c-1.2,0.8,2.6,2.7,2.6,11.8V237
			C1212,237.3,1212.3,237.5,1212.5,237.5z"/>
	</g>
	<g>
		<path class="st2" d="M1547.1,238.8c3.6-2.7,5.9-7.1,5.9-11.9v-76.8c0-2.4-1.9-4.3-4.3-4.3h-1.7v4.6h2.1c0.5,0,0.8,0.4,0.8,0.8
			v79.9c0,1.6-1.3,2.9-2.9,2.9h-0.1V238.8z M1537.3,241.9h0.7c3.4,0,6.5-1.1,9-3.1v-4.7h-0.1c-1.6,0-2.9-1.3-2.9-2.9v-79.9
			c0-0.5,0.4-0.8,0.8-0.8h2.1v-4.6h-20.5c-2.4,0-4.3,1.9-4.3,4.3v76.8C1522.3,235.1,1529.1,241.9,1537.3,241.9z"/>
		<path class="st2" d="M1538.7,101.3c3.2,0.1,6.2,0.7,9.1,1.6l-4,21.9l5.9-21.2c2.6,1.1,5,2.4,7.1,4.1l-8,19.6l9.6-18.3
			c1.9,1.6,3.6,3.5,5,5.5l-12.1,28.4h-27.2l-12.1-28.4c1.5-2.1,3.3-4.1,5.4-5.8l9.6,17.9l-8-19.1c2.2-1.6,4.6-3,7.2-4l6.3,21.5
			l-4.3-22.2c2.7-0.9,5.6-1.4,8.6-1.5l1,22.4L1538.7,101.3z"/>
		<path class="st2" d="M1584.3,240c2.2-1.7,3.6-4.3,3.6-7.2v-59.2c0-1.4-1.2-2.6-2.6-2.6h-1v2.8h1.3c0.3,0,0.5,0.2,0.5,0.5v61.1
			c0,1-0.8,1.8-1.8,1.8h0V240z M1578.3,241.9h0.4c2.1,0,4-0.7,5.5-1.9v-2.9h0c-1,0-1.8-0.8-1.8-1.8v-61.1c0-0.3,0.2-0.5,0.5-0.5h1.3
			V171h-12.4c-1.4,0-2.6,1.2-2.6,2.6v59.2C1569.2,237.8,1573.3,241.9,1578.3,241.9z"/>
		<path class="st2" d="M1579.2,131.3c1.9,0.1,3.8,0.4,5.5,1l-2.4,13.3l3.6-12.9c1.6,0.6,3,1.5,4.3,2.5l-4.8,11.9l5.8-11.1
			c1.1,1,2.2,2.1,3,3.3l-7.6,28.7h-16.5l-7.1-28.7c0.9-1.3,2-2.5,3.3-3.5l5.8,10.9l-4.9-11.6c1.3-1,2.8-1.8,4.4-2.4l3.8,13.1
			l-2.6-13.5c1.7-0.5,3.4-0.8,5.2-0.9l0.6,13.6L1579.2,131.3z"/>
	</g>
	<g>
		<path class="st2" d="M1371.2,456.8c2.1-0.1,3.7-1.8,3.7-3.9v-45.4c0-2.1-1.6-3.8-3.7-3.9v2.3h0.7c0.3,0,0.5,0.2,0.5,0.5v48
			c0,0.3-0.2,0.5-0.5,0.5h-0.7V456.8z M1360,456.8h11c0.1,0,0.1,0,0.2,0v-2h-0.7c-0.3,0-0.5-0.2-0.5-0.5v-48c0-0.3,0.2-0.5,0.5-0.5
			h0.7v-2.3c-0.1,0-0.1,0-0.2,0h-11c-2.1,0-3.9,1.7-3.9,3.9V453C1356.1,455.1,1357.8,456.8,1360,456.8z"/>
		<path class="st2" d="M1363.5,401.4h1.9v-48.2h-1.9V401.4L1363.5,401.4z M1366.9,401.4h1v-48.2h-1V401.4z"/>
		<g>
			<path class="st2" d="M1368.4,317.6h-5.5C1364.5,315.8,1366.8,315.9,1368.4,317.6z"/>
			<path class="st2" d="M1361.9,319.3h7.4c0.2,0.4,0.3,0.9,0.4,1.3h-8.3C1361.6,320.1,1361.8,319.7,1361.9,319.3z"/>
			<path class="st2" d="M1361.3,322.2h8.8c0,0.4,0,0.7,0,1.1v0.3h-8.9v-0.3C1361.2,322.9,1361.3,322.6,1361.3,322.2z"/>
			<rect x="1361.2" y="325.2" class="st2" width="8.9" height="1.3"/>
			<rect x="1361.2" y="328.1" class="st2" width="8.9" height="1.3"/>
			<rect x="1361.2" y="331.1" class="st2" width="8.9" height="1.3"/>
			<rect x="1361.2" y="334.1" class="st2" width="8.9" height="1.3"/>
			<rect x="1361.2" y="337" class="st2" width="8.9" height="1.3"/>
			<rect x="1361.2" y="340" class="st2" width="8.9" height="1.3"/>
			<rect x="1361.2" y="343" class="st2" width="8.9" height="1.3"/>
			<rect x="1361.2" y="345.9" class="st2" width="8.9" height="1.3"/>
			<rect x="1361.2" y="348.9" class="st2" width="8.9" height="1.3"/>
			<rect x="1361.2" y="351.8" class="st2" width="8.9" height="1.3"/>
		</g>
		<rect x="1364.6" y="317" class="st2" width="2.1" height="36.2"/>
		<path class="st2" d="M1392.5,456.8c2.1-0.1,3.7-1.8,3.7-3.9v-86.5c0-2.1-1.6-3.8-3.7-3.9v2.3h0.7c0.3,0,0.5,0.2,0.5,0.5v89.1
			c0,0.3-0.2,0.5-0.5,0.5h-0.7V456.8z M1381.3,456.8h11c0.1,0,0.1,0,0.2,0v-2h-0.7c-0.3,0-0.5-0.2-0.5-0.5v-89.1
			c0-0.3,0.2-0.5,0.5-0.5h0.7v-2.3c-0.1,0-0.1,0-0.2,0h-11c-2.1,0-3.9,1.8-3.9,3.9V453C1377.4,455.1,1379.2,456.8,1381.3,456.8z"/>
		<rect x="1380.5" y="358.9" class="st2" width="12.6" height="2.2"/>
		<rect x="1379.5" y="355.9" class="st2" width="14.8" height="2.2"/>
		<rect x="1379.5" y="352.8" class="st2" width="14.8" height="2.2"/>
		<rect x="1380.5" y="349.8" class="st2" width="12.6" height="2.2"/>
	</g>
	<g>
		<g>
			<path class="st2" d="M1376.2,554.1c10.1,0,20.2,4.3,27.2,12.6c12.4,14.6,10.9,36.4-3.1,49.2l-24.1-28.6V554.1L1376.2,554.1z
				 M1376.2,625.3c7.7,0,15.4-2.5,21.8-7.5l-21.8-25.8V625.3z M1354.3,561.5c6.5-5,14.2-7.5,21.8-7.5v33.3L1354.3,561.5
				L1354.3,561.5z M1376.2,592l-24.1-28.6c-14,12.9-15.5,34.6-3.1,49.2c7,8.3,17.1,12.6,27.2,12.6V592z"/>
			<path class="st2" d="M1376.2,535c15.5,0,31,6.6,41.8,19.4c17.2,20.3,17,49.5,0.9,69.5l-2.3-2.7l-16.1,13.6l2.3,2.7
				c-8.3,4.6-17.5,6.9-26.6,6.9v-15.6c8.9,0,17.9-3,25.3-9.3c16.5-14,18.6-38.7,4.6-55.2c-7.7-9.2-18.8-13.9-29.9-13.9V535z
				 M1340.8,547.9c10.3-8.7,22.8-12.9,35.3-12.9v15.6c-8.9,0-17.9,3-25.3,9.3c-16.5,14-18.6,38.7-4.6,55.2
				c7.7,9.2,18.8,13.9,29.9,13.9v15.6c-15.5,0-31-6.6-41.8-19.4C1314.9,602,1317.7,567.4,1340.8,547.9z"/>
		</g>
		<path class="st2" d="M1418.7,674.2v-2.6c5.8,0,10.4-4.7,10.4-10.4c0-5.8-4.7-10.4-10.4-10.4v-2.6c0.1,0,0.3,0,0.4,0
			c18,0,18,26.1,0,26.1C1418.9,674.2,1418.8,674.2,1418.7,674.2z M1333.7,650.7c5.8,0,10.4,4.7,10.4,10.4c0,5.8-4.7,10.4-10.4,10.4
			v2.6c10.3-0.2,15.2-7.5,18.8-7.5h47.3c3.7,0,8.5,7.3,18.8,7.5v-2.6h0c-5.8,0-10.4-4.7-10.4-10.4c0-5.8,4.7-10.4,10.4-10.4h0v-2.6
			c-10.3,0.2-15.2,7.5-18.8,7.5h-47.3c-3.7,0-8.5-7.3-18.8-7.5V650.7z M1333.7,650.7L1333.7,650.7v-2.6c-0.1,0-0.3,0-0.4,0
			c-18,0-18,26.1,0,26.1c0.1,0,0.3,0,0.4,0v-2.6l0,0c-5.8,0-10.4-4.7-10.4-10.4C1323.2,655.3,1327.9,650.7,1333.7,650.7z"/>
	</g>
	<path class="st2" d="M1036.5,328.7h29.1c3.8,0,7,3.1,7,7v3.8c-0.7,4.9-5.1,5.2-8.7,1c-1.9-2.2-4.8-3.7-7.9-3.7
		c-5.8,0-10.5,4.7-10.5,10.5c0,5.8,6,10.5,10.5,10.5c4.5,0,6.2-1.5,8.1-3.8c3.6-4.2,8.5-2.4,8.5,1.1v14.3c-0.7,4.9-5.1,5.2-8.7,1
		c-1.9-2.2-4.8-3.7-7.9-3.7c-5.8,0-10.5,4.7-10.5,10.5c0,5.8,6,10.5,10.5,10.5c4.5,0,6.2-1.5,8.1-3.8c3.6-4.2,8.5-2.4,8.5,1.1v14.3
		c-0.7,4.9-5.1,5.2-8.7,1c-1.9-2.2-4.8-3.7-7.9-3.7c-5.8,0-10.5,4.7-10.5,10.5c0,5.8,6,10.5,10.5,10.5c4.5,0,6.2-1.5,8.1-3.8
		c3.6-4.2,8.5-2.4,8.5,1.1v14.3c-0.7,4.9-5.1,5.2-8.7,1c-1.9-2.2-4.8-3.7-7.9-3.7c-5.8,0-10.5,4.7-10.5,10.5c0,5.8,6,10.5,10.5,10.5
		c4.5,0,6.2-1.5,8.1-3.8c3.6-4.2,8.5-2.4,8.5,1.1v3.8c0,3.8-3.1,7-7,7h-29.1c-3.8,0-7-3.1-7-7v-113
		C1029.6,331.9,1032.7,328.7,1036.5,328.7L1036.5,328.7z M1015.6,455.3v-3c0.5,0,1-0.5,1-1.5v-49.4c0-0.2-0.2-0.3-0.3-0.3h-0.7v-62
		l1.4,59.7h0.1c1,0,1.7,0.6,1.7,2.3v49.7C1018.8,452.7,1017.5,454.6,1015.6,455.3z M1015.6,339v62h-0.7c-0.2,0-0.3,0.2-0.3,0.3v49.4
		c0,1,0.5,1.5,1,1.5v3c-0.6,0.2-1.2,0.4-1.9,0.4h-1.2v-57.1h2.9l-1.4-62.7h-1.5v-6.9l0.2-0.4l2.9,7.2L1015.6,339z M1012.5,329.1v6.9
		h-1.5l-1.4,62.7h2.9v57.1h-0.9c-2.8,0-5.1-2.3-5.1-5.1v-49.7c0-1.7,0.5-2.3,1.4-2.3h0.1l1.4-62.7L1012.5,329.1z"/>
	<path class="st2" d="M1580,397c3.3-23.1,5.5-47.3,4.6-56.9h-4.6v1.8h2.3v14.3h-2.3V397z M1573.2,434.7c2.3-9.6,4.7-23.4,6.7-37.7
		v-40.7h-2.3v-14.3h2.3v-1.8h-6.7v1.8h2.3v14.3h-2.3V375c0.4-3.5,0.8-7.1,1.1-10.5c0.1-1.3,1.2-2.3,2.3-2.1c1.2,0.1,2,1.3,1.9,2.7
		c-1,10.6-2.3,21.7-4.1,32.7c-0.4,2.5-0.8,4.9-1.2,7.3V434.7z M1566.5,456.8h0.7c3.1,0,5.6-2.9,5.6-6.4v-14.2c0.1-0.5,0.3-1,0.4-1.6
		V405c-1.5,8.5-3.3,16.7-5.4,24.2c-0.2,0.8-0.7,1.3-1.4,1.6v5.4h3.9v13.8c0,2.3-1.7,4.3-3.7,4.3h-0.1V456.8L1566.5,456.8z
		 M1573.2,340.1v1.8h-2.3v14.3h2.3V375c-0.8,7.3-1.8,14.6-2.9,21.9c-1.1,6.9-2.3,13.7-3.8,20.2v-60.8h2.3v-14.3h-2.3v-1.8H1573.2z
		 M1559.8,456.8h6.7v-2.5h-6.7V456.8L1559.8,456.8z M1566.5,340.1h-6.7v1.8h2.3v14.3h-2.3v80h6.7v-5.4c-0.4,0.2-0.9,0.2-1.3,0
		c-1.1-0.4-1.7-1.8-1.4-3c1-3.5,1.8-7,2.7-10.7v-60.8h-2.3v-14.3h2.3V340.1z M1553.1,456.8h6.7v-2.5h-6.7V456.8L1553.1,456.8z
		 M1559.8,340.1h-6.7v1.8h2.3v14.3h-2.3v80h6.7v-80h-2.3v-14.3h2.3V340.1z M1546.3,456.8h6.7v-2.5h-6.7V456.8L1546.3,456.8z
		 M1553.1,340.1h-6.7v1.8h2.3v14.3h-2.3v80h6.7v-80h-2.3v-14.3h2.3V340.1z M1539.6,456.8h6.7v-2.5h-6.7V456.8L1539.6,456.8z
		 M1546.3,340.1h-6.7v1.8h2.3v14.3h-2.3v80h6.7v-80h-2.3v-14.3h2.3V340.1z M1538.9,456.8h0.7v-2.5h-0.1c-2,0-3.7-1.9-3.7-4.3v-13.8
		h3.9v-80h-2.3v-14.3h2.3v-1.8h-6.7v1.8h2.3v14.3h-2.3v78.4c0.1,0.5,0.3,1.1,0.4,1.6v14.2C1533.3,454,1535.8,456.8,1538.9,456.8z
		 M1532.9,340.1h-6.7v1.8h2.3v14.3h-2.3V397c2,14.2,4.4,28,6.7,37.7v-78.4h-2.3v-14.3h2.3V340.1z M1526.2,340.1h-4.6
		c-0.9,9.6,1.3,33.8,4.6,56.9v-40.7h-2.3v-14.3h2.3V340.1z"/>
	<path class="st2" d="M1064.4,226.6c7-8.4,1-31.4-5.1-45.8v-11.4c11.7,20.5,23.1,55.9,9.3,72.4h-9.3v-3.7h7.5c1.6-2.3,2.7-5,3.4-7.8
		h-10.9v-40.1c3.4,12.6,5,27.5,0.7,34.5C1057.7,228.7,1062.5,228.9,1064.4,226.6z M1059.3,180.8c-1.4-3.3-2.8-6.2-4.1-8.2
		c-2.3-3.9-6.4-5.3-2.7,0.5c2.3,3.7,4.8,10.1,6.8,17.2v40.1h-19.7v-69.9h12.3l-6.2-50.4c-0.3-2.4-3.2-3.6-6.1-3.6v-3.6
		c4.6,0,9.2,2.3,9.7,6.8l6.8,54.5h0c1.1,1.6,2.2,3.4,3.3,5.3V180.8L1059.3,180.8z M1059.3,238.2v3.7h-19.7v-3.7H1059.3z
		 M1039.6,102.8v3.6c-2.9,0-5.8,1.2-6.1,3.6l-6.2,50.4h12.3v69.9h-30.7c0.7,2.9,1.8,5.5,3.4,7.8h27.3v3.7h-29.1
		c-15.1-18.1,0-58.8,12.6-77.7h0l6.8-54.5C1030.4,105.1,1035,102.8,1039.6,102.8z"/>
	<path class="st2" d="M1219,537.9c9.5,0,17.2,9.4,17.2,20.9s-9.7,20.9-17.2,20.9v-3.7c7.4,0,13.4-7.7,13.4-17.2
		c0-9.5-6-17.2-13.4-17.2V537.9z M1205.5,653.3l-4.5,19v-29.7c0.6-0.1,1.1-0.4,1.5-0.8c1.1-1.1,1.1-2.7,0.3-3.9l-1.8,1.8v-1.1
		l1.2-1.2c-0.4-0.3-0.8-0.5-1.2-0.5v-4.1c0.3,0,0.5-0.1,0.8-0.1v-73.9c0-11.5,7.7-20.9,17.2-20.9v3.7c-7.4,0-13.4,7.7-13.4,17.2
		c0,9.5,6,17.2,13.4,17.2v3.7c-7.5,0-13.4,3.1-13.4,8.9v44.1v10V653.3z M1201,672.3l-0.4,1.9l-3-12.8v-21c0.1,0.4,0.3,0.8,0.5,1.1
		l2.9-2.9v1.1l-2.4,2.4c0.7,0.5,1.6,0.7,2.4,0.5V672.3L1201,672.3z M1197.6,634.2v4.8c0.1-0.5,0.4-1,0.8-1.4c0.7-0.7,1.7-1,2.7-0.8
		v-4.1C1199.8,632.9,1198.6,633.4,1197.6,634.2L1197.6,634.2z M1197.6,631.8v-82.5c1.2,2.8,1.9,6.1,1.9,9.5v72
		C1198.8,631.1,1198.1,631.4,1197.6,631.8z M1197.6,661.3l-1.9-8v-15.5c0-1.4,0.8-2.7,1.9-3.6v4.8c-0.1,0.4-0.1,0.9,0,1.3V661.3
		L1197.6,661.3z M1197.6,549.3v82.5c-1.1,0.7-1.8,1.6-1.9,2.2v-45.5c0-5.7-6-8.9-13.4-8.9l0,0v-3.7l0,0c7.4,0,13.4-7.7,13.4-17.2
		c0-9.5-6-17.2-13.4-17.2l0,0v-3.7l0,0C1189,537.9,1194.7,542.5,1197.6,549.3z M1182.3,537.9v3.7c-7.4,0-13.4,7.7-13.4,17.2
		c0,9.5,6,17.2,13.4,17.2v3.7c-7.5,0-17.2-9.4-17.2-20.9S1172.8,537.9,1182.3,537.9z"/>
	<path class="st2" d="M1248.1,387.9c4.6,7.6,7.2,16.5,7.2,26.1c0,9.5-2.6,18.5-7.2,26.1v-10.8c1.7-4.8,2.6-10,2.6-15.4
		c0-5.4-0.9-10.6-2.6-15.4V387.9L1248.1,387.9z M1248.1,365v-26.2c5.8-4.6,14.6-7.5,24.5-7.5c17.5,0,31.7,9.3,31.7,20.7
		c0,11.4-14.2,20.7-31.7,20.7C1262.7,372.5,1253.9,369.6,1248.1,365z M1220.8,365.8c11.5,3.9,21.2,11.8,27.4,22.1v10.5
		c-4.5-12.9-14.6-23.1-27.4-27.9h-16.3v-4.6H1220.8L1220.8,365.8L1220.8,365.8L1220.8,365.8z M1248.1,440
		c-3.7,6.1-8.6,11.4-14.5,15.5h-2.5h-6.7h-20.1v-5h28.2c2.5-1.9,4.8-4.1,6.9-6.5h-35.1v-5h38.9c2-3,3.6-6.3,4.8-9.7V440L1248.1,440z
		 M1248.1,338.7V365c-4.5-3.6-7.2-8.1-7.2-13.1C1240.9,346.9,1243.6,342.3,1248.1,338.7L1248.1,338.7z M1204.5,360.5v-21.8h7.2
		c5,0,9.2,4.1,9.2,9.2v12.7H1204.5L1204.5,360.5z M1237.6,354.8c-1.8-0.6-4.1-0.9-6.5-0.9c-2.6,0-4.9,0.4-6.8,1.1v-6.1
		c1.9,0.7,4.3,1.1,6.8,1.1c2.4,0,4.6-0.3,6.5-0.9c-0.2,1-0.3,1.9-0.3,2.9C1237.3,352.8,1237.4,353.8,1237.6,354.8z M1204.5,455.6
		h-20.1h-9h-0.1v-0.1c-13-9.2-21.5-24.4-21.5-41.5c0-22.4,14.5-41.4,34.6-48.1l0,0h16.2v4.6h-16.3c-17.5,6.6-30,23.5-30,43.4
		c0,9.3,2.7,17.9,7.4,25.2h38.9v5h-35.1c2.1,2.4,4.4,4.6,6.9,6.5h28.2V455.6L1204.5,455.6z M1204.5,338.7v21.8h-16.2v-12.7
		c0-5,4.1-9.2,9.2-9.2H1204.5z"/>
	<path class="st2" d="M1582.9,577.1c3.4,0,6.2,2.8,6.2,6.2V668c0,3.4-2.8,6.2-6.2,6.2v-3.5h0c1,0,1.8-0.8,1.8-1.8v-86.4
		c0-1-0.8-1.8-1.8-1.8h0V577.1z M1561.8,577.1h21.1h0v3.5c-1,0-1.8,0.8-1.8,1.8v86.4c0,1,0.8,1.8,1.8,1.8v3.5h0h-21.1
		c-3.4,0-6.2-2.8-6.2-6.2v-84.7C1555.7,579.9,1558.4,577.1,1561.8,577.1L1561.8,577.1z M1544.8,674.1v-3.4l0,0c1,0,1.8-0.8,1.8-1.8
		v-29.4c0-1-0.8-1.8-1.8-1.8v-3.4c3.2,0.2,5.7,2.9,5.7,6.2V668C1550.5,671.2,1547.9,673.9,1544.8,674.1L1544.8,674.1z M1544.8,631.7
		v-48.8c0.6,0.8,1,1.7,1,2.8v46.2C1545.4,631.8,1545.1,631.8,1544.8,631.7L1544.8,631.7z M1544.8,637.7 M1544.8,582.9v48.8
		c-0.2,0-0.3,0-0.5,0h-3.2v-3.3h1.6v-42.1c0-0.9-0.7-1.6-1.6-1.6v-3.5h0.2C1542.7,581.2,1544,581.9,1544.8,582.9L1544.8,582.9z
		 M1544.8,634.3v3.4l0,0c-1,0-1.8,0.8-1.8,1.8v29.4c0,1,0.8,1.8,1.8,1.8v3.4c-0.2,0-0.3,0-0.5,0h-3.2v-39.9h3.2
		C1544.4,634.3,1544.6,634.3,1544.8,634.3L1544.8,634.3z M1544.8,670.8 M1541.1,581.2v3.5l0,0c-0.9,0-1.6,0.7-1.6,1.6v42.1h1.6v3.3
		h-3.1v-50.5H1541.1L1541.1,581.2z M1541.1,634.3v39.9h-3.1v-39.9H1541.1L1541.1,634.3z M1538,579.2v-9c0.1,0,0.2,0.1,0.4,0.1h0
		c0.7,0,1.4-0.6,1.4-1.4v-16.3c0-2.1-0.7-6.3-1.7-7.9v-4c1.5,3.3,2.9,8.9,2.9,13.5v24.9H1538z M1538,540.7v4c0,0,0-0.1-0.1-0.1
		c-0.3-0.4-0.6-0.6-0.9-0.8c0,1.3-0.2,2.6-0.8,3.7c0.7,1.5,0.8,3.9,0.8,5.1v16.2c0,0.6,0.4,1.1,1,1.3v9h-11.4v-24.9
		c0-10.3,4.7-17.2,9.1-16.3C1536.5,538.1,1537.3,539.1,1538,540.7L1538,540.7z M1538,581.2v50.5h-14.8c-0.5,0-1,0.1-1.5,0.2v-46.2
		c0-2.4,2-4.4,4.4-4.4H1538L1538,581.2z M1538,634.3v39.9h-14.8c-3.4,0-6.2-2.8-6.2-6.2v-27.5c0-3.4,2.8-6.2,6.2-6.2H1538z"/>
	<g>
		<path class="st2" d="M1070.9,615.2v48.3c0,7.3-4.2,10.6-9.3,10.6H1030v-3.3l31.3,0c3.6-0.6,5.7-4.2,5.7-7.7v-44.5h-37v-3.3H1070.9
			z M1030,674.2h-31.5c-5.1,0-9.3-3.3-9.3-10.6v-48.3h40.9v3.3h-37V663c0,4.1,1.9,7.8,5.6,7.8l31.4,0V674.2z"/>
		<path class="st2" d="M1021.8,612.5c7.5-20.2,28.6-4.5,32.6-25c7.8,5.4,10.8,13.8,10,25H1021.8z"/>
		<path class="st2" d="M1064.6,620.9v42.2c0,2.9-2.3,5.2-5.2,5.2h-59.9c-3,0-4.1-2.1-4.1-5.1v-25.7c7.3-13.3,17.1-7.7,22.9-16.6
			H1064.6z"/>
		<path class="st2" d="M1103,671.8l-5.9,2.4l-6.3-15.7v-17.2L1103,671.8L1103,671.8z M1090.7,624.1l18.2,45.3
			c35.1-15.2,15.9-76.5-18.2-77.8V624.1z M1090.7,658.4l-24.1-60.1l6-2.4l18.2,45.3V658.4L1090.7,658.4z M1090.7,591.5
			c-3.9-0.2-8,0.5-12.3,2l12.3,30.5V591.5z"/>
	</g>
</g>
</svg>
