<?xml version="1.0" encoding="utf-8"?>
<!-- Generator: Adobe Illustrator 19.0.0, SVG Export Plug-In . SVG Version: 6.00 Build 0)  -->
<svg version="1.1" xmlns="http://www.w3.org/2000/svg" xmlns:xlink="http://www.w3.org/1999/xlink" x="0px" y="0px"
	 viewBox="0 0 799.9 799.9" style="enable-background:new 0 0 799.9 799.9;" xml:space="preserve">
<style type="text/css">
	.st0{fill-rule:evenodd;clip-rule:evenodd;fill:url(#SVGID_1_);}
	.st1{fill-rule:evenodd;clip-rule:evenodd;fill:url(#SVGID_2_);}
	.st2{fill-rule:evenodd;clip-rule:evenodd;fill:#8F3763;}
	.st3{fill-rule:evenodd;clip-rule:evenodd;fill:#FFFFFF;}
</style>
<g id="Background">
	<radialGradient id="SVGID_1_" cx="-1383.1589" cy="399.9599" r="565.6234" gradientUnits="userSpaceOnUse">
		<stop  offset="0" style="stop-color:#FFFFFF"/>
		<stop  offset="1" style="stop-color:#FDF6EE"/>
	</radialGradient>
	<rect x="-1783.1" y="0" class="st0" width="799.9" height="799.9"/>
	<radialGradient id="SVGID_2_" cx="417.7826" cy="1323.5876" r="565.6234" gradientUnits="userSpaceOnUse">
		<stop  offset="0" style="stop-color:#FFFFFF"/>
		<stop  offset="1" style="stop-color:#FDF6EE"/>
	</radialGradient>
	<rect x="17.8" y="923.6" class="st1" width="799.9" height="799.9"/>
</g>
<g id="Objects">
	<path class="st2" d="M-1307.2,105.6h2.6c3,0,5.4,2.4,5.4,5.4v62.2c16.3,16.8,37.2,44.8,8.8,68.8h-16.7V238h15.3
		c7.2-6.4,12.2-14.4,11.5-24.5c-0.5-7.9-4.3-15.5-8.6-21.9c-3-4.5-6.6-8.8-10.3-12.8v0h-8v-6.7h2.1v-59.2c0-0.4-0.3-0.7-0.7-0.7
		h-1.4V105.6z M-1315.6,105.6h8.4v6.7h-1.4c-0.4,0-0.7,0.3-0.7,0.7v59.2h2.1v6.7h-4.9V215c0.8,3.6,8.7,17.8-3.5,17.8l0,0V105.6
		L-1315.6,105.6z M-1307.2,241.9h-8.4V238h8.4V241.9z M-1326.5,105.6h11v127.2c-12.2,0-4.4-14.2-3.5-17.8v-36.2h-12.8v0
		c-3.7,4-7.2,8.3-10.3,12.8c-11.2,16.6-12.8,32.4,2.9,46.4h23.7v3.9h-25.1c-28.4-24-7.5-52,8.8-68.8V111
		C-1331.9,108-1329.5,105.6-1326.5,105.6z"/>
	<g>
		<path class="st2" d="M-1508.2,241.9h34.3c2.3,0,4.2-1.9,4.2-4.2v-67.6c0-20.3-42.6-20.2-42.6,0v67.6
			C-1512.4,240-1510.5,241.9-1508.2,241.9z"/>
		<rect x="-1502.6" y="151.2" class="st2" width="23.1" height="20.2"/>
		<path class="st2" d="M-1491.1,133.9h11.5c1.2,0,2.1,1,2.1,2.1v11.5c0,1.2-1,2.1-2.1,2.1h-11.5v3.5h11.5c3.1,0,5.6-2.5,5.6-5.6V136
			c0-3.1-2.5-5.6-5.6-5.6h-11.5V133.9z M-1502.6,133.9h11.5v-3.5h-11.5c-3.1,0-5.6,2.5-5.6,5.6v11.5c0,3.1,2.5,5.6,5.6,5.6h11.5
			v-3.5h-11.5c-1.2,0-2.1-1-2.1-2.1V136C-1504.8,134.9-1503.8,133.9-1502.6,133.9z"/>
		<rect x="-1494.9" y="110.9" class="st2" width="7.7" height="21.5"/>
		<path class="st2" d="M-1498.3,106.7h32.3c5.7,0,9.1,3.7,10.3,7.1h-5.9c-0.5-0.9-2.1-1.5-3.7-1.4l-33.1,1.1c-1.2,0-2.1-1-2.1-2.1
			v-2.6C-1500.4,107.6-1499.4,106.7-1498.3,106.7z"/>
		<path class="st2" d="M-1479.6,132.4v-4c0-1.3-1.1-2.4-2.4-2.4h-18.3c-1.3,0-2.4,1.1-2.4,2.4v4H-1479.6z"/>
		<path class="st3" d="M-1479.2,237.5h3.9c0.3,0,0.5-0.2,0.5-0.5v-65.7c0-6.3-5.6-12.9-7.4-11.8c-1.2,0.8,2.6,2.7,2.6,11.8V237
			C-1479.7,237.3-1479.5,237.5-1479.2,237.5z"/>
	</g>
	<g>
		<path class="st2" d="M-1144.6,238.8c3.6-2.7,5.9-7.1,5.9-11.9v-76.8c0-2.4-1.9-4.3-4.3-4.3h-1.7v4.6h2.1c0.5,0,0.8,0.4,0.8,0.8
			v79.9c0,1.6-1.3,2.9-2.9,2.9h-0.1V238.8z M-1154.4,241.9h0.7c3.4,0,6.5-1.1,9-3.1v-4.7h-0.1c-1.6,0-2.9-1.3-2.9-2.9v-79.9
			c0-0.5,0.4-0.8,0.8-0.8h2.1v-4.6h-20.5c-2.4,0-4.3,1.9-4.3,4.3v76.8C-1169.4,235.1-1162.6,241.9-1154.4,241.9z"/>
		<path class="st2" d="M-1153,101.3c3.2,0.1,6.2,0.7,9.1,1.6l-4,21.9l5.9-21.2c2.6,1.1,5,2.4,7.1,4.1l-8,19.6l9.6-18.3
			c1.9,1.6,3.6,3.5,5,5.5l-12.1,28.4h-27.2l-12.1-28.4c1.5-2.1,3.3-4.1,5.4-5.8l9.6,17.9l-8-19.1c2.2-1.6,4.6-3,7.2-4l6.3,21.5
			l-4.3-22.2c2.7-0.9,5.6-1.4,8.6-1.5l1,22.4L-1153,101.3z"/>
		<path class="st2" d="M-1107.5,240c2.2-1.7,3.6-4.3,3.6-7.2v-59.2c0-1.4-1.2-2.6-2.6-2.6h-1v2.8h1.3c0.3,0,0.5,0.2,0.5,0.5v61.1
			c0,1-0.8,1.8-1.8,1.8h0V240z M-1113.4,241.9h0.4c2.1,0,4-0.7,5.5-1.9v-2.9h0c-1,0-1.8-0.8-1.8-1.8v-61.1c0-0.3,0.2-0.5,0.5-0.5
			h1.3V171h-12.4c-1.4,0-2.6,1.2-2.6,2.6v59.2C-1122.5,237.8-1118.4,241.9-1113.4,241.9z"/>
		<path class="st2" d="M-1112.5,131.3c1.9,0.1,3.8,0.4,5.5,1l-2.4,13.3l3.6-12.9c1.6,0.6,3,1.5,4.3,2.5l-4.8,11.9l5.8-11.1
			c1.1,1,2.2,2.1,3,3.3l-7.6,28.7h-16.5l-7.1-28.7c0.9-1.3,2-2.5,3.3-3.5l5.8,10.9l-4.9-11.6c1.3-1,2.8-1.8,4.4-2.4l3.8,13.1
			l-2.6-13.5c1.7-0.5,3.4-0.8,5.2-0.9l0.6,13.6L-1112.5,131.3z"/>
	</g>
	<g>
		<path class="st2" d="M-1320.5,456.8c2.1-0.1,3.7-1.8,3.7-3.9v-45.4c0-2.1-1.6-3.8-3.7-3.9v2.3h0.7c0.3,0,0.5,0.2,0.5,0.5v48
			c0,0.3-0.2,0.5-0.5,0.5h-0.7V456.8z M-1331.8,456.8h11c0.1,0,0.1,0,0.2,0v-2h-0.7c-0.3,0-0.5-0.2-0.5-0.5v-48
			c0-0.3,0.2-0.5,0.5-0.5h0.7v-2.3c-0.1,0-0.1,0-0.2,0h-11c-2.1,0-3.9,1.7-3.9,3.9V453C-1335.6,455.1-1333.9,456.8-1331.8,456.8z"/>
		<path class="st2" d="M-1328.3,401.4h1.9v-48.2h-1.9V401.4L-1328.3,401.4z M-1324.8,401.4h1v-48.2h-1V401.4z"/>
		<g>
			<path class="st2" d="M-1323.4,317.6h-5.5C-1327.3,315.8-1324.9,315.9-1323.4,317.6z"/>
			<path class="st2" d="M-1329.8,319.3h7.4c0.2,0.4,0.3,0.9,0.4,1.3h-8.3C-1330.1,320.1-1329.9,319.7-1329.8,319.3z"/>
			<path class="st2" d="M-1330.4,322.2h8.8c0,0.4,0,0.7,0,1.1v0.3h-8.9v-0.3C-1330.5,322.9-1330.5,322.6-1330.4,322.2z"/>
			<rect x="-1330.5" y="325.2" class="st2" width="8.9" height="1.3"/>
			<rect x="-1330.5" y="328.1" class="st2" width="8.9" height="1.3"/>
			<rect x="-1330.5" y="331.1" class="st2" width="8.9" height="1.3"/>
			<rect x="-1330.5" y="334.1" class="st2" width="8.9" height="1.3"/>
			<rect x="-1330.5" y="337" class="st2" width="8.9" height="1.3"/>
			<rect x="-1330.5" y="340" class="st2" width="8.9" height="1.3"/>
			<rect x="-1330.5" y="343" class="st2" width="8.9" height="1.3"/>
			<rect x="-1330.5" y="345.9" class="st2" width="8.9" height="1.3"/>
			<rect x="-1330.5" y="348.9" class="st2" width="8.9" height="1.3"/>
			<rect x="-1330.5" y="351.8" class="st2" width="8.9" height="1.3"/>
		</g>
		<rect x="-1327.1" y="317" class="st2" width="2.1" height="36.2"/>
		<path class="st2" d="M-1299.2,456.8c2.1-0.1,3.7-1.8,3.7-3.9v-86.5c0-2.1-1.6-3.8-3.7-3.9v2.3h0.7c0.3,0,0.5,0.2,0.5,0.5v89.1
			c0,0.3-0.2,0.5-0.5,0.5h-0.7V456.8z M-1310.4,456.8h11c0.1,0,0.1,0,0.2,0v-2h-0.7c-0.3,0-0.5-0.2-0.5-0.5v-89.1
			c0-0.3,0.2-0.5,0.5-0.5h0.7v-2.3c-0.1,0-0.1,0-0.2,0h-11c-2.1,0-3.9,1.8-3.9,3.9V453C-1314.3,455.1-1312.5,456.8-1310.4,456.8z"/>
		<rect x="-1311.2" y="358.9" class="st2" width="12.6" height="2.2"/>
		<rect x="-1312.2" y="355.9" class="st2" width="14.8" height="2.2"/>
		<rect x="-1312.2" y="352.8" class="st2" width="14.8" height="2.2"/>
		<rect x="-1311.2" y="349.8" class="st2" width="12.6" height="2.2"/>
	</g>
	<g>
		<g>
			<path class="st2" d="M-1315.6,554.1c10.1,0,20.2,4.3,27.2,12.6c12.4,14.6,10.9,36.4-3.1,49.2l-24.1-28.6V554.1L-1315.6,554.1z
				 M-1315.6,625.3c7.7,0,15.4-2.5,21.8-7.5l-21.8-25.8V625.3z M-1337.4,561.5c6.5-5,14.2-7.5,21.8-7.5v33.3L-1337.4,561.5
				L-1337.4,561.5z M-1315.6,592l-24.1-28.6c-14,12.9-15.5,34.6-3.1,49.2c7,8.3,17.1,12.6,27.2,12.6V592z"/>
			<path class="st2" d="M-1315.6,535c15.5,0,31,6.6,41.8,19.4c17.2,20.3,17,49.5,0.9,69.5l-2.3-2.7l-16.1,13.6l2.3,2.7
				c-8.3,4.6-17.5,6.9-26.6,6.9v-15.6c8.9,0,17.9-3,25.3-9.3c16.5-14,18.6-38.7,4.6-55.2c-7.7-9.2-18.8-13.9-29.9-13.9V535z
				 M-1350.9,547.9c10.3-8.7,22.8-12.9,35.3-12.9v15.6c-8.9,0-17.9,3-25.3,9.3c-16.5,14-18.6,38.7-4.6,55.2
				c7.7,9.2,18.8,13.9,29.9,13.9v15.6c-15.5,0-31-6.6-41.8-19.4C-1376.9,602-1374,567.4-1350.9,547.9z"/>
		</g>
		<path class="st2" d="M-1273.1,674.2v-2.6c5.8,0,10.4-4.7,10.4-10.4c0-5.8-4.7-10.4-10.4-10.4v-2.6c0.1,0,0.3,0,0.4,0
			c18,0,18,26.1,0,26.1C-1272.8,674.2-1272.9,674.2-1273.1,674.2z M-1358.1,650.7c5.8,0,10.4,4.7,10.4,10.4
			c0,5.8-4.7,10.4-10.4,10.4v2.6c10.3-0.2,15.2-7.5,18.8-7.5h47.3c3.7,0,8.5,7.3,18.8,7.5v-2.6h0c-5.8,0-10.4-4.7-10.4-10.4
			c0-5.8,4.7-10.4,10.4-10.4h0v-2.6c-10.3,0.2-15.2,7.5-18.8,7.5h-47.3c-3.7,0-8.5-7.3-18.8-7.5V650.7z M-1358.1,650.7
			L-1358.1,650.7v-2.6c-0.1,0-0.3,0-0.4,0c-18,0-18,26.1,0,26.1c0.1,0,0.3,0,0.4,0v-2.6l0,0c-5.8,0-10.4-4.7-10.4-10.4
			C-1368.5,655.3-1363.8,650.7-1358.1,650.7z"/>
	</g>
	<path class="st2" d="M-1655.2,328.7h29.1c3.8,0,7,3.1,7,7v3.8c-0.7,4.9-5.1,5.2-8.7,1c-1.9-2.2-4.8-3.7-7.9-3.7
		c-5.8,0-10.5,4.7-10.5,10.5c0,5.8,6,10.5,10.5,10.5c4.5,0,6.2-1.5,8.1-3.8c3.6-4.2,8.5-2.4,8.5,1.1v14.3c-0.7,4.9-5.1,5.2-8.7,1
		c-1.9-2.2-4.8-3.7-7.9-3.7c-5.8,0-10.5,4.7-10.5,10.5c0,5.8,6,10.5,10.5,10.5c4.5,0,6.2-1.5,8.1-3.8c3.6-4.2,8.5-2.4,8.5,1.1v14.3
		c-0.7,4.9-5.1,5.2-8.7,1c-1.9-2.2-4.8-3.7-7.9-3.7c-5.8,0-10.5,4.7-10.5,10.5c0,5.8,6,10.5,10.5,10.5c4.5,0,6.2-1.5,8.1-3.8
		c3.6-4.2,8.5-2.4,8.5,1.1v14.3c-0.7,4.9-5.1,5.2-8.7,1c-1.9-2.2-4.8-3.7-7.9-3.7c-5.8,0-10.5,4.7-10.5,10.5c0,5.8,6,10.5,10.5,10.5
		c4.5,0,6.2-1.5,8.1-3.8c3.6-4.2,8.5-2.4,8.5,1.1v3.8c0,3.8-3.1,7-7,7h-29.1c-3.8,0-7-3.1-7-7v-113
		C-1662.2,331.9-1659,328.7-1655.2,328.7L-1655.2,328.7z M-1676.1,455.3v-3c0.5,0,1-0.5,1-1.5v-49.4c0-0.2-0.2-0.3-0.3-0.3h-0.7v-62
		l1.4,59.7h0.1c1,0,1.7,0.6,1.7,2.3v49.7C-1672.9,452.7-1674.2,454.6-1676.1,455.3z M-1676.1,339v62h-0.7c-0.2,0-0.3,0.2-0.3,0.3
		v49.4c0,1,0.5,1.5,1,1.5v3c-0.6,0.2-1.2,0.4-1.9,0.4h-1.2v-57.1h2.9l-1.4-62.7h-1.5v-6.9l0.2-0.4l2.9,7.2L-1676.1,339z
		 M-1679.2,329.1v6.9h-1.5l-1.4,62.7h2.9v57.1h-0.9c-2.8,0-5.1-2.3-5.1-5.1v-49.7c0-1.7,0.5-2.3,1.4-2.3h0.1l1.4-62.7L-1679.2,329.1
		z"/>
	<path class="st2" d="M-1111.7,397c3.3-23.1,5.5-47.3,4.6-56.9h-4.6v1.8h2.3v14.3h-2.3V397z M-1118.5,434.7
		c2.3-9.6,4.7-23.4,6.7-37.7v-40.7h-2.3v-14.3h2.3v-1.8h-6.7v1.8h2.3v14.3h-2.3V375c0.4-3.5,0.8-7.1,1.1-10.5
		c0.1-1.3,1.2-2.3,2.3-2.1c1.2,0.1,2,1.3,1.9,2.7c-1,10.6-2.3,21.7-4.1,32.7c-0.4,2.5-0.8,4.9-1.2,7.3V434.7z M-1125.2,456.8h0.7
		c3.1,0,5.6-2.9,5.6-6.4v-14.2c0.1-0.5,0.3-1,0.4-1.6V405c-1.5,8.5-3.3,16.7-5.4,24.2c-0.2,0.8-0.7,1.3-1.4,1.6v5.4h3.9v13.8
		c0,2.3-1.7,4.3-3.7,4.3h-0.1V456.8L-1125.2,456.8z M-1118.5,340.1v1.8h-2.3v14.3h2.3V375c-0.8,7.3-1.8,14.6-2.9,21.9
		c-1.1,6.9-2.3,13.7-3.8,20.2v-60.8h2.3v-14.3h-2.3v-1.8H-1118.5z M-1131.9,456.8h6.7v-2.5h-6.7V456.8L-1131.9,456.8z
		 M-1125.2,340.1h-6.7v1.8h2.3v14.3h-2.3v80h6.7v-5.4c-0.4,0.2-0.9,0.2-1.3,0c-1.1-0.4-1.7-1.8-1.4-3c1-3.5,1.8-7,2.7-10.7v-60.8
		h-2.3v-14.3h2.3V340.1z M-1138.7,456.8h6.7v-2.5h-6.7V456.8L-1138.7,456.8z M-1131.9,340.1h-6.7v1.8h2.3v14.3h-2.3v80h6.7v-80h-2.3
		v-14.3h2.3V340.1z M-1145.4,456.8h6.7v-2.5h-6.7V456.8L-1145.4,456.8z M-1138.7,340.1h-6.7v1.8h2.3v14.3h-2.3v80h6.7v-80h-2.3
		v-14.3h2.3V340.1z M-1152.1,456.8h6.7v-2.5h-6.7V456.8L-1152.1,456.8z M-1145.4,340.1h-6.7v1.8h2.3v14.3h-2.3v80h6.7v-80h-2.3
		v-14.3h2.3V340.1z M-1152.8,456.8h0.7v-2.5h-0.1c-2,0-3.7-1.9-3.7-4.3v-13.8h3.9v-80h-2.3v-14.3h2.3v-1.8h-6.7v1.8h2.3v14.3h-2.3
		v78.4c0.1,0.5,0.3,1.1,0.4,1.6v14.2C-1158.5,454-1155.9,456.8-1152.8,456.8z M-1158.8,340.1h-6.7v1.8h2.3v14.3h-2.3V397
		c2,14.2,4.4,28,6.7,37.7v-78.4h-2.3v-14.3h2.3V340.1z M-1165.6,340.1h-4.6c-0.9,9.6,1.3,33.8,4.6,56.9v-40.7h-2.3v-14.3h2.3V340.1z
		"/>
	<path class="st2" d="M-1627.3,226.6c7-8.4,1-31.4-5.1-45.8v-11.4c11.7,20.5,23.1,55.9,9.3,72.4h-9.3v-3.7h7.5
		c1.6-2.3,2.7-5,3.4-7.8h-10.9v-40.1c3.4,12.6,5,27.5,0.7,34.5C-1634,228.7-1629.2,228.9-1627.3,226.6z M-1632.4,180.8
		c-1.4-3.3-2.8-6.2-4.1-8.2c-2.3-3.9-6.4-5.3-2.7,0.5c2.3,3.7,4.8,10.1,6.8,17.2v40.1h-19.7v-69.9h12.3l-6.2-50.4
		c-0.3-2.4-3.2-3.6-6.1-3.6v-3.6c4.6,0,9.2,2.3,9.7,6.8l6.8,54.5h0c1.1,1.6,2.2,3.4,3.3,5.3V180.8L-1632.4,180.8z M-1632.4,238.2
		v3.7h-19.7v-3.7H-1632.4z M-1652.2,102.8v3.6c-2.9,0-5.8,1.2-6.1,3.6l-6.2,50.4h12.3v69.9h-30.7c0.7,2.9,1.8,5.5,3.4,7.8h27.3v3.7
		h-29.1c-15.1-18.1,0-58.8,12.6-77.7h0l6.8-54.5C-1661.3,105.1-1656.7,102.8-1652.2,102.8z"/>
	<path class="st2" d="M-1472.8,537.9c9.5,0,17.2,9.4,17.2,20.9s-9.7,20.9-17.2,20.9v-3.7c7.4,0,13.4-7.7,13.4-17.2
		c0-9.5-6-17.2-13.4-17.2V537.9z M-1486.2,653.3l-4.5,19v-29.7c0.6-0.1,1.1-0.4,1.5-0.8c1.1-1.1,1.1-2.7,0.3-3.9l-1.8,1.8v-1.1
		l1.2-1.2c-0.4-0.3-0.8-0.5-1.2-0.5v-4.1c0.3,0,0.5-0.1,0.8-0.1v-73.9c0-11.5,7.7-20.9,17.2-20.9v3.7c-7.4,0-13.4,7.7-13.4,17.2
		c0,9.5,6,17.2,13.4,17.2v3.7c-7.5,0-13.4,3.1-13.4,8.9v44.1v10V653.3z M-1490.7,672.3l-0.4,1.9l-3-12.8v-21
		c0.1,0.4,0.3,0.8,0.5,1.1l2.9-2.9v1.1l-2.4,2.4c0.7,0.5,1.6,0.7,2.4,0.5V672.3L-1490.7,672.3z M-1494.1,634.2v4.8
		c0.1-0.5,0.4-1,0.8-1.4c0.7-0.7,1.7-1,2.7-0.8v-4.1C-1491.9,632.9-1493.2,633.4-1494.1,634.2L-1494.1,634.2z M-1494.1,631.8v-82.5
		c1.2,2.8,1.9,6.1,1.9,9.5v72C-1492.9,631.1-1493.6,631.4-1494.1,631.8z M-1494.1,661.3l-1.9-8v-15.5c0-1.4,0.8-2.7,1.9-3.6v4.8
		c-0.1,0.4-0.1,0.9,0,1.3V661.3L-1494.1,661.3z M-1494.1,549.3v82.5c-1.1,0.7-1.8,1.6-1.9,2.2v-45.5c0-5.7-6-8.9-13.4-8.9l0,0v-3.7
		l0,0c7.4,0,13.4-7.7,13.4-17.2c0-9.5-6-17.2-13.4-17.2l0,0v-3.7l0,0C-1502.8,537.9-1497,542.5-1494.1,549.3z M-1509.4,537.9v3.7
		c-7.4,0-13.4,7.7-13.4,17.2c0,9.5,6,17.2,13.4,17.2v3.7c-7.5,0-17.2-9.4-17.2-20.9S-1518.9,537.9-1509.4,537.9z"/>
	<path class="st2" d="M-1443.6,387.9c4.6,7.6,7.2,16.5,7.2,26.1c0,9.5-2.6,18.5-7.2,26.1v-10.8c1.7-4.8,2.6-10,2.6-15.4
		c0-5.4-0.9-10.6-2.6-15.4V387.9L-1443.6,387.9z M-1443.6,365v-26.2c5.8-4.6,14.6-7.5,24.5-7.5c17.5,0,31.7,9.3,31.7,20.7
		c0,11.4-14.2,20.7-31.7,20.7C-1429,372.5-1437.8,369.6-1443.6,365z M-1470.9,365.8c11.5,3.9,21.2,11.8,27.4,22.1v10.5
		c-4.5-12.9-14.6-23.1-27.4-27.9h-16.3v-4.6H-1470.9L-1470.9,365.8L-1470.9,365.8L-1470.9,365.8z M-1443.6,440
		c-3.7,6.1-8.6,11.4-14.5,15.5h-2.5h-6.7h-20.1v-5h28.2c2.5-1.9,4.8-4.1,6.9-6.5h-35.1v-5h38.9c2-3,3.6-6.3,4.8-9.7V440L-1443.6,440
		z M-1443.6,338.7V365c-4.5-3.6-7.2-8.1-7.2-13.1C-1450.8,346.9-1448.1,342.3-1443.6,338.7L-1443.6,338.7z M-1487.3,360.5v-21.8h7.2
		c5,0,9.2,4.1,9.2,9.2v12.7H-1487.3L-1487.3,360.5z M-1454.1,354.8c-1.8-0.6-4.1-0.9-6.5-0.9c-2.6,0-4.9,0.4-6.8,1.1v-6.1
		c1.9,0.7,4.3,1.1,6.8,1.1c2.4,0,4.6-0.3,6.5-0.9c-0.2,1-0.3,1.9-0.3,2.9C-1454.4,352.8-1454.3,353.8-1454.1,354.8z M-1487.3,455.6
		h-20.1h-9h-0.1v-0.1c-13-9.2-21.5-24.4-21.5-41.5c0-22.4,14.5-41.4,34.6-48.1l0,0h16.2v4.6h-16.3c-17.5,6.6-30,23.5-30,43.4
		c0,9.3,2.7,17.9,7.4,25.2h38.9v5h-35.1c2.1,2.4,4.4,4.6,6.9,6.5h28.2V455.6L-1487.3,455.6z M-1487.3,338.7v21.8h-16.2v-12.7
		c0-5,4.1-9.2,9.2-9.2H-1487.3z"/>
	<path class="st2" d="M-1108.8,577.1c3.4,0,6.2,2.8,6.2,6.2V668c0,3.4-2.8,6.2-6.2,6.2v-3.5h0c1,0,1.8-0.8,1.8-1.8v-86.4
		c0-1-0.8-1.8-1.8-1.8h0V577.1z M-1129.9,577.1h21.1h0v3.5c-1,0-1.8,0.8-1.8,1.8v86.4c0,1,0.8,1.8,1.8,1.8v3.5h0h-21.1
		c-3.4,0-6.2-2.8-6.2-6.2v-84.7C-1136,579.9-1133.3,577.1-1129.9,577.1L-1129.9,577.1z M-1146.9,674.1v-3.4l0,0c1,0,1.8-0.8,1.8-1.8
		v-29.4c0-1-0.8-1.8-1.8-1.8v-3.4c3.2,0.2,5.7,2.9,5.7,6.2V668C-1141.3,671.2-1143.8,673.9-1146.9,674.1L-1146.9,674.1z
		 M-1146.9,631.7v-48.8c0.6,0.8,1,1.7,1,2.8v46.2C-1146.3,631.8-1146.6,631.8-1146.9,631.7L-1146.9,631.7z M-1146.9,637.7
		 M-1146.9,582.9v48.8c-0.2,0-0.3,0-0.5,0h-3.2v-3.3h1.6v-42.1c0-0.9-0.7-1.6-1.6-1.6v-3.5h0.2
		C-1149,581.2-1147.8,581.9-1146.9,582.9L-1146.9,582.9z M-1146.9,634.3v3.4l0,0c-1,0-1.8,0.8-1.8,1.8v29.4c0,1,0.8,1.8,1.8,1.8v3.4
		c-0.2,0-0.3,0-0.5,0h-3.2v-39.9h3.2C-1147.3,634.3-1147.1,634.3-1146.9,634.3L-1146.9,634.3z M-1146.9,670.8 M-1150.6,581.2v3.5
		l0,0c-0.9,0-1.6,0.7-1.6,1.6v42.1h1.6v3.3h-3.1v-50.5H-1150.6L-1150.6,581.2z M-1150.6,634.3v39.9h-3.1v-39.9H-1150.6
		L-1150.6,634.3z M-1153.7,579.2v-9c0.1,0,0.2,0.1,0.4,0.1h0c0.7,0,1.4-0.6,1.4-1.4v-16.3c0-2.1-0.7-6.3-1.7-7.9v-4
		c1.5,3.3,2.9,8.9,2.9,13.5v24.9H-1153.7z M-1153.7,540.7v4c0,0,0-0.1-0.1-0.1c-0.3-0.4-0.6-0.6-0.9-0.8c0,1.3-0.2,2.6-0.8,3.7
		c0.7,1.5,0.8,3.9,0.8,5.1v16.2c0,0.6,0.4,1.1,1,1.3v9h-11.4v-24.9c0-10.3,4.7-17.2,9.1-16.3
		C-1155.2,538.1-1154.5,539.1-1153.7,540.7L-1153.7,540.7z M-1153.7,581.2v50.5h-14.8c-0.5,0-1,0.1-1.5,0.2v-46.2
		c0-2.4,2-4.4,4.4-4.4H-1153.7L-1153.7,581.2z M-1153.7,634.3v39.9h-14.8c-3.4,0-6.2-2.8-6.2-6.2v-27.5c0-3.4,2.8-6.2,6.2-6.2
		H-1153.7z"/>
	<g>
		<path class="st2" d="M-1620.8,615.2v48.3c0,7.3-4.2,10.6-9.3,10.6h-31.5v-3.3l31.3,0c3.6-0.6,5.7-4.2,5.7-7.7v-44.5h-37v-3.3
			H-1620.8z M-1661.7,674.2h-31.5c-5.1,0-9.3-3.3-9.3-10.6v-48.3h40.9v3.3h-37V663c0,4.1,1.9,7.8,5.6,7.8l31.4,0V674.2z"/>
		<path class="st2" d="M-1669.9,612.5c7.5-20.2,28.6-4.5,32.6-25c7.8,5.4,10.8,13.8,10,25H-1669.9z"/>
		<path class="st2" d="M-1627.1,620.9v42.2c0,2.9-2.3,5.2-5.2,5.2h-59.9c-3,0-4.1-2.1-4.1-5.1v-25.7c7.3-13.3,17.1-7.7,22.9-16.6
			H-1627.1z"/>
		<path class="st2" d="M-1588.7,671.8l-5.9,2.4l-6.3-15.7v-17.2L-1588.7,671.8L-1588.7,671.8z M-1601,624.1l18.2,45.3
			c35.1-15.2,15.9-76.5-18.2-77.8V624.1z M-1601,658.4l-24.1-60.1l6-2.4l18.2,45.3V658.4L-1601,658.4z M-1601,591.5
			c-3.9-0.2-8,0.5-12.3,2l12.3,30.5V591.5z"/>
	</g>
	<g>
		<path class="st2" d="M-423.3,315.9v259.6c0,39.3-22.6,57.1-50.1,57.1h-169.5v-17.9l168.2-0.1c19.3-3.4,30.6-22.4,30.6-41.6V333.7
			h-198.9v-17.8H-423.3z M-642.9,632.7h-169.5c-27.6,0-50.1-17.9-50.1-57.1V315.9h219.6v17.8h-198.9V573c0,21.8,10.4,41.9,30.1,41.9
			l168.8-0.1V632.7z"/>
		<path class="st2" d="M-687.2,301.5c40.3-108.7,153.5-24.1,175.2-134.3c42,28.8,58,74.1,54,134.3H-687.2z"/>
		<path class="st2" d="M-457.1,346.7v226.7c0,15.7-12.6,27.9-28,27.9h-321.8c-15.9,0-21.8-11.1-21.8-27.4V435.7
			c39-71.3,91.7-41.3,123.3-89H-457.1z"/>
		<path class="st2" d="M-251,619.9l-32,12.8l-33.9-84.5v-92.5L-251,619.9L-251,619.9z M-316.9,363.8l97.6,243.2
			c188.5-81.8,85.6-411-97.6-418.3V363.8z M-316.9,548.2l-129.7-323.1l32-12.8l97.8,243.5V548.2L-316.9,548.2z M-316.9,188.6
			c-21-0.9-43.1,2.5-65.9,11l65.9,164.2V188.6z"/>
	</g>
	<path class="st2" d="M-502.9,1068.5h117c15.4,0,28.1,12.6,28.1,28.1v15.3c-2.7,19.7-20.5,20.9-34.8,4c-7.7-9-19.2-14.7-31.9-14.7
		c-23.3,0-42.1,18.8-42.1,42.1c0,23.3,24,42.1,42.1,42.1c18.2,0,24.8-6,32.5-15.3c14.3-16.8,34.2-9.5,34.2,4.6v57.3
		c-2.7,19.7-20.5,20.9-34.8,4c-7.7-9-19.2-14.7-31.9-14.7c-23.3,0-42.1,18.9-42.1,42.1c0,23.3,24,42.1,42.1,42.1
		c18.2,0,24.8-6,32.5-15.3c14.3-16.8,34.2-9.5,34.2,4.6v57.3c-2.7,19.7-20.5,20.9-34.8,4c-7.7-9-19.2-14.7-31.9-14.7
		c-23.3,0-42.1,18.9-42.1,42.1c0,23.3,24,42.1,42.1,42.1c18.2,0,24.8-6,32.5-15.3c14.3-16.8,34.2-9.5,34.2,4.6v57.3
		c-2.7,19.8-20.5,20.9-34.8,4c-7.7-9-19.2-14.7-31.9-14.7c-23.3,0-42.1,18.8-42.1,42.1c0,23.3,24,42.1,42.1,42.1
		c18.2,0,24.8-6,32.5-15.3c14.3-16.8,34.2-9.5,34.2,4.6v15.4c0,15.4-12.6,28.1-28.1,28.1h-117c-15.4,0-28.1-12.6-28.1-28.1v-454
		C-531,1081.1-518.3,1068.5-502.9,1068.5L-502.9,1068.5z M-587,1577.2V1565c2.1,0.1,4.2-1.9,4.2-6.2v-198.5c0-0.8-0.6-1.4-1.4-1.4
		h-2.8v-249.1l5.5,239.6h0.5c4.2,0,6.9,2.3,6.9,9.1v199.6C-574.1,1566.7-579.5,1574.1-587,1577.2z M-587,1109.8v249.1h-2.8
		c-0.8,0-1.4,0.6-1.4,1.4v198.5c0,4,2.1,6.1,4.2,6.2v12.2c-2.4,1-5,1.5-7.7,1.5h-4.9v-229.3h11.6l-5.7-251.8h-5.9V1070l0.7-1.5
		l11.6,29.1L-587,1109.8z M-599.6,1070v27.6h-5.9l-5.7,251.8h11.6v229.3h-3.7c-11.3,0-20.5-9.2-20.5-20.5v-199.6
		c0-6.8,2.1-9.1,5.8-9.1h0.5l5.7-251.9L-599.6,1070z"/>
	<path class="st2" d="M527,277.1c14.4,0,26.3,11.8,26.3,26.3v360.4c0,14.4-11.8,26.3-26.3,26.3v-14.9h0c4.2,0,7.7-3.5,7.7-7.7V299.7
		c0-4.2-3.5-7.7-7.7-7.7h0V277.1z M437.3,277.1H527h0V292c-4.2,0-7.7,3.5-7.7,7.7v367.8c0,4.2,3.5,7.7,7.7,7.7V690h0h-89.7
		c-14.5,0-26.3-11.8-26.3-26.3V303.4C411,288.9,422.9,277.1,437.3,277.1L437.3,277.1z M364.6,690v-14.4l0,0c4.2,0,7.7-3.5,7.7-7.7
		V542.5c0-4.2-3.5-7.7-7.7-7.7v-14.4c13.5,1.1,24.2,12.4,24.2,26.2v117.1C388.9,677.5,378.2,688.9,364.6,690L364.6,690z
		 M364.6,509.5V301.5c2.6,3.2,4.1,7.3,4.1,11.7v196.8C367.4,509.8,366.1,509.6,364.6,509.5L364.6,509.5z M364.6,534.8 M364.6,301.5
		v207.9c-0.7,0-1.4-0.1-2.1-0.1H349v-14.2h6.8v-179c0-3.7-3-6.8-6.8-6.8v-15h1C355.9,294.4,361.2,297.2,364.6,301.5L364.6,301.5z
		 M364.6,520.4v14.4l0,0c-4.2,0-7.7,3.5-7.7,7.7v125.3c0,4.2,3.5,7.7,7.7,7.7V690c-0.7,0.1-1.4,0.1-2.1,0.1H349V520.3h13.6
		C363.3,520.3,364,520.4,364.6,520.4L364.6,520.4z M364.6,675.5 M349,294.4v15l0,0c-3.7,0-6.8,3-6.8,6.8v179h6.8v14.2h-13.1V294.4
		H349L349,294.4z M349,520.3V690h-13.1V520.3H349L349,520.3z M335.8,285.7v-38.2c0.5,0.2,1.1,0.2,1.6,0.2h0c3.2,0,5.8-2.6,5.8-5.8
		v-69.3c0-8.8-3.2-26.9-7.4-33.5v-17c6.6,14.1,12.2,38.1,12.2,57.5v106.1H335.8z M335.8,122.1v17c-0.1-0.2-0.2-0.3-0.3-0.5
		c-1.2-1.6-2.4-2.7-3.6-3.2c0.2,5.4-0.8,11-3.4,15.8c3,6.3,3.2,16.4,3.2,21.8v69c0,2.6,1.8,4.8,4.1,5.5v38.2h-48.3V179.5
		c0-43.7,20.1-73.1,38.7-69.3C329.3,110.8,332.7,115.3,335.8,122.1L335.8,122.1z M335.8,294.4v214.9h-62.9c-2.1,0-4.2,0.3-6.2,0.7
		V313.3c0-10.4,8.5-18.9,18.9-18.9H335.8L335.8,294.4z M335.8,520.3V690h-62.9c-14.5,0-26.3-11.8-26.3-26.3V546.6
		c0-14.5,11.8-26.3,26.3-26.3H335.8z"/>
	<path class="st2" d="M493.8,1029.2h2.6c3,0,5.4,2.4,5.4,5.4v62.2c16.3,16.8,37.2,44.8,8.8,68.8h-16.7v-3.9h15.3
		c7.2-6.4,12.2-14.4,11.5-24.5c-0.5-7.9-4.3-15.5-8.6-21.9c-3-4.5-6.6-8.8-10.3-12.8v0h-8v-6.7h2.1v-59.2c0-0.4-0.3-0.7-0.7-0.7
		h-1.4V1029.2z M485.4,1029.2h8.4v6.7h-1.4c-0.4,0-0.7,0.3-0.7,0.7v59.2h2.1v6.7h-4.9v36.2c0.8,3.6,8.7,17.8-3.5,17.8l0,0V1029.2
		L485.4,1029.2z M493.8,1165.5h-8.4v-3.9h8.4V1165.5z M474.4,1029.2h11v127.2c-12.2,0-4.4-14.2-3.5-17.8v-36.2H469v0
		c-3.7,4-7.2,8.3-10.3,12.8c-11.2,16.6-12.8,32.4,2.9,46.4h23.7v3.9h-25.1c-28.4-24-7.5-52,8.8-68.8v-62.1
		C469,1031.6,471.5,1029.2,474.4,1029.2z"/>
	<g>
		<path class="st2" d="M292.7,1165.5H327c2.3,0,4.2-1.9,4.2-4.2v-67.6c0-20.3-42.6-20.2-42.6,0v67.6
			C288.6,1163.6,290.4,1165.5,292.7,1165.5z"/>
		<rect x="298.3" y="1074.9" class="st2" width="23.1" height="20.2"/>
		<path class="st2" d="M309.8,1057.5h11.5c1.2,0,2.1,1,2.1,2.1v11.5c0,1.2-1,2.1-2.1,2.1h-11.5v3.5h11.5c3.1,0,5.6-2.5,5.6-5.6
			v-11.5c0-3.1-2.5-5.6-5.6-5.6h-11.5V1057.5z M298.3,1057.5h11.5v-3.5h-11.5c-3.1,0-5.6,2.5-5.6,5.6v11.5c0,3.1,2.5,5.6,5.6,5.6
			h11.5v-3.5h-11.5c-1.2,0-2.1-1-2.1-2.1v-11.5C296.2,1058.5,297.1,1057.5,298.3,1057.5z"/>
		<rect x="306" y="1034.5" class="st2" width="7.7" height="21.5"/>
		<path class="st2" d="M302.7,1030.3H335c5.7,0,9.1,3.7,10.3,7.1h-5.9c-0.5-0.9-2.1-1.5-3.7-1.4l-33.1,1.1c-1.2,0-2.1-1-2.1-2.1
			v-2.6C300.5,1031.3,301.5,1030.3,302.7,1030.3z"/>
		<path class="st2" d="M321.4,1056v-4c0-1.3-1.1-2.4-2.4-2.4h-18.3c-1.3,0-2.4,1.1-2.4,2.4v4H321.4z"/>
		<path class="st3" d="M321.7,1161.1h3.9c0.3,0,0.5-0.2,0.5-0.5V1095c0-6.3-5.6-12.9-7.4-11.8c-1.2,0.8,2.6,2.7,2.6,11.8v65.7
			C321.3,1160.9,321.5,1161.1,321.7,1161.1z"/>
	</g>
	<g>
		<path class="st2" d="M656.3,1162.4c3.6-2.7,5.9-7.1,5.9-11.9v-76.8c0-2.4-1.9-4.3-4.3-4.3h-1.7v4.6h2.1c0.5,0,0.8,0.4,0.8,0.8
			v79.9c0,1.6-1.3,2.9-2.9,2.9h-0.1V1162.4z M646.6,1165.5h0.7c3.4,0,6.5-1.1,9-3.1v-4.7h-0.1c-1.6,0-2.9-1.3-2.9-2.9v-79.9
			c0-0.5,0.4-0.8,0.8-0.8h2.1v-4.6h-20.5c-2.4,0-4.3,1.9-4.3,4.3v76.8C631.6,1158.8,638.3,1165.5,646.6,1165.5z"/>
		<path class="st2" d="M647.9,1025c3.2,0.1,6.2,0.7,9.1,1.6l-4,21.9l5.9-21.2c2.6,1.1,5,2.4,7.1,4.1l-8,19.6l9.6-18.3
			c1.9,1.6,3.6,3.5,5,5.5l-12.1,28.4h-27.2l-12.1-28.4c1.5-2.1,3.3-4.1,5.4-5.8l9.6,17.9l-8-19.1c2.2-1.6,4.6-3,7.2-4l6.3,21.5
			l-4.3-22.2c2.7-0.9,5.6-1.4,8.6-1.5l1,22.4L647.9,1025z"/>
		<path class="st2" d="M693.5,1163.6c2.2-1.7,3.6-4.3,3.6-7.2v-59.2c0-1.4-1.2-2.6-2.6-2.6h-1v2.8h1.3c0.3,0,0.5,0.2,0.5,0.5v61.1
			c0,1-0.8,1.8-1.8,1.8h0V1163.6z M687.6,1165.5h0.4c2.1,0,4-0.7,5.5-1.9v-2.9h0c-1,0-1.8-0.8-1.8-1.8V1098c0-0.3,0.2-0.5,0.5-0.5
			h1.3v-2.8h-12.4c-1.4,0-2.6,1.2-2.6,2.6v59.2C678.5,1161.4,682.6,1165.5,687.6,1165.5z"/>
		<path class="st2" d="M688.4,1054.9c1.9,0.1,3.8,0.4,5.5,1l-2.4,13.3l3.6-12.9c1.6,0.6,3,1.5,4.3,2.5l-4.8,11.9l5.8-11.1
			c1.1,1,2.2,2.1,3,3.3l-7.6,28.7h-16.5l-7.1-28.7c0.9-1.3,2-2.5,3.3-3.5l5.8,10.9l-4.9-11.6c1.3-1,2.8-1.8,4.4-2.4l3.8,13.1
			l-2.6-13.5c1.7-0.5,3.4-0.8,5.2-0.9l0.6,13.6L688.4,1054.9z"/>
	</g>
	<g>
		<path class="st2" d="M480.4,1380.5c2.1-0.1,3.7-1.8,3.7-3.9v-45.4c0-2.1-1.6-3.8-3.7-3.9v2.3h0.7c0.3,0,0.5,0.2,0.5,0.5v48
			c0,0.3-0.2,0.5-0.5,0.5h-0.7V1380.5z M469.2,1380.5h11c0.1,0,0.1,0,0.2,0v-2h-0.7c-0.3,0-0.5-0.2-0.5-0.5v-48
			c0-0.3,0.2-0.5,0.5-0.5h0.7v-2.3c-0.1,0-0.1,0-0.2,0h-11c-2.1,0-3.9,1.7-3.9,3.9v45.4C465.3,1378.7,467.1,1380.5,469.2,1380.5z"/>
		<path class="st2" d="M472.7,1325h1.9v-48.2h-1.9V1325L472.7,1325z M476.2,1325h1v-48.2h-1V1325z"/>
		<g>
			<path class="st2" d="M477.6,1241.3h-5.5C473.7,1239.5,476,1239.5,477.6,1241.3z"/>
			<path class="st2" d="M471.2,1242.9h7.4c0.2,0.4,0.3,0.9,0.4,1.3h-8.3C470.9,1243.7,471,1243.3,471.2,1242.9z"/>
			<path class="st2" d="M470.5,1245.9h8.8c0,0.4,0,0.7,0,1.1v0.3h-8.9v-0.3C470.5,1246.6,470.5,1246.2,470.5,1245.9z"/>
			<rect x="470.5" y="1248.8" class="st2" width="8.9" height="1.3"/>
			<rect x="470.5" y="1251.8" class="st2" width="8.9" height="1.3"/>
			<rect x="470.5" y="1254.7" class="st2" width="8.9" height="1.3"/>
			<rect x="470.5" y="1257.7" class="st2" width="8.9" height="1.3"/>
			<rect x="470.5" y="1260.7" class="st2" width="8.9" height="1.3"/>
			<rect x="470.5" y="1263.6" class="st2" width="8.9" height="1.3"/>
			<rect x="470.5" y="1266.6" class="st2" width="8.9" height="1.3"/>
			<rect x="470.5" y="1269.5" class="st2" width="8.9" height="1.3"/>
			<rect x="470.5" y="1272.5" class="st2" width="8.9" height="1.3"/>
			<rect x="470.5" y="1275.5" class="st2" width="8.9" height="1.3"/>
		</g>
		<rect x="473.9" y="1240.6" class="st2" width="2.1" height="36.2"/>
		<path class="st2" d="M501.8,1380.5c2.1-0.1,3.7-1.8,3.7-3.9v-86.5c0-2.1-1.6-3.8-3.7-3.9v2.3h0.7c0.3,0,0.5,0.2,0.5,0.5v89.1
			c0,0.3-0.2,0.5-0.5,0.5h-0.7V1380.5z M490.6,1380.5h11c0.1,0,0.1,0,0.2,0v-2h-0.7c-0.3,0-0.5-0.2-0.5-0.5v-89.1
			c0-0.3,0.2-0.5,0.5-0.5h0.7v-2.3c-0.1,0-0.1,0-0.2,0h-11c-2.1,0-3.9,1.8-3.9,3.9v86.5C486.7,1378.7,488.4,1380.5,490.6,1380.5z"/>
		<rect x="489.8" y="1282.5" class="st2" width="12.6" height="2.2"/>
		<rect x="488.7" y="1279.5" class="st2" width="14.8" height="2.2"/>
		<rect x="488.7" y="1276.4" class="st2" width="14.8" height="2.2"/>
		<rect x="489.8" y="1273.4" class="st2" width="12.6" height="2.2"/>
	</g>
	<g>
		<g>
			<path class="st2" d="M485.4,1477.7c10.1,0,20.2,4.3,27.2,12.6c12.4,14.6,10.9,36.4-3.1,49.2l-24.1-28.6V1477.7L485.4,1477.7z
				 M485.4,1549c7.7,0,15.4-2.5,21.8-7.5l-21.8-25.8V1549z M463.5,1485.2c6.5-5,14.2-7.5,21.8-7.5v33.3L463.5,1485.2L463.5,1485.2z
				 M485.4,1515.7l-24.1-28.6c-14,12.9-15.5,34.6-3.1,49.2c7,8.3,17.1,12.6,27.2,12.6V1515.7z"/>
			<path class="st2" d="M485.4,1458.6c15.5,0,31,6.6,41.8,19.4c17.2,20.3,17,49.5,0.9,69.5l-2.3-2.7l-16.1,13.6l2.3,2.7
				c-8.3,4.6-17.5,6.9-26.6,6.9v-15.6c8.9,0,17.9-3,25.3-9.3c16.5-14,18.6-38.7,4.6-55.2c-7.7-9.2-18.8-13.9-29.9-13.9V1458.6z
				 M450,1471.5c10.3-8.7,22.8-12.9,35.3-12.9v15.6c-8.9,0-17.9,3-25.3,9.3c-16.5,14-18.6,38.7-4.6,55.2
				c7.7,9.2,18.8,13.9,29.9,13.9v15.6c-15.5,0-31-6.6-41.8-19.4C424.1,1525.6,427,1491.1,450,1471.5z"/>
		</g>
		<path class="st2" d="M527.9,1597.8v-2.6c5.8,0,10.4-4.7,10.4-10.4c0-5.8-4.7-10.4-10.4-10.4v-2.6c0.1,0,0.3,0,0.4,0
			c18,0,18,26.1,0,26.1C528.2,1597.8,528,1597.8,527.9,1597.8z M442.9,1574.3c5.8,0,10.4,4.7,10.4,10.4c0,5.8-4.7,10.4-10.4,10.4
			v2.6c10.3-0.2,15.2-7.5,18.8-7.5H509c3.7,0,8.5,7.3,18.8,7.5v-2.6h0c-5.8,0-10.4-4.7-10.4-10.4c0-5.8,4.7-10.4,10.4-10.4h0v-2.6
			c-10.3,0.2-15.2,7.5-18.8,7.5h-47.3c-3.7,0-8.5-7.3-18.8-7.5V1574.3z M442.9,1574.3L442.9,1574.3v-2.6c-0.1,0-0.3,0-0.4,0
			c-18,0-18,26.1,0,26.1c0.1,0,0.3,0,0.4,0v-2.6l0,0c-5.8,0-10.4-4.7-10.4-10.4C432.5,1579,437.1,1574.3,442.9,1574.3z"/>
	</g>
	<path class="st2" d="M145.8,1252.3h29.1c3.8,0,7,3.1,7,7v3.8c-0.7,4.9-5.1,5.2-8.7,1c-1.9-2.2-4.8-3.7-7.9-3.7
		c-5.8,0-10.5,4.7-10.5,10.5c0,5.8,6,10.5,10.5,10.5c4.5,0,6.2-1.5,8.1-3.8c3.6-4.2,8.5-2.4,8.5,1.1v14.3c-0.7,4.9-5.1,5.2-8.7,1
		c-1.9-2.2-4.8-3.7-7.9-3.7c-5.8,0-10.5,4.7-10.5,10.5c0,5.8,6,10.5,10.5,10.5c4.5,0,6.2-1.5,8.1-3.8c3.6-4.2,8.5-2.4,8.5,1.1v14.3
		c-0.7,4.9-5.1,5.2-8.7,1c-1.9-2.2-4.8-3.7-7.9-3.7c-5.8,0-10.5,4.7-10.5,10.5c0,5.8,6,10.5,10.5,10.5c4.5,0,6.2-1.5,8.1-3.8
		c3.6-4.2,8.5-2.4,8.5,1.1v14.3c-0.7,4.9-5.1,5.2-8.7,1c-1.9-2.2-4.8-3.7-7.9-3.7c-5.8,0-10.5,4.7-10.5,10.5s6,10.5,10.5,10.5
		c4.5,0,6.2-1.5,8.1-3.8c3.6-4.2,8.5-2.4,8.5,1.1v3.8c0,3.8-3.1,7-7,7h-29.1c-3.8,0-7-3.1-7-7v-113
		C138.8,1255.5,141.9,1252.3,145.8,1252.3L145.8,1252.3z M124.8,1379v-3c0.5,0,1-0.5,1-1.5V1325c0-0.2-0.2-0.3-0.3-0.3h-0.7v-62
		l1.4,59.7h0.1c1,0,1.7,0.6,1.7,2.3v49.7C128,1376.4,126.7,1378.2,124.8,1379z M124.8,1262.6v62h-0.7c-0.2,0-0.3,0.2-0.3,0.3v49.4
		c0,1,0.5,1.5,1,1.5v3c-0.6,0.2-1.2,0.4-1.9,0.4h-1.2v-57.1h2.9l-1.4-62.7h-1.5v-6.9l0.2-0.4l2.9,7.2L124.8,1262.6z M121.7,1252.7
		v6.9h-1.5l-1.4,62.7h2.9v57.1h-0.9c-2.8,0-5.1-2.3-5.1-5.1v-49.7c0-1.7,0.5-2.3,1.4-2.3h0.1l1.4-62.7L121.7,1252.7z"/>
	<path class="st2" d="M689.2,1320.6c3.3-23.1,5.5-47.3,4.6-56.9h-4.6v1.8h2.3v14.3h-2.3V1320.6z M682.5,1358.3
		c2.3-9.6,4.7-23.4,6.7-37.7v-40.7h-2.3v-14.3h2.3v-1.8h-6.7v1.8h2.3v14.3h-2.3v18.7c0.4-3.5,0.8-7.1,1.1-10.5
		c0.1-1.3,1.2-2.3,2.3-2.1c1.2,0.1,2,1.3,1.9,2.7c-1,10.6-2.3,21.7-4.1,32.7c-0.4,2.5-0.8,4.9-1.2,7.3V1358.3z M675.7,1380.5h0.7
		c3.1,0,5.6-2.9,5.6-6.4v-14.2c0.1-0.5,0.3-1,0.4-1.6v-29.6c-1.5,8.5-3.3,16.7-5.4,24.2c-0.2,0.8-0.7,1.3-1.4,1.6v5.4h3.9v13.8
		c0,2.3-1.7,4.3-3.7,4.3h-0.1V1380.5L675.7,1380.5z M682.5,1263.7v1.8h-2.3v14.3h2.3v18.7c-0.8,7.3-1.8,14.6-2.9,21.9
		c-1.1,6.9-2.3,13.7-3.8,20.2v-60.8h2.3v-14.3h-2.3v-1.8H682.5z M669,1380.5h6.7v-2.5H669V1380.5L669,1380.5z M675.7,1263.7H669v1.8
		h2.3v14.3H669v80h6.7v-5.4c-0.4,0.2-0.9,0.2-1.3,0c-1.1-0.4-1.7-1.8-1.4-3c1-3.5,1.8-7,2.7-10.7v-60.8h-2.3v-14.3h2.3V1263.7z
		 M662.3,1380.5h6.7v-2.5h-6.7V1380.5L662.3,1380.5z M669,1263.7h-6.7v1.8h2.3v14.3h-2.3v80h6.7v-80h-2.3v-14.3h2.3V1263.7z
		 M655.6,1380.5h6.7v-2.5h-6.7V1380.5L655.6,1380.5z M662.3,1263.7h-6.7v1.8h2.3v14.3h-2.3v80h6.7v-80H660v-14.3h2.3V1263.7z
		 M648.8,1380.5h6.7v-2.5h-6.7V1380.5L648.8,1380.5z M655.6,1263.7h-6.7v1.8h2.3v14.3h-2.3v80h6.7v-80h-2.3v-14.3h2.3V1263.7z
		 M648.1,1380.5h0.7v-2.5h-0.1c-2,0-3.7-1.9-3.7-4.3v-13.8h3.9v-80h-2.3v-14.3h2.3v-1.8h-6.7v1.8h2.3v14.3h-2.3v78.4
		c0.1,0.5,0.3,1.1,0.4,1.6v14.2C642.5,1377.6,645,1380.5,648.1,1380.5z M642.1,1263.7h-6.7v1.8h2.3v14.3h-2.3v40.7
		c2,14.2,4.4,28,6.7,37.7v-78.4h-2.3v-14.3h2.3V1263.7z M635.4,1263.7h-4.6c-0.9,9.6,1.3,33.8,4.6,56.9v-40.7h-2.3v-14.3h2.3V1263.7
		z"/>
	<path class="st2" d="M173.6,1150.2c7-8.4,1-31.4-5.1-45.8v-11.4c11.7,20.5,23.1,55.9,9.3,72.4h-9.3v-3.7h7.5c1.6-2.3,2.7-5,3.4-7.8
		h-10.9V1114c3.4,12.6,5,27.5,0.7,34.5C166.9,1152.3,171.7,1152.5,173.6,1150.2z M168.5,1104.5c-1.4-3.3-2.8-6.2-4.1-8.2
		c-2.3-3.9-6.4-5.3-2.7,0.5c2.3,3.7,4.8,10.1,6.8,17.2v40.1h-19.7v-69.9h12.3l-6.2-50.4c-0.3-2.4-3.2-3.6-6.1-3.6v-3.6
		c4.6,0,9.2,2.3,9.7,6.8l6.8,54.5h0c1.1,1.6,2.2,3.4,3.3,5.3V1104.5L168.5,1104.5z M168.5,1161.9v3.7h-19.7v-3.7H168.5z
		 M148.8,1026.4v3.6c-2.9,0-5.8,1.2-6.1,3.6l-6.2,50.4h12.3v69.9h-30.7c0.7,2.9,1.8,5.5,3.4,7.8h27.3v3.7h-29.1
		c-15.1-18.1,0-58.8,12.6-77.7h0l6.8-54.5C139.6,1028.7,144.2,1026.4,148.8,1026.4z"/>
	<path class="st2" d="M328.2,1461.5c9.5,0,17.2,9.4,17.2,20.9s-9.7,20.9-17.2,20.9v-3.7c7.4,0,13.4-7.7,13.4-17.2
		c0-9.5-6-17.2-13.4-17.2V1461.5z M314.8,1577l-4.5,19v-29.7c0.6-0.1,1.1-0.4,1.5-0.8c1.1-1.1,1.1-2.7,0.3-3.9l-1.8,1.8v-1.1
		l1.2-1.2c-0.4-0.3-0.8-0.5-1.2-0.5v-4.1c0.3,0,0.5-0.1,0.8-0.1v-73.9c0-11.5,7.7-20.9,17.2-20.9v3.7c-7.4,0-13.4,7.7-13.4,17.2
		c0,9.5,6,17.2,13.4,17.2v3.7c-7.5,0-13.4,3.1-13.4,8.9v44.1v10V1577z M310.3,1595.9l-0.4,1.9l-3-12.8v-21c0.1,0.4,0.3,0.8,0.5,1.1
		l2.9-2.9v1.1l-2.4,2.4c0.7,0.5,1.6,0.7,2.4,0.5V1595.9L310.3,1595.9z M306.8,1557.9v4.8c0.1-0.5,0.4-1,0.8-1.4
		c0.7-0.7,1.7-1,2.7-0.8v-4.1C309,1556.5,307.8,1557,306.8,1557.9L306.8,1557.9z M306.8,1555.4v-82.5c1.2,2.8,1.9,6.1,1.9,9.5v72
		C308,1554.7,307.4,1555,306.8,1555.4z M306.8,1585l-1.9-8v-15.5c0-1.4,0.8-2.7,1.9-3.6v4.8c-0.1,0.4-0.1,0.9,0,1.3V1585L306.8,1585
		z M306.8,1472.9v82.5c-1.1,0.7-1.8,1.6-1.9,2.2v-45.5c0-5.7-6-8.9-13.4-8.9l0,0v-3.7l0,0c7.4,0,13.4-7.7,13.4-17.2
		c0-9.5-6-17.2-13.4-17.2l0,0v-3.7l0,0C298.2,1461.5,304,1466.1,306.8,1472.9z M291.5,1461.5v3.7c-7.4,0-13.4,7.7-13.4,17.2
		c0,9.5,6,17.2,13.4,17.2v3.7c-7.5,0-17.2-9.4-17.2-20.9S282,1461.5,291.5,1461.5z"/>
	<path class="st2" d="M357.4,1311.5c4.6,7.6,7.2,16.5,7.2,26.1c0,9.5-2.6,18.5-7.2,26.1v-10.8c1.7-4.8,2.6-10,2.6-15.4
		c0-5.4-0.9-10.6-2.6-15.4V1311.5L357.4,1311.5z M357.4,1288.6v-26.2c5.8-4.6,14.6-7.5,24.5-7.5c17.5,0,31.7,9.3,31.7,20.7
		c0,11.4-14.2,20.7-31.7,20.7C372,1296.2,363.2,1293.2,357.4,1288.6z M330,1289.4c11.5,3.9,21.2,11.8,27.4,22.1v10.5
		c-4.5-12.9-14.6-23.1-27.4-27.9h-16.3v-4.6H330L330,1289.4L330,1289.4L330,1289.4z M357.4,1363.7c-3.7,6.1-8.6,11.4-14.5,15.5h-2.5
		h-6.7h-20.1v-5h28.2c2.5-1.9,4.8-4.1,6.9-6.5h-35.1v-5h38.9c2-3,3.6-6.3,4.8-9.7V1363.7L357.4,1363.7z M357.4,1262.4v26.2
		c-4.5-3.6-7.2-8.1-7.2-13.1C350.2,1270.5,352.9,1265.9,357.4,1262.4L357.4,1262.4z M313.7,1284.1v-21.8h7.2c5,0,9.2,4.1,9.2,9.2
		v12.7H313.7L313.7,1284.1z M346.8,1278.4c-1.8-0.6-4.1-0.9-6.5-0.9c-2.6,0-4.9,0.4-6.8,1.1v-6.1c1.9,0.7,4.3,1.1,6.8,1.1
		c2.4,0,4.6-0.3,6.5-0.9c-0.2,1-0.3,1.9-0.3,2.9C346.6,1276.5,346.7,1277.5,346.8,1278.4z M313.7,1379.2h-20.1h-9h-0.1v-0.1
		c-13-9.2-21.5-24.4-21.5-41.5c0-22.4,14.5-41.4,34.6-48.1l0,0h16.2v4.6h-16.3c-17.5,6.6-30,23.5-30,43.4c0,9.3,2.7,17.9,7.4,25.2
		h38.9v5h-35.1c2.1,2.4,4.4,4.6,6.9,6.5h28.2V1379.2L313.7,1379.2z M313.7,1262.3v21.8h-16.2v-12.7c0-5,4.1-9.2,9.2-9.2H313.7z"/>
	<path class="st2" d="M692.1,1500.8c3.4,0,6.2,2.8,6.2,6.2v84.7c0,3.4-2.8,6.2-6.2,6.2v-3.5h0c1,0,1.8-0.8,1.8-1.8v-86.4
		c0-1-0.8-1.8-1.8-1.8h0V1500.8z M671.1,1500.8h21.1h0v3.5c-1,0-1.8,0.8-1.8,1.8v86.4c0,1,0.8,1.8,1.8,1.8v3.5h0h-21.1
		c-3.4,0-6.2-2.8-6.2-6.2v-84.7C664.9,1503.5,667.7,1500.8,671.1,1500.8L671.1,1500.8z M654,1597.8v-3.4l0,0c1,0,1.8-0.8,1.8-1.8
		v-29.4c0-1-0.8-1.8-1.8-1.8v-3.4c3.2,0.2,5.7,2.9,5.7,6.2v27.5C659.7,1594.8,657.2,1597.5,654,1597.8L654,1597.8z M654,1555.4
		v-48.8c0.6,0.8,1,1.7,1,2.8v46.2C654.6,1555.4,654.3,1555.4,654,1555.4L654,1555.4z M654,1561.3 M654,1506.5v48.8
		c-0.2,0-0.3,0-0.5,0h-3.2v-3.3h1.6v-42.1c0-0.9-0.7-1.6-1.6-1.6v-3.5h0.2C651.9,1504.8,653.2,1505.5,654,1506.5L654,1506.5z
		 M654,1557.9v3.4l0,0c-1,0-1.8,0.8-1.8,1.8v29.4c0,1,0.8,1.8,1.8,1.8v3.4c-0.2,0-0.3,0-0.5,0h-3.2v-39.9h3.2
		C653.7,1557.9,653.8,1557.9,654,1557.9L654,1557.9z M654,1594.4 M650.3,1504.8v3.5l0,0c-0.9,0-1.6,0.7-1.6,1.6v42.1h1.6v3.3h-3.1
		v-50.5H650.3L650.3,1504.8z M650.3,1557.9v39.9h-3.1v-39.9H650.3L650.3,1557.9z M647.2,1502.8v-9c0.1,0,0.2,0.1,0.4,0.1h0
		c0.7,0,1.4-0.6,1.4-1.4v-16.3c0-2.1-0.7-6.3-1.7-7.9v-4c1.5,3.3,2.9,8.9,2.9,13.5v24.9H647.2z M647.2,1464.3v4c0,0,0-0.1-0.1-0.1
		c-0.3-0.4-0.6-0.6-0.9-0.8c0,1.3-0.2,2.6-0.8,3.7c0.7,1.5,0.8,3.9,0.8,5.1v16.2c0,0.6,0.4,1.1,1,1.3v9h-11.4v-24.9
		c0-10.3,4.7-17.2,9.1-16.3C645.7,1461.7,646.5,1462.8,647.2,1464.3L647.2,1464.3z M647.2,1504.8v50.5h-14.8c-0.5,0-1,0.1-1.5,0.2
		v-46.2c0-2.4,2-4.4,4.4-4.4H647.2L647.2,1504.8z M647.2,1557.9v39.9h-14.8c-3.4,0-6.2-2.8-6.2-6.2v-27.5c0-3.4,2.8-6.2,6.2-6.2
		H647.2z"/>
	<g>
		<path class="st2" d="M180.1,1538.8v48.3c0,7.3-4.2,10.6-9.3,10.6h-31.5v-3.3l31.3,0c3.6-0.6,5.7-4.2,5.7-7.7v-44.5h-37v-3.3H180.1
			z M139.3,1597.8h-31.5c-5.1,0-9.3-3.3-9.3-10.6v-48.3h40.9v3.3h-37v44.5c0,4.1,1.9,7.8,5.6,7.8l31.4,0V1597.8z"/>
		<path class="st2" d="M131,1536.2c7.5-20.2,28.6-4.5,32.6-25c7.8,5.4,10.8,13.8,10,25H131z"/>
		<path class="st2" d="M173.8,1544.6v42.2c0,2.9-2.3,5.2-5.2,5.2h-59.9c-3,0-4.1-2.1-4.1-5.1v-25.7c7.3-13.3,17.1-7.7,22.9-16.6
			H173.8z"/>
		<path class="st2" d="M212.2,1595.4l-5.9,2.4l-6.3-15.7v-17.2L212.2,1595.4L212.2,1595.4z M199.9,1547.7l18.2,45.3
			c35.1-15.2,15.9-76.5-18.2-77.8V1547.7z M199.9,1582.1l-24.1-60.1l6-2.4l18.2,45.3V1582.1L199.9,1582.1z M199.9,1515.1
			c-3.9-0.2-8,0.5-12.3,2l12.3,30.5V1515.1z"/>
	</g>
</g>
</svg>
