<?xml version="1.0" encoding="utf-8"?>
<!-- Generator: Adobe Illustrator 19.0.0, SVG Export Plug-In . SVG Version: 6.00 Build 0)  -->
<svg version="1.1" xmlns="http://www.w3.org/2000/svg" xmlns:xlink="http://www.w3.org/1999/xlink" x="0px" y="0px"
	 viewBox="0 0 799.9 799.9" style="enable-background:new 0 0 799.9 799.9;" xml:space="preserve">
<style type="text/css">
	.st0{fill-rule:evenodd;clip-rule:evenodd;fill:url(#SVGID_1_);}
	.st1{fill-rule:evenodd;clip-rule:evenodd;fill:url(#SVGID_2_);}
	.st2{fill-rule:evenodd;clip-rule:evenodd;fill:#8F3763;}
	.st3{fill-rule:evenodd;clip-rule:evenodd;fill:#FFFFFF;}
</style>
<g id="Background">
	<radialGradient id="SVGID_1_" cx="-492.3895" cy="399.9599" r="565.6234" gradientUnits="userSpaceOnUse">
		<stop  offset="0" style="stop-color:#FFFFFF"/>
		<stop  offset="1" style="stop-color:#FDF6EE"/>
	</radialGradient>
	<rect x="-892.3" y="0" class="st0" width="799.9" height="799.9"/>
	<radialGradient id="SVGID_2_" cx="1308.552" cy="1323.5876" r="565.6234" gradientUnits="userSpaceOnUse">
		<stop  offset="0" style="stop-color:#FFFFFF"/>
		<stop  offset="1" style="stop-color:#FDF6EE"/>
	</radialGradient>
	<rect x="908.6" y="923.6" class="st1" width="799.9" height="799.9"/>
</g>
<g id="Objects">
	<path class="st2" d="M-416.4,105.6h2.6c3,0,5.4,2.4,5.4,5.4v62.2c16.3,16.8,37.2,44.8,8.8,68.8h-16.7V238h15.3
		c7.2-6.4,12.2-14.4,11.5-24.5c-0.5-7.9-4.3-15.5-8.6-21.9c-3-4.5-6.6-8.8-10.3-12.8v0h-8v-6.7h2.1v-59.2c0-0.4-0.3-0.7-0.7-0.7
		h-1.4V105.6z M-424.8,105.6h8.4v6.7h-1.4c-0.4,0-0.7,0.3-0.7,0.7v59.2h2.1v6.7h-4.9V215c0.8,3.6,8.7,17.8-3.5,17.8l0,0V105.6
		L-424.8,105.6z M-416.4,241.9h-8.4V238h8.4V241.9z M-435.8,105.6h11v127.2c-12.2,0-4.4-14.2-3.5-17.8v-36.2h-12.8v0
		c-3.7,4-7.2,8.3-10.3,12.8c-11.2,16.6-12.8,32.4,2.9,46.4h23.7v3.9h-25.1c-28.4-24-7.5-52,8.8-68.8V111
		C-441.1,108-438.7,105.6-435.8,105.6z"/>
	<g>
		<path class="st2" d="M-617.5,241.9h34.3c2.3,0,4.2-1.9,4.2-4.2v-67.6c0-20.3-42.6-20.2-42.6,0v67.6
			C-621.6,240-619.7,241.9-617.5,241.9z"/>
		<rect x="-611.9" y="151.2" class="st2" width="23.1" height="20.2"/>
		<path class="st2" d="M-600.3,133.9h11.5c1.2,0,2.1,1,2.1,2.1v11.5c0,1.2-1,2.1-2.1,2.1h-11.5v3.5h11.5c3.1,0,5.6-2.5,5.6-5.6V136
			c0-3.1-2.5-5.6-5.6-5.6h-11.5V133.9z M-611.9,133.9h11.5v-3.5h-11.5c-3.1,0-5.6,2.5-5.6,5.6v11.5c0,3.1,2.5,5.6,5.6,5.6h11.5v-3.5
			h-11.5c-1.2,0-2.1-1-2.1-2.1V136C-614,134.9-613,133.9-611.9,133.9z"/>
		<rect x="-604.2" y="110.9" class="st2" width="7.7" height="21.5"/>
		<path class="st2" d="M-607.5,106.7h32.3c5.7,0,9.1,3.7,10.3,7.1h-5.9c-0.5-0.9-2.1-1.5-3.7-1.4l-33.1,1.1c-1.2,0-2.1-1-2.1-2.1
			v-2.6C-609.6,107.6-608.7,106.7-607.5,106.7z"/>
		<path class="st2" d="M-588.8,132.4v-4c0-1.3-1.1-2.4-2.4-2.4h-18.3c-1.3,0-2.4,1.1-2.4,2.4v4H-588.8z"/>
		<path class="st3" d="M-588.4,237.5h3.9c0.3,0,0.5-0.2,0.5-0.5v-65.7c0-6.3-5.6-12.9-7.4-11.8c-1.2,0.8,2.6,2.7,2.6,11.8V237
			C-588.9,237.3-588.7,237.5-588.4,237.5z"/>
	</g>
	<g>
		<path class="st2" d="M-253.9,238.8c3.6-2.7,5.9-7.1,5.9-11.9v-76.8c0-2.4-1.9-4.3-4.3-4.3h-1.7v4.6h2.1c0.5,0,0.8,0.4,0.8,0.8
			v79.9c0,1.6-1.3,2.9-2.9,2.9h-0.1V238.8z M-263.6,241.9h0.7c3.4,0,6.5-1.1,9-3.1v-4.7h-0.1c-1.6,0-2.9-1.3-2.9-2.9v-79.9
			c0-0.5,0.4-0.8,0.8-0.8h2.1v-4.6h-20.5c-2.4,0-4.3,1.9-4.3,4.3v76.8C-278.6,235.1-271.9,241.9-263.6,241.9z"/>
		<path class="st2" d="M-262.2,101.3c3.2,0.1,6.2,0.7,9.1,1.6l-4,21.9l5.9-21.2c2.6,1.1,5,2.4,7.1,4.1l-8,19.6l9.6-18.3
			c1.9,1.6,3.6,3.5,5,5.5l-12.1,28.4h-27.2l-12.1-28.4c1.5-2.1,3.3-4.1,5.4-5.8l9.6,17.9l-8-19.1c2.2-1.6,4.6-3,7.2-4l6.3,21.5
			l-4.3-22.2c2.7-0.9,5.6-1.4,8.6-1.5l1,22.4L-262.2,101.3z"/>
		<path class="st2" d="M-216.7,240c2.2-1.7,3.6-4.3,3.6-7.2v-59.2c0-1.4-1.2-2.6-2.6-2.6h-1v2.8h1.3c0.3,0,0.5,0.2,0.5,0.5v61.1
			c0,1-0.8,1.8-1.8,1.8h0V240z M-222.6,241.9h0.4c2.1,0,4-0.7,5.5-1.9v-2.9h0c-1,0-1.8-0.8-1.8-1.8v-61.1c0-0.3,0.2-0.5,0.5-0.5h1.3
			V171h-12.4c-1.4,0-2.6,1.2-2.6,2.6v59.2C-231.7,237.8-227.6,241.9-222.6,241.9z"/>
		<path class="st2" d="M-221.8,131.3c1.9,0.1,3.8,0.4,5.5,1l-2.4,13.3l3.6-12.9c1.6,0.6,3,1.5,4.3,2.5l-4.8,11.9l5.8-11.1
			c1.1,1,2.2,2.1,3,3.3l-7.6,28.7h-16.5l-7.1-28.7c0.9-1.3,2-2.5,3.3-3.5l5.8,10.9l-4.9-11.6c1.3-1,2.8-1.8,4.4-2.4l3.8,13.1
			l-2.6-13.5c1.7-0.5,3.4-0.8,5.2-0.9l0.6,13.6L-221.8,131.3z"/>
	</g>
	<g>
		<path class="st2" d="M-429.8,456.8c2.1-0.1,3.7-1.8,3.7-3.9v-45.4c0-2.1-1.6-3.8-3.7-3.9v2.3h0.7c0.3,0,0.5,0.2,0.5,0.5v48
			c0,0.3-0.2,0.5-0.5,0.5h-0.7V456.8z M-441,456.8h11c0.1,0,0.1,0,0.2,0v-2h-0.7c-0.3,0-0.5-0.2-0.5-0.5v-48c0-0.3,0.2-0.5,0.5-0.5
			h0.7v-2.3c-0.1,0-0.1,0-0.2,0h-11c-2.1,0-3.9,1.7-3.9,3.9V453C-444.9,455.1-443.1,456.8-441,456.8z"/>
		<path class="st2" d="M-437.5,401.4h1.9v-48.2h-1.9V401.4L-437.5,401.4z M-434,401.4h1v-48.2h-1V401.4z"/>
		<g>
			<path class="st2" d="M-432.6,317.6h-5.5C-436.5,315.8-434.2,315.9-432.6,317.6z"/>
			<path class="st2" d="M-439,319.3h7.4c0.2,0.4,0.3,0.9,0.4,1.3h-8.3C-439.3,320.1-439.2,319.7-439,319.3z"/>
			<path class="st2" d="M-439.7,322.2h8.8c0,0.4,0,0.7,0,1.1v0.3h-8.9v-0.3C-439.7,322.9-439.7,322.6-439.7,322.2z"/>
			<rect x="-439.7" y="325.2" class="st2" width="8.9" height="1.3"/>
			<rect x="-439.7" y="328.1" class="st2" width="8.9" height="1.3"/>
			<rect x="-439.7" y="331.1" class="st2" width="8.9" height="1.3"/>
			<rect x="-439.7" y="334.1" class="st2" width="8.9" height="1.3"/>
			<rect x="-439.7" y="337" class="st2" width="8.9" height="1.3"/>
			<rect x="-439.7" y="340" class="st2" width="8.9" height="1.3"/>
			<rect x="-439.7" y="343" class="st2" width="8.9" height="1.3"/>
			<rect x="-439.7" y="345.9" class="st2" width="8.9" height="1.3"/>
			<rect x="-439.7" y="348.9" class="st2" width="8.9" height="1.3"/>
			<rect x="-439.7" y="351.8" class="st2" width="8.9" height="1.3"/>
		</g>
		<rect x="-436.3" y="317" class="st2" width="2.1" height="36.2"/>
		<path class="st2" d="M-408.4,456.8c2.1-0.1,3.7-1.8,3.7-3.9v-86.5c0-2.1-1.6-3.8-3.7-3.9v2.3h0.7c0.3,0,0.5,0.2,0.5,0.5v89.1
			c0,0.3-0.2,0.5-0.5,0.5h-0.7V456.8z M-419.6,456.8h11c0.1,0,0.1,0,0.2,0v-2h-0.7c-0.3,0-0.5-0.2-0.5-0.5v-89.1
			c0-0.3,0.2-0.5,0.5-0.5h0.7v-2.3c-0.1,0-0.1,0-0.2,0h-11c-2.1,0-3.9,1.8-3.9,3.9V453C-423.5,455.1-421.7,456.8-419.6,456.8z"/>
		<rect x="-420.4" y="358.9" class="st2" width="12.6" height="2.2"/>
		<rect x="-421.5" y="355.9" class="st2" width="14.8" height="2.2"/>
		<rect x="-421.5" y="352.8" class="st2" width="14.8" height="2.2"/>
		<rect x="-420.4" y="349.8" class="st2" width="12.6" height="2.2"/>
	</g>
	<g>
		<g>
			<path class="st2" d="M-424.8,554.1c10.1,0,20.2,4.3,27.2,12.6c12.4,14.6,10.9,36.4-3.1,49.2l-24.1-28.6V554.1L-424.8,554.1z
				 M-424.8,625.3c7.7,0,15.4-2.5,21.8-7.5l-21.8-25.8V625.3z M-446.6,561.5c6.5-5,14.2-7.5,21.8-7.5v33.3L-446.6,561.5
				L-446.6,561.5z M-424.8,592l-24.1-28.6c-14,12.9-15.5,34.6-3.1,49.2c7,8.3,17.1,12.6,27.2,12.6V592z"/>
			<path class="st2" d="M-424.8,535c15.5,0,31,6.6,41.8,19.4c17.2,20.3,17,49.5,0.9,69.5l-2.3-2.7l-16.1,13.6l2.3,2.7
				c-8.3,4.6-17.5,6.9-26.6,6.9v-15.6c8.9,0,17.9-3,25.3-9.3c16.5-14,18.6-38.7,4.6-55.2c-7.7-9.2-18.8-13.9-29.9-13.9V535z
				 M-460.1,547.9c10.3-8.7,22.8-12.9,35.3-12.9v15.6c-8.9,0-17.9,3-25.3,9.3c-16.5,14-18.6,38.7-4.6,55.2
				c7.7,9.2,18.8,13.9,29.9,13.9v15.6c-15.5,0-31-6.6-41.8-19.4C-486.1,602-483.2,567.4-460.1,547.9z"/>
		</g>
		<path class="st2" d="M-382.3,674.2v-2.6c5.8,0,10.4-4.7,10.4-10.4c0-5.8-4.7-10.4-10.4-10.4v-2.6c0.1,0,0.3,0,0.4,0
			c18,0,18,26.1,0,26.1C-382,674.2-382.1,674.2-382.3,674.2z M-467.3,650.7c5.8,0,10.4,4.7,10.4,10.4c0,5.8-4.7,10.4-10.4,10.4v2.6
			c10.3-0.2,15.2-7.5,18.8-7.5h47.3c3.7,0,8.5,7.3,18.8,7.5v-2.6h0c-5.8,0-10.4-4.7-10.4-10.4c0-5.8,4.7-10.4,10.4-10.4h0v-2.6
			c-10.3,0.2-15.2,7.5-18.8,7.5h-47.3c-3.7,0-8.5-7.3-18.8-7.5V650.7z M-467.3,650.7L-467.3,650.7v-2.6c-0.1,0-0.3,0-0.4,0
			c-18,0-18,26.1,0,26.1c0.1,0,0.3,0,0.4,0v-2.6l0,0c-5.8,0-10.4-4.7-10.4-10.4C-477.7,655.3-473,650.7-467.3,650.7z"/>
	</g>
	<path class="st2" d="M-764.4,328.7h29.1c3.8,0,7,3.1,7,7v3.8c-0.7,4.9-5.1,5.2-8.7,1c-1.9-2.2-4.8-3.7-7.9-3.7
		c-5.8,0-10.5,4.7-10.5,10.5c0,5.8,6,10.5,10.5,10.5c4.5,0,6.2-1.5,8.1-3.8c3.6-4.2,8.5-2.4,8.5,1.1v14.3c-0.7,4.9-5.1,5.2-8.7,1
		c-1.9-2.2-4.8-3.7-7.9-3.7c-5.8,0-10.5,4.7-10.5,10.5c0,5.8,6,10.5,10.5,10.5c4.5,0,6.2-1.5,8.1-3.8c3.6-4.2,8.5-2.4,8.5,1.1v14.3
		c-0.7,4.9-5.1,5.2-8.7,1c-1.9-2.2-4.8-3.7-7.9-3.7c-5.8,0-10.5,4.7-10.5,10.5c0,5.8,6,10.5,10.5,10.5c4.5,0,6.2-1.5,8.1-3.8
		c3.6-4.2,8.5-2.4,8.5,1.1v14.3c-0.7,4.9-5.1,5.2-8.7,1c-1.9-2.2-4.8-3.7-7.9-3.7c-5.8,0-10.5,4.7-10.5,10.5c0,5.8,6,10.5,10.5,10.5
		c4.5,0,6.2-1.5,8.1-3.8c3.6-4.2,8.5-2.4,8.5,1.1v3.8c0,3.8-3.1,7-7,7h-29.1c-3.8,0-7-3.1-7-7v-113
		C-771.4,331.9-768.2,328.7-764.4,328.7L-764.4,328.7z M-785.3,455.3v-3c0.5,0,1-0.5,1-1.5v-49.4c0-0.2-0.2-0.3-0.3-0.3h-0.7v-62
		l1.4,59.7h0.1c1,0,1.7,0.6,1.7,2.3v49.7C-782.1,452.7-783.5,454.6-785.3,455.3z M-785.3,339v62h-0.7c-0.2,0-0.3,0.2-0.3,0.3v49.4
		c0,1,0.5,1.5,1,1.5v3c-0.6,0.2-1.2,0.4-1.9,0.4h-1.2v-57.1h2.9L-787,336h-1.5v-6.9l0.2-0.4l2.9,7.2L-785.3,339z M-788.5,329.1v6.9
		h-1.5l-1.4,62.7h2.9v57.1h-0.9c-2.8,0-5.1-2.3-5.1-5.1v-49.7c0-1.7,0.5-2.3,1.4-2.3h0.1l1.4-62.7L-788.5,329.1z"/>
	<path class="st2" d="M-221,397c3.3-23.1,5.5-47.3,4.6-56.9h-4.6v1.8h2.3v14.3h-2.3V397z M-227.7,434.7c2.3-9.6,4.7-23.4,6.7-37.7
		v-40.7h-2.3v-14.3h2.3v-1.8h-6.7v1.8h2.3v14.3h-2.3V375c0.4-3.5,0.8-7.1,1.1-10.5c0.1-1.3,1.2-2.3,2.3-2.1c1.2,0.1,2,1.3,1.9,2.7
		c-1,10.6-2.3,21.7-4.1,32.7c-0.4,2.5-0.8,4.9-1.2,7.3V434.7z M-234.4,456.8h0.7c3.1,0,5.6-2.9,5.6-6.4v-14.2c0.1-0.5,0.3-1,0.4-1.6
		V405c-1.5,8.5-3.3,16.7-5.4,24.2c-0.2,0.8-0.7,1.3-1.4,1.6v5.4h3.9v13.8c0,2.3-1.7,4.3-3.7,4.3h-0.1V456.8L-234.4,456.8z
		 M-227.7,340.1v1.8h-2.3v14.3h2.3V375c-0.8,7.3-1.8,14.6-2.9,21.9c-1.1,6.9-2.3,13.7-3.8,20.2v-60.8h2.3v-14.3h-2.3v-1.8H-227.7z
		 M-241.2,456.8h6.7v-2.5h-6.7V456.8L-241.2,456.8z M-234.4,340.1h-6.7v1.8h2.3v14.3h-2.3v80h6.7v-5.4c-0.4,0.2-0.9,0.2-1.3,0
		c-1.1-0.4-1.7-1.8-1.4-3c1-3.5,1.8-7,2.7-10.7v-60.8h-2.3v-14.3h2.3V340.1z M-247.9,456.8h6.7v-2.5h-6.7V456.8L-247.9,456.8z
		 M-241.2,340.1h-6.7v1.8h2.3v14.3h-2.3v80h6.7v-80h-2.3v-14.3h2.3V340.1z M-254.6,456.8h6.7v-2.5h-6.7V456.8L-254.6,456.8z
		 M-247.9,340.1h-6.7v1.8h2.3v14.3h-2.3v80h6.7v-80h-2.3v-14.3h2.3V340.1z M-261.3,456.8h6.7v-2.5h-6.7V456.8L-261.3,456.8z
		 M-254.6,340.1h-6.7v1.8h2.3v14.3h-2.3v80h6.7v-80h-2.3v-14.3h2.3V340.1z M-262.1,456.8h0.7v-2.5h-0.1c-2,0-3.7-1.9-3.7-4.3v-13.8
		h3.9v-80h-2.3v-14.3h2.3v-1.8h-6.7v1.8h2.3v14.3h-2.3v78.4c0.1,0.5,0.3,1.1,0.4,1.6v14.2C-267.7,454-265.2,456.8-262.1,456.8z
		 M-268.1,340.1h-6.7v1.8h2.3v14.3h-2.3V397c2,14.2,4.4,28,6.7,37.7v-78.4h-2.3v-14.3h2.3V340.1z M-274.8,340.1h-4.6
		c-0.9,9.6,1.3,33.8,4.6,56.9v-40.7h-2.3v-14.3h2.3V340.1z"/>
	<path class="st2" d="M-736.5,226.6c7-8.4,1-31.4-5.1-45.8v-11.4c11.7,20.5,23.1,55.9,9.3,72.4h-9.3v-3.7h7.5c1.6-2.3,2.7-5,3.4-7.8
		h-10.9v-40.1c3.4,12.6,5,27.5,0.7,34.5C-743.3,228.7-738.5,228.9-736.5,226.6z M-741.6,180.8c-1.4-3.3-2.8-6.2-4.1-8.2
		c-2.3-3.9-6.4-5.3-2.7,0.5c2.3,3.7,4.8,10.1,6.8,17.2v40.1h-19.7v-69.9h12.3l-6.2-50.4c-0.3-2.4-3.2-3.6-6.1-3.6v-3.6
		c4.6,0,9.2,2.3,9.7,6.8l6.8,54.5h0c1.1,1.6,2.2,3.4,3.3,5.3V180.8L-741.6,180.8z M-741.6,238.2v3.7h-19.7v-3.7H-741.6z
		 M-761.4,102.8v3.6c-2.9,0-5.8,1.2-6.1,3.6l-6.2,50.4h12.3v69.9h-30.7c0.7,2.9,1.8,5.5,3.4,7.8h27.3v3.7h-29.1
		c-15.1-18.1,0-58.8,12.6-77.7h0l6.8-54.5C-770.5,105.1-766,102.8-761.4,102.8z"/>
	<path class="st2" d="M-582,537.9c9.5,0,17.2,9.4,17.2,20.9s-9.7,20.9-17.2,20.9v-3.7c7.4,0,13.4-7.7,13.4-17.2
		c0-9.5-6-17.2-13.4-17.2V537.9z M-595.4,653.3l-4.5,19v-29.7c0.6-0.1,1.1-0.4,1.5-0.8c1.1-1.1,1.1-2.7,0.3-3.9l-1.8,1.8v-1.1
		l1.2-1.2c-0.4-0.3-0.8-0.5-1.2-0.5v-4.1c0.3,0,0.5-0.1,0.8-0.1v-73.9c0-11.5,7.7-20.9,17.2-20.9v3.7c-7.4,0-13.4,7.7-13.4,17.2
		c0,9.5,6,17.2,13.4,17.2v3.7c-7.5,0-13.4,3.1-13.4,8.9v44.1v10V653.3z M-599.9,672.3l-0.4,1.9l-3-12.8v-21c0.1,0.4,0.3,0.8,0.5,1.1
		l2.9-2.9v1.1l-2.4,2.4c0.7,0.5,1.6,0.7,2.4,0.5V672.3L-599.9,672.3z M-603.4,634.2v4.8c0.1-0.5,0.4-1,0.8-1.4
		c0.7-0.7,1.7-1,2.7-0.8v-4.1C-601.2,632.9-602.4,633.4-603.4,634.2L-603.4,634.2z M-603.4,631.8v-82.5c1.2,2.8,1.9,6.1,1.9,9.5v72
		C-602.2,631.1-602.8,631.4-603.4,631.8z M-603.4,661.3l-1.9-8v-15.5c0-1.4,0.8-2.7,1.9-3.6v4.8c-0.1,0.4-0.1,0.9,0,1.3V661.3
		L-603.4,661.3z M-603.4,549.3v82.5c-1.1,0.7-1.8,1.6-1.9,2.2v-45.5c0-5.7-6-8.9-13.4-8.9l0,0v-3.7l0,0c7.4,0,13.4-7.7,13.4-17.2
		c0-9.5-6-17.2-13.4-17.2l0,0v-3.7l0,0C-612,537.9-606.2,542.5-603.4,549.3z M-618.7,537.9v3.7c-7.4,0-13.4,7.7-13.4,17.2
		c0,9.5,6,17.2,13.4,17.2v3.7c-7.5,0-17.2-9.4-17.2-20.9S-628.1,537.9-618.7,537.9z"/>
	<path class="st2" d="M-552.8,387.9c4.6,7.6,7.2,16.5,7.2,26.1c0,9.5-2.6,18.5-7.2,26.1v-10.8c1.7-4.8,2.6-10,2.6-15.4
		c0-5.4-0.9-10.6-2.6-15.4V387.9L-552.8,387.9z M-552.8,365v-26.2c5.8-4.6,14.6-7.5,24.5-7.5c17.5,0,31.7,9.3,31.7,20.7
		c0,11.4-14.2,20.7-31.7,20.7C-538.2,372.5-547,369.6-552.8,365z M-580.2,365.8c11.5,3.9,21.2,11.8,27.4,22.1v10.5
		c-4.5-12.9-14.6-23.1-27.4-27.9h-16.3v-4.6H-580.2L-580.2,365.8L-580.2,365.8L-580.2,365.8z M-552.8,440
		c-3.7,6.1-8.6,11.4-14.5,15.5h-2.5h-6.7h-20.1v-5h28.2c2.5-1.9,4.8-4.1,6.9-6.5h-35.1v-5h38.9c2-3,3.6-6.3,4.8-9.7V440L-552.8,440z
		 M-552.8,338.7V365c-4.5-3.6-7.2-8.1-7.2-13.1C-560,346.9-557.3,342.3-552.8,338.7L-552.8,338.7z M-596.5,360.5v-21.8h7.2
		c5,0,9.2,4.1,9.2,9.2v12.7H-596.5L-596.5,360.5z M-563.3,354.8c-1.8-0.6-4.1-0.9-6.5-0.9c-2.6,0-4.9,0.4-6.8,1.1v-6.1
		c1.9,0.7,4.3,1.1,6.8,1.1c2.4,0,4.6-0.3,6.5-0.9c-0.2,1-0.3,1.9-0.3,2.9C-563.6,352.8-563.5,353.8-563.3,354.8z M-596.5,455.6
		h-20.1h-9h-0.1v-0.1c-13-9.2-21.5-24.4-21.5-41.5c0-22.4,14.5-41.4,34.6-48.1l0,0h16.2v4.6h-16.3c-17.5,6.6-30,23.5-30,43.4
		c0,9.3,2.7,17.9,7.4,25.2h38.9v5h-35.1c2.1,2.4,4.4,4.6,6.9,6.5h28.2V455.6L-596.5,455.6z M-596.5,338.7v21.8h-16.2v-12.7
		c0-5,4.1-9.2,9.2-9.2H-596.5z"/>
	<path class="st2" d="M-218,577.1c3.4,0,6.2,2.8,6.2,6.2V668c0,3.4-2.8,6.2-6.2,6.2v-3.5h0c1,0,1.8-0.8,1.8-1.8v-86.4
		c0-1-0.8-1.8-1.8-1.8h0V577.1z M-239.1,577.1h21.1h0v3.5c-1,0-1.8,0.8-1.8,1.8v86.4c0,1,0.8,1.8,1.8,1.8v3.5h0h-21.1
		c-3.4,0-6.2-2.8-6.2-6.2v-84.7C-245.3,579.9-242.5,577.1-239.1,577.1L-239.1,577.1z M-256.2,674.1v-3.4l0,0c1,0,1.8-0.8,1.8-1.8
		v-29.4c0-1-0.8-1.8-1.8-1.8v-3.4c3.2,0.2,5.7,2.9,5.7,6.2V668C-250.5,671.2-253,673.9-256.2,674.1L-256.2,674.1z M-256.2,631.7
		v-48.8c0.6,0.8,1,1.7,1,2.8v46.2C-255.5,631.8-255.8,631.8-256.2,631.7L-256.2,631.7z M-256.2,637.7 M-256.2,582.9v48.8
		c-0.2,0-0.3,0-0.5,0h-3.2v-3.3h1.6v-42.1c0-0.9-0.7-1.6-1.6-1.6v-3.5h0.2C-258.2,581.2-257,581.9-256.2,582.9L-256.2,582.9z
		 M-256.2,634.3v3.4l0,0c-1,0-1.8,0.8-1.8,1.8v29.4c0,1,0.8,1.8,1.8,1.8v3.4c-0.2,0-0.3,0-0.5,0h-3.2v-39.9h3.2
		C-256.5,634.3-256.3,634.3-256.2,634.3L-256.2,634.3z M-256.2,670.8 M-259.9,581.2v3.5l0,0c-0.9,0-1.6,0.7-1.6,1.6v42.1h1.6v3.3
		h-3.1v-50.5H-259.9L-259.9,581.2z M-259.9,634.3v39.9h-3.1v-39.9H-259.9L-259.9,634.3z M-262.9,579.2v-9c0.1,0,0.2,0.1,0.4,0.1h0
		c0.7,0,1.4-0.6,1.4-1.4v-16.3c0-2.1-0.7-6.3-1.7-7.9v-4c1.5,3.3,2.9,8.9,2.9,13.5v24.9H-262.9z M-262.9,540.7v4c0,0,0-0.1-0.1-0.1
		c-0.3-0.4-0.6-0.6-0.9-0.8c0,1.3-0.2,2.6-0.8,3.7c0.7,1.5,0.8,3.9,0.8,5.1v16.2c0,0.6,0.4,1.1,1,1.3v9h-11.4v-24.9
		c0-10.3,4.7-17.2,9.1-16.3C-264.5,538.1-263.7,539.1-262.9,540.7L-262.9,540.7z M-262.9,581.2v50.5h-14.8c-0.5,0-1,0.1-1.5,0.2
		v-46.2c0-2.4,2-4.4,4.4-4.4H-262.9L-262.9,581.2z M-262.9,634.3v39.9h-14.8c-3.4,0-6.2-2.8-6.2-6.2v-27.5c0-3.4,2.8-6.2,6.2-6.2
		H-262.9z"/>
	<g>
		<path class="st2" d="M-730,615.2v48.3c0,7.3-4.2,10.6-9.3,10.6h-31.5v-3.3l31.3,0c3.6-0.6,5.7-4.2,5.7-7.7v-44.5h-37v-3.3H-730z
			 M-770.9,674.2h-31.5c-5.1,0-9.3-3.3-9.3-10.6v-48.3h40.9v3.3h-37V663c0,4.1,1.9,7.8,5.6,7.8l31.4,0V674.2z"/>
		<path class="st2" d="M-779.1,612.5c7.5-20.2,28.6-4.5,32.6-25c7.8,5.4,10.8,13.8,10,25H-779.1z"/>
		<path class="st2" d="M-736.3,620.9v42.2c0,2.9-2.3,5.2-5.2,5.2h-59.9c-3,0-4.1-2.1-4.1-5.1v-25.7c7.3-13.3,17.1-7.7,22.9-16.6
			H-736.3z"/>
		<path class="st2" d="M-698,671.8l-5.9,2.4l-6.3-15.7v-17.2L-698,671.8L-698,671.8z M-710.2,624.1l18.2,45.3
			c35.1-15.2,15.9-76.5-18.2-77.8V624.1z M-710.2,658.4l-24.1-60.1l6-2.4l18.2,45.3V658.4L-710.2,658.4z M-710.2,591.5
			c-3.9-0.2-8,0.5-12.3,2l12.3,30.5V591.5z"/>
	</g>
	<g>
		<path class="st2" d="M467.5,315.9v259.6c0,39.3-22.6,57.1-50.1,57.1H247.8v-17.9l168.2-0.1c19.3-3.4,30.6-22.4,30.6-41.6V333.7
			H247.8v-17.8H467.5z M247.8,632.7H78.3c-27.6,0-50.1-17.9-50.1-57.1V315.9h219.6v17.8H49V573c0,21.8,10.4,41.9,30.1,41.9
			l168.8-0.1V632.7z"/>
		<path class="st2" d="M203.6,301.5c40.3-108.7,153.5-24.1,175.2-134.3c42,28.8,58,74.1,54,134.3H203.6z"/>
		<path class="st2" d="M433.6,346.7v226.7c0,15.7-12.6,27.9-28,27.9H83.8c-15.9,0-21.8-11.1-21.8-27.4V435.7
			c39-71.3,91.7-41.3,123.3-89H433.6z"/>
		<path class="st2" d="M639.8,619.9l-32,12.8l-33.9-84.5v-92.5L639.8,619.9L639.8,619.9z M573.8,363.8L671.5,607
			c188.5-81.8,85.6-411-97.6-418.3V363.8z M573.8,548.2L444.1,225.1l32-12.8l97.8,243.5V548.2L573.8,548.2z M573.8,188.6
			c-21-0.9-43.1,2.5-65.9,11l65.9,164.2V188.6z"/>
	</g>
	<path class="st2" d="M387.9,1068.5h117c15.4,0,28.1,12.6,28.1,28.1v15.3c-2.7,19.7-20.5,20.9-34.8,4c-7.7-9-19.2-14.7-31.9-14.7
		c-23.3,0-42.1,18.8-42.1,42.1c0,23.3,24,42.1,42.1,42.1c18.2,0,24.8-6,32.5-15.3c14.3-16.8,34.2-9.5,34.2,4.6v57.3
		c-2.7,19.7-20.5,20.9-34.8,4c-7.7-9-19.2-14.7-31.9-14.7c-23.3,0-42.1,18.9-42.1,42.1c0,23.3,24,42.1,42.1,42.1
		c18.2,0,24.8-6,32.5-15.3c14.3-16.8,34.2-9.5,34.2,4.6v57.3c-2.7,19.7-20.5,20.9-34.8,4c-7.7-9-19.2-14.7-31.9-14.7
		c-23.3,0-42.1,18.9-42.1,42.1c0,23.3,24,42.1,42.1,42.1c18.2,0,24.8-6,32.5-15.3c14.3-16.8,34.2-9.5,34.2,4.6v57.3
		c-2.7,19.8-20.5,20.9-34.8,4c-7.7-9-19.2-14.7-31.9-14.7c-23.3,0-42.1,18.8-42.1,42.1c0,23.3,24,42.1,42.1,42.1
		c18.2,0,24.8-6,32.5-15.3c14.3-16.8,34.2-9.5,34.2,4.6v15.4c0,15.4-12.6,28.1-28.1,28.1h-117c-15.4,0-28.1-12.6-28.1-28.1v-454
		C359.8,1081.1,372.4,1068.5,387.9,1068.5L387.9,1068.5z M303.8,1577.2V1565c2.1,0.1,4.2-1.9,4.2-6.2v-198.5c0-0.8-0.6-1.4-1.4-1.4
		h-2.8v-249.1l5.5,239.6h0.5c4.2,0,6.9,2.3,6.9,9.1v199.6C316.6,1566.7,311.3,1574.1,303.8,1577.2z M303.8,1109.8v249.1H301
		c-0.8,0-1.4,0.6-1.4,1.4v198.5c0,4,2.1,6.1,4.2,6.2v12.2c-2.4,1-5,1.5-7.7,1.5h-4.9v-229.3h11.6l-5.7-251.8h-5.9V1070l0.7-1.5
		l11.6,29.1L303.8,1109.8z M291.2,1070v27.6h-5.9l-5.7,251.8h11.6v229.3h-3.7c-11.3,0-20.5-9.2-20.5-20.5v-199.6
		c0-6.8,2.1-9.1,5.8-9.1h0.5l5.7-251.9L291.2,1070z"/>
	<path class="st2" d="M1417.8,277.1c14.4,0,26.3,11.8,26.3,26.3v360.4c0,14.4-11.8,26.3-26.3,26.3v-14.9h0c4.2,0,7.7-3.5,7.7-7.7
		V299.7c0-4.2-3.5-7.7-7.7-7.7h0V277.1z M1328.1,277.1h89.7h0V292c-4.2,0-7.7,3.5-7.7,7.7v367.8c0,4.2,3.5,7.7,7.7,7.7V690h0h-89.7
		c-14.5,0-26.3-11.8-26.3-26.3V303.4C1301.8,288.9,1313.6,277.1,1328.1,277.1L1328.1,277.1z M1255.4,690v-14.4l0,0
		c4.2,0,7.7-3.5,7.7-7.7V542.5c0-4.2-3.5-7.7-7.7-7.7v-14.4c13.5,1.1,24.2,12.4,24.2,26.2v117.1
		C1279.6,677.5,1268.9,688.9,1255.4,690L1255.4,690z M1255.4,509.5V301.5c2.6,3.2,4.1,7.3,4.1,11.7v196.8
		C1258.2,509.8,1256.8,509.6,1255.4,509.5L1255.4,509.5z M1255.4,534.8 M1255.4,301.5v207.9c-0.7,0-1.4-0.1-2.1-0.1h-13.6v-14.2h6.8
		v-179c0-3.7-3-6.8-6.8-6.8v-15h1C1246.6,294.4,1252,297.2,1255.4,301.5L1255.4,301.5z M1255.4,520.4v14.4l0,0
		c-4.2,0-7.7,3.5-7.7,7.7v125.3c0,4.2,3.5,7.7,7.7,7.7V690c-0.7,0.1-1.4,0.1-2.1,0.1h-13.6V520.3h13.6
		C1254.1,520.3,1254.7,520.4,1255.4,520.4L1255.4,520.4z M1255.4,675.5 M1239.7,294.4v15l0,0c-3.7,0-6.8,3-6.8,6.8v179h6.8v14.2
		h-13.1V294.4H1239.7L1239.7,294.4z M1239.7,520.3V690h-13.1V520.3H1239.7L1239.7,520.3z M1226.6,285.7v-38.2
		c0.5,0.2,1.1,0.2,1.6,0.2h0c3.2,0,5.8-2.6,5.8-5.8v-69.3c0-8.8-3.2-26.9-7.4-33.5v-17c6.6,14.1,12.2,38.1,12.2,57.5v106.1H1226.6z
		 M1226.6,122.1v17c-0.1-0.2-0.2-0.3-0.3-0.5c-1.2-1.6-2.4-2.7-3.6-3.2c0.2,5.4-0.8,11-3.4,15.8c3,6.3,3.2,16.4,3.2,21.8v69
		c0,2.6,1.8,4.8,4.1,5.5v38.2h-48.3V179.5c0-43.7,20.1-73.1,38.7-69.3C1220.1,110.8,1223.4,115.3,1226.6,122.1L1226.6,122.1z
		 M1226.6,294.4v214.9h-62.9c-2.1,0-4.2,0.3-6.2,0.7V313.3c0-10.4,8.5-18.9,18.9-18.9H1226.6L1226.6,294.4z M1226.6,520.3V690h-62.9
		c-14.5,0-26.3-11.8-26.3-26.3V546.6c0-14.5,11.8-26.3,26.3-26.3H1226.6z"/>
	<path class="st2" d="M1384.6,1029.2h2.6c3,0,5.4,2.4,5.4,5.4v62.2c16.3,16.8,37.2,44.8,8.8,68.8h-16.7v-3.9h15.3
		c7.2-6.4,12.2-14.4,11.5-24.5c-0.5-7.9-4.3-15.5-8.6-21.9c-3-4.5-6.6-8.8-10.3-12.8v0h-8v-6.7h2.1v-59.2c0-0.4-0.3-0.7-0.7-0.7
		h-1.4V1029.2z M1376.2,1029.2h8.4v6.7h-1.4c-0.4,0-0.7,0.3-0.7,0.7v59.2h2.1v6.7h-4.9v36.2c0.8,3.6,8.7,17.8-3.5,17.8l0,0V1029.2
		L1376.2,1029.2z M1384.6,1165.5h-8.4v-3.9h8.4V1165.5z M1365.2,1029.2h11v127.2c-12.2,0-4.4-14.2-3.5-17.8v-36.2h-12.8v0
		c-3.7,4-7.2,8.3-10.3,12.8c-11.2,16.6-12.8,32.4,2.9,46.4h23.7v3.9H1351c-28.4-24-7.5-52,8.8-68.8v-62.1
		C1359.8,1031.6,1362.2,1029.2,1365.2,1029.2z"/>
	<g>
		<path class="st2" d="M1183.5,1165.5h34.3c2.3,0,4.2-1.9,4.2-4.2v-67.6c0-20.3-42.6-20.2-42.6,0v67.6
			C1179.3,1163.6,1181.2,1165.5,1183.5,1165.5z"/>
		<rect x="1189.1" y="1074.9" class="st2" width="23.1" height="20.2"/>
		<path class="st2" d="M1200.6,1057.5h11.5c1.2,0,2.1,1,2.1,2.1v11.5c0,1.2-1,2.1-2.1,2.1h-11.5v3.5h11.5c3.1,0,5.6-2.5,5.6-5.6
			v-11.5c0-3.1-2.5-5.6-5.6-5.6h-11.5V1057.5z M1189.1,1057.5h11.5v-3.5h-11.5c-3.1,0-5.6,2.5-5.6,5.6v11.5c0,3.1,2.5,5.6,5.6,5.6
			h11.5v-3.5h-11.5c-1.2,0-2.1-1-2.1-2.1v-11.5C1186.9,1058.5,1187.9,1057.5,1189.1,1057.5z"/>
		<rect x="1196.8" y="1034.5" class="st2" width="7.7" height="21.5"/>
		<path class="st2" d="M1193.4,1030.3h32.3c5.7,0,9.1,3.7,10.3,7.1h-5.9c-0.5-0.9-2.1-1.5-3.7-1.4l-33.1,1.1c-1.2,0-2.1-1-2.1-2.1
			v-2.6C1191.3,1031.3,1192.3,1030.3,1193.4,1030.3z"/>
		<path class="st2" d="M1212.1,1056v-4c0-1.3-1.1-2.4-2.4-2.4h-18.3c-1.3,0-2.4,1.1-2.4,2.4v4H1212.1z"/>
		<path class="st3" d="M1212.5,1161.1h3.9c0.3,0,0.5-0.2,0.5-0.5V1095c0-6.3-5.6-12.9-7.4-11.8c-1.2,0.8,2.6,2.7,2.6,11.8v65.7
			C1212,1160.9,1212.3,1161.1,1212.5,1161.1z"/>
	</g>
	<g>
		<path class="st2" d="M1547.1,1162.4c3.6-2.7,5.9-7.1,5.9-11.9v-76.8c0-2.4-1.9-4.3-4.3-4.3h-1.7v4.6h2.1c0.5,0,0.8,0.4,0.8,0.8
			v79.9c0,1.6-1.3,2.9-2.9,2.9h-0.1V1162.4z M1537.3,1165.5h0.7c3.4,0,6.5-1.1,9-3.1v-4.7h-0.1c-1.6,0-2.9-1.3-2.9-2.9v-79.9
			c0-0.5,0.4-0.8,0.8-0.8h2.1v-4.6h-20.5c-2.4,0-4.3,1.9-4.3,4.3v76.8C1522.3,1158.8,1529.1,1165.5,1537.3,1165.5z"/>
		<path class="st2" d="M1538.7,1025c3.2,0.1,6.2,0.7,9.1,1.6l-4,21.9l5.9-21.2c2.6,1.1,5,2.4,7.1,4.1l-8,19.6l9.6-18.3
			c1.9,1.6,3.6,3.5,5,5.5l-12.1,28.4h-27.2l-12.1-28.4c1.5-2.1,3.3-4.1,5.4-5.8l9.6,17.9l-8-19.1c2.2-1.6,4.6-3,7.2-4l6.3,21.5
			l-4.3-22.2c2.7-0.9,5.6-1.4,8.6-1.5l1,22.4L1538.7,1025z"/>
		<path class="st2" d="M1584.3,1163.6c2.2-1.7,3.6-4.3,3.6-7.2v-59.2c0-1.4-1.2-2.6-2.6-2.6h-1v2.8h1.3c0.3,0,0.5,0.2,0.5,0.5v61.1
			c0,1-0.8,1.8-1.8,1.8h0V1163.6z M1578.3,1165.5h0.4c2.1,0,4-0.7,5.5-1.9v-2.9h0c-1,0-1.8-0.8-1.8-1.8V1098c0-0.3,0.2-0.5,0.5-0.5
			h1.3v-2.8h-12.4c-1.4,0-2.6,1.2-2.6,2.6v59.2C1569.2,1161.4,1573.3,1165.5,1578.3,1165.5z"/>
		<path class="st2" d="M1579.2,1054.9c1.9,0.1,3.8,0.4,5.5,1l-2.4,13.3l3.6-12.9c1.6,0.6,3,1.5,4.3,2.5l-4.8,11.9l5.8-11.1
			c1.1,1,2.2,2.1,3,3.3l-7.6,28.7h-16.5l-7.1-28.7c0.9-1.3,2-2.5,3.3-3.5l5.8,10.9l-4.9-11.6c1.3-1,2.8-1.8,4.4-2.4l3.8,13.1
			l-2.6-13.5c1.7-0.5,3.4-0.8,5.2-0.9l0.6,13.6L1579.2,1054.9z"/>
	</g>
	<g>
		<path class="st2" d="M1371.2,1380.5c2.1-0.1,3.7-1.8,3.7-3.9v-45.4c0-2.1-1.6-3.8-3.7-3.9v2.3h0.7c0.3,0,0.5,0.2,0.5,0.5v48
			c0,0.3-0.2,0.5-0.5,0.5h-0.7V1380.5z M1360,1380.5h11c0.1,0,0.1,0,0.2,0v-2h-0.7c-0.3,0-0.5-0.2-0.5-0.5v-48
			c0-0.3,0.2-0.5,0.5-0.5h0.7v-2.3c-0.1,0-0.1,0-0.2,0h-11c-2.1,0-3.9,1.7-3.9,3.9v45.4C1356.1,1378.7,1357.8,1380.5,1360,1380.5z"
			/>
		<path class="st2" d="M1363.5,1325h1.9v-48.2h-1.9V1325L1363.5,1325z M1366.9,1325h1v-48.2h-1V1325z"/>
		<g>
			<path class="st2" d="M1368.4,1241.3h-5.5C1364.5,1239.5,1366.8,1239.5,1368.4,1241.3z"/>
			<path class="st2" d="M1361.9,1242.9h7.4c0.2,0.4,0.3,0.9,0.4,1.3h-8.3C1361.6,1243.7,1361.8,1243.3,1361.9,1242.9z"/>
			<path class="st2" d="M1361.3,1245.9h8.8c0,0.4,0,0.7,0,1.1v0.3h-8.9v-0.3C1361.2,1246.6,1361.3,1246.2,1361.3,1245.9z"/>
			<rect x="1361.2" y="1248.8" class="st2" width="8.9" height="1.3"/>
			<rect x="1361.2" y="1251.8" class="st2" width="8.9" height="1.3"/>
			<rect x="1361.2" y="1254.7" class="st2" width="8.9" height="1.3"/>
			<rect x="1361.2" y="1257.7" class="st2" width="8.9" height="1.3"/>
			<rect x="1361.2" y="1260.7" class="st2" width="8.9" height="1.3"/>
			<rect x="1361.2" y="1263.6" class="st2" width="8.9" height="1.3"/>
			<rect x="1361.2" y="1266.6" class="st2" width="8.9" height="1.3"/>
			<rect x="1361.2" y="1269.5" class="st2" width="8.9" height="1.3"/>
			<rect x="1361.2" y="1272.5" class="st2" width="8.9" height="1.3"/>
			<rect x="1361.2" y="1275.5" class="st2" width="8.9" height="1.3"/>
		</g>
		<rect x="1364.6" y="1240.6" class="st2" width="2.1" height="36.2"/>
		<path class="st2" d="M1392.5,1380.5c2.1-0.1,3.7-1.8,3.7-3.9v-86.5c0-2.1-1.6-3.8-3.7-3.9v2.3h0.7c0.3,0,0.5,0.2,0.5,0.5v89.1
			c0,0.3-0.2,0.5-0.5,0.5h-0.7V1380.5z M1381.3,1380.5h11c0.1,0,0.1,0,0.2,0v-2h-0.7c-0.3,0-0.5-0.2-0.5-0.5v-89.1
			c0-0.3,0.2-0.5,0.5-0.5h0.7v-2.3c-0.1,0-0.1,0-0.2,0h-11c-2.1,0-3.9,1.8-3.9,3.9v86.5C1377.4,1378.7,1379.2,1380.5,1381.3,1380.5z
			"/>
		<rect x="1380.5" y="1282.5" class="st2" width="12.6" height="2.2"/>
		<rect x="1379.5" y="1279.5" class="st2" width="14.8" height="2.2"/>
		<rect x="1379.5" y="1276.4" class="st2" width="14.8" height="2.2"/>
		<rect x="1380.5" y="1273.4" class="st2" width="12.6" height="2.2"/>
	</g>
	<g>
		<g>
			<path class="st2" d="M1376.2,1477.7c10.1,0,20.2,4.3,27.2,12.6c12.4,14.6,10.9,36.4-3.1,49.2l-24.1-28.6V1477.7L1376.2,1477.7z
				 M1376.2,1549c7.7,0,15.4-2.5,21.8-7.5l-21.8-25.8V1549z M1354.3,1485.2c6.5-5,14.2-7.5,21.8-7.5v33.3L1354.3,1485.2
				L1354.3,1485.2z M1376.2,1515.7l-24.1-28.6c-14,12.9-15.5,34.6-3.1,49.2c7,8.3,17.1,12.6,27.2,12.6V1515.7z"/>
			<path class="st2" d="M1376.2,1458.6c15.5,0,31,6.6,41.8,19.4c17.2,20.3,17,49.5,0.9,69.5l-2.3-2.7l-16.1,13.6l2.3,2.7
				c-8.3,4.6-17.5,6.9-26.6,6.9v-15.6c8.9,0,17.9-3,25.3-9.3c16.5-14,18.6-38.7,4.6-55.2c-7.7-9.2-18.8-13.9-29.9-13.9V1458.6z
				 M1340.8,1471.5c10.3-8.7,22.8-12.9,35.3-12.9v15.6c-8.9,0-17.9,3-25.3,9.3c-16.5,14-18.6,38.7-4.6,55.2
				c7.7,9.2,18.8,13.9,29.9,13.9v15.6c-15.5,0-31-6.6-41.8-19.4C1314.9,1525.6,1317.7,1491.1,1340.8,1471.5z"/>
		</g>
		<path class="st2" d="M1418.7,1597.8v-2.6c5.8,0,10.4-4.7,10.4-10.4c0-5.8-4.7-10.4-10.4-10.4v-2.6c0.1,0,0.3,0,0.4,0
			c18,0,18,26.1,0,26.1C1418.9,1597.8,1418.8,1597.8,1418.7,1597.8z M1333.7,1574.3c5.8,0,10.4,4.7,10.4,10.4
			c0,5.8-4.7,10.4-10.4,10.4v2.6c10.3-0.2,15.2-7.5,18.8-7.5h47.3c3.7,0,8.5,7.3,18.8,7.5v-2.6h0c-5.8,0-10.4-4.7-10.4-10.4
			c0-5.8,4.7-10.4,10.4-10.4h0v-2.6c-10.3,0.2-15.2,7.5-18.8,7.5h-47.3c-3.7,0-8.5-7.3-18.8-7.5V1574.3z M1333.7,1574.3
			L1333.7,1574.3v-2.6c-0.1,0-0.3,0-0.4,0c-18,0-18,26.1,0,26.1c0.1,0,0.3,0,0.4,0v-2.6l0,0c-5.8,0-10.4-4.7-10.4-10.4
			C1323.2,1579,1327.9,1574.3,1333.7,1574.3z"/>
	</g>
	<path class="st2" d="M1036.5,1252.3h29.1c3.8,0,7,3.1,7,7v3.8c-0.7,4.9-5.1,5.2-8.7,1c-1.9-2.2-4.8-3.7-7.9-3.7
		c-5.8,0-10.5,4.7-10.5,10.5c0,5.8,6,10.5,10.5,10.5c4.5,0,6.2-1.5,8.1-3.8c3.6-4.2,8.5-2.4,8.5,1.1v14.3c-0.7,4.9-5.1,5.2-8.7,1
		c-1.9-2.2-4.8-3.7-7.9-3.7c-5.8,0-10.5,4.7-10.5,10.5c0,5.8,6,10.5,10.5,10.5c4.5,0,6.2-1.5,8.1-3.8c3.6-4.2,8.5-2.4,8.5,1.1v14.3
		c-0.7,4.9-5.1,5.2-8.7,1c-1.9-2.2-4.8-3.7-7.9-3.7c-5.8,0-10.5,4.7-10.5,10.5c0,5.8,6,10.5,10.5,10.5c4.5,0,6.2-1.5,8.1-3.8
		c3.6-4.2,8.5-2.4,8.5,1.1v14.3c-0.7,4.9-5.1,5.2-8.7,1c-1.9-2.2-4.8-3.7-7.9-3.7c-5.8,0-10.5,4.7-10.5,10.5s6,10.5,10.5,10.5
		c4.5,0,6.2-1.5,8.1-3.8c3.6-4.2,8.5-2.4,8.5,1.1v3.8c0,3.8-3.1,7-7,7h-29.1c-3.8,0-7-3.1-7-7v-113
		C1029.6,1255.5,1032.7,1252.3,1036.5,1252.3L1036.5,1252.3z M1015.6,1379v-3c0.5,0,1-0.5,1-1.5V1325c0-0.2-0.2-0.3-0.3-0.3h-0.7
		v-62l1.4,59.7h0.1c1,0,1.7,0.6,1.7,2.3v49.7C1018.8,1376.4,1017.5,1378.2,1015.6,1379z M1015.6,1262.6v62h-0.7
		c-0.2,0-0.3,0.2-0.3,0.3v49.4c0,1,0.5,1.5,1,1.5v3c-0.6,0.2-1.2,0.4-1.9,0.4h-1.2v-57.1h2.9l-1.4-62.7h-1.5v-6.9l0.2-0.4l2.9,7.2
		L1015.6,1262.6z M1012.5,1252.7v6.9h-1.5l-1.4,62.7h2.9v57.1h-0.9c-2.8,0-5.1-2.3-5.1-5.1v-49.7c0-1.7,0.5-2.3,1.4-2.3h0.1
		l1.4-62.7L1012.5,1252.7z"/>
	<path class="st2" d="M1580,1320.6c3.3-23.1,5.5-47.3,4.6-56.9h-4.6v1.8h2.3v14.3h-2.3V1320.6z M1573.2,1358.3
		c2.3-9.6,4.7-23.4,6.7-37.7v-40.7h-2.3v-14.3h2.3v-1.8h-6.7v1.8h2.3v14.3h-2.3v18.7c0.4-3.5,0.8-7.1,1.1-10.5
		c0.1-1.3,1.2-2.3,2.3-2.1c1.2,0.1,2,1.3,1.9,2.7c-1,10.6-2.3,21.7-4.1,32.7c-0.4,2.5-0.8,4.9-1.2,7.3V1358.3z M1566.5,1380.5h0.7
		c3.1,0,5.6-2.9,5.6-6.4v-14.2c0.1-0.5,0.3-1,0.4-1.6v-29.6c-1.5,8.5-3.3,16.7-5.4,24.2c-0.2,0.8-0.7,1.3-1.4,1.6v5.4h3.9v13.8
		c0,2.3-1.7,4.3-3.7,4.3h-0.1V1380.5L1566.5,1380.5z M1573.2,1263.7v1.8h-2.3v14.3h2.3v18.7c-0.8,7.3-1.8,14.6-2.9,21.9
		c-1.1,6.9-2.3,13.7-3.8,20.2v-60.8h2.3v-14.3h-2.3v-1.8H1573.2z M1559.8,1380.5h6.7v-2.5h-6.7V1380.5L1559.8,1380.5z
		 M1566.5,1263.7h-6.7v1.8h2.3v14.3h-2.3v80h6.7v-5.4c-0.4,0.2-0.9,0.2-1.3,0c-1.1-0.4-1.7-1.8-1.4-3c1-3.5,1.8-7,2.7-10.7v-60.8
		h-2.3v-14.3h2.3V1263.7z M1553.1,1380.5h6.7v-2.5h-6.7V1380.5L1553.1,1380.5z M1559.8,1263.7h-6.7v1.8h2.3v14.3h-2.3v80h6.7v-80
		h-2.3v-14.3h2.3V1263.7z M1546.3,1380.5h6.7v-2.5h-6.7V1380.5L1546.3,1380.5z M1553.1,1263.7h-6.7v1.8h2.3v14.3h-2.3v80h6.7v-80
		h-2.3v-14.3h2.3V1263.7z M1539.6,1380.5h6.7v-2.5h-6.7V1380.5L1539.6,1380.5z M1546.3,1263.7h-6.7v1.8h2.3v14.3h-2.3v80h6.7v-80
		h-2.3v-14.3h2.3V1263.7z M1538.9,1380.5h0.7v-2.5h-0.1c-2,0-3.7-1.9-3.7-4.3v-13.8h3.9v-80h-2.3v-14.3h2.3v-1.8h-6.7v1.8h2.3v14.3
		h-2.3v78.4c0.1,0.5,0.3,1.1,0.4,1.6v14.2C1533.3,1377.6,1535.8,1380.5,1538.9,1380.5z M1532.9,1263.7h-6.7v1.8h2.3v14.3h-2.3v40.7
		c2,14.2,4.4,28,6.7,37.7v-78.4h-2.3v-14.3h2.3V1263.7z M1526.2,1263.7h-4.6c-0.9,9.6,1.3,33.8,4.6,56.9v-40.7h-2.3v-14.3h2.3
		V1263.7z"/>
	<path class="st2" d="M1064.4,1150.2c7-8.4,1-31.4-5.1-45.8v-11.4c11.7,20.5,23.1,55.9,9.3,72.4h-9.3v-3.7h7.5
		c1.6-2.3,2.7-5,3.4-7.8h-10.9V1114c3.4,12.6,5,27.5,0.7,34.5C1057.7,1152.3,1062.5,1152.5,1064.4,1150.2z M1059.3,1104.5
		c-1.4-3.3-2.8-6.2-4.1-8.2c-2.3-3.9-6.4-5.3-2.7,0.5c2.3,3.7,4.8,10.1,6.8,17.2v40.1h-19.7v-69.9h12.3l-6.2-50.4
		c-0.3-2.4-3.2-3.6-6.1-3.6v-3.6c4.6,0,9.2,2.3,9.7,6.8l6.8,54.5h0c1.1,1.6,2.2,3.4,3.3,5.3V1104.5L1059.3,1104.5z M1059.3,1161.9
		v3.7h-19.7v-3.7H1059.3z M1039.6,1026.4v3.6c-2.9,0-5.8,1.2-6.1,3.6l-6.2,50.4h12.3v69.9h-30.7c0.7,2.9,1.8,5.5,3.4,7.8h27.3v3.7
		h-29.1c-15.1-18.1,0-58.8,12.6-77.7h0l6.8-54.5C1030.4,1028.7,1035,1026.4,1039.6,1026.4z"/>
	<path class="st2" d="M1219,1461.5c9.5,0,17.2,9.4,17.2,20.9s-9.7,20.9-17.2,20.9v-3.7c7.4,0,13.4-7.7,13.4-17.2
		c0-9.5-6-17.2-13.4-17.2V1461.5z M1205.5,1577l-4.5,19v-29.7c0.6-0.1,1.1-0.4,1.5-0.8c1.1-1.1,1.1-2.7,0.3-3.9l-1.8,1.8v-1.1
		l1.2-1.2c-0.4-0.3-0.8-0.5-1.2-0.5v-4.1c0.3,0,0.5-0.1,0.8-0.1v-73.9c0-11.5,7.7-20.9,17.2-20.9v3.7c-7.4,0-13.4,7.7-13.4,17.2
		c0,9.5,6,17.2,13.4,17.2v3.7c-7.5,0-13.4,3.1-13.4,8.9v44.1v10V1577z M1201,1595.9l-0.4,1.9l-3-12.8v-21c0.1,0.4,0.3,0.8,0.5,1.1
		l2.9-2.9v1.1l-2.4,2.4c0.7,0.5,1.6,0.7,2.4,0.5V1595.9L1201,1595.9z M1197.6,1557.9v4.8c0.1-0.5,0.4-1,0.8-1.4
		c0.7-0.7,1.7-1,2.7-0.8v-4.1C1199.8,1556.5,1198.6,1557,1197.6,1557.9L1197.6,1557.9z M1197.6,1555.4v-82.5
		c1.2,2.8,1.9,6.1,1.9,9.5v72C1198.8,1554.7,1198.1,1555,1197.6,1555.4z M1197.6,1585l-1.9-8v-15.5c0-1.4,0.8-2.7,1.9-3.6v4.8
		c-0.1,0.4-0.1,0.9,0,1.3V1585L1197.6,1585z M1197.6,1472.9v82.5c-1.1,0.7-1.8,1.6-1.9,2.2v-45.5c0-5.7-6-8.9-13.4-8.9l0,0v-3.7l0,0
		c7.4,0,13.4-7.7,13.4-17.2c0-9.5-6-17.2-13.4-17.2l0,0v-3.7l0,0C1189,1461.5,1194.7,1466.1,1197.6,1472.9z M1182.3,1461.5v3.7
		c-7.4,0-13.4,7.7-13.4,17.2c0,9.5,6,17.2,13.4,17.2v3.7c-7.5,0-17.2-9.4-17.2-20.9S1172.8,1461.5,1182.3,1461.5z"/>
	<path class="st2" d="M1248.1,1311.5c4.6,7.6,7.2,16.5,7.2,26.1c0,9.5-2.6,18.5-7.2,26.1v-10.8c1.7-4.8,2.6-10,2.6-15.4
		c0-5.4-0.9-10.6-2.6-15.4V1311.5L1248.1,1311.5z M1248.1,1288.6v-26.2c5.8-4.6,14.6-7.5,24.5-7.5c17.5,0,31.7,9.3,31.7,20.7
		c0,11.4-14.2,20.7-31.7,20.7C1262.7,1296.2,1253.9,1293.2,1248.1,1288.6z M1220.8,1289.4c11.5,3.9,21.2,11.8,27.4,22.1v10.5
		c-4.5-12.9-14.6-23.1-27.4-27.9h-16.3v-4.6H1220.8L1220.8,1289.4L1220.8,1289.4L1220.8,1289.4z M1248.1,1363.7
		c-3.7,6.1-8.6,11.4-14.5,15.5h-2.5h-6.7h-20.1v-5h28.2c2.5-1.9,4.8-4.1,6.9-6.5h-35.1v-5h38.9c2-3,3.6-6.3,4.8-9.7V1363.7
		L1248.1,1363.7z M1248.1,1262.4v26.2c-4.5-3.6-7.2-8.1-7.2-13.1C1240.9,1270.5,1243.6,1265.9,1248.1,1262.4L1248.1,1262.4z
		 M1204.5,1284.1v-21.8h7.2c5,0,9.2,4.1,9.2,9.2v12.7H1204.5L1204.5,1284.1z M1237.6,1278.4c-1.8-0.6-4.1-0.9-6.5-0.9
		c-2.6,0-4.9,0.4-6.8,1.1v-6.1c1.9,0.7,4.3,1.1,6.8,1.1c2.4,0,4.6-0.3,6.5-0.9c-0.2,1-0.3,1.9-0.3,2.9
		C1237.3,1276.5,1237.4,1277.5,1237.6,1278.4z M1204.5,1379.2h-20.1h-9h-0.1v-0.1c-13-9.2-21.5-24.4-21.5-41.5
		c0-22.4,14.5-41.4,34.6-48.1l0,0h16.2v4.6h-16.3c-17.5,6.6-30,23.5-30,43.4c0,9.3,2.7,17.9,7.4,25.2h38.9v5h-35.1
		c2.1,2.4,4.4,4.6,6.9,6.5h28.2V1379.2L1204.5,1379.2z M1204.5,1262.3v21.8h-16.2v-12.7c0-5,4.1-9.2,9.2-9.2H1204.5z"/>
	<path class="st2" d="M1582.9,1500.8c3.4,0,6.2,2.8,6.2,6.2v84.7c0,3.4-2.8,6.2-6.2,6.2v-3.5h0c1,0,1.8-0.8,1.8-1.8v-86.4
		c0-1-0.8-1.8-1.8-1.8h0V1500.8z M1561.8,1500.8h21.1h0v3.5c-1,0-1.8,0.8-1.8,1.8v86.4c0,1,0.8,1.8,1.8,1.8v3.5h0h-21.1
		c-3.4,0-6.2-2.8-6.2-6.2v-84.7C1555.7,1503.5,1558.4,1500.8,1561.8,1500.8L1561.8,1500.8z M1544.8,1597.8v-3.4l0,0
		c1,0,1.8-0.8,1.8-1.8v-29.4c0-1-0.8-1.8-1.8-1.8v-3.4c3.2,0.2,5.7,2.9,5.7,6.2v27.5C1550.5,1594.8,1547.9,1597.5,1544.8,1597.8
		L1544.8,1597.8z M1544.8,1555.4v-48.8c0.6,0.8,1,1.7,1,2.8v46.2C1545.4,1555.4,1545.1,1555.4,1544.8,1555.4L1544.8,1555.4z
		 M1544.8,1561.3 M1544.8,1506.5v48.8c-0.2,0-0.3,0-0.5,0h-3.2v-3.3h1.6v-42.1c0-0.9-0.7-1.6-1.6-1.6v-3.5h0.2
		C1542.7,1504.8,1544,1505.5,1544.8,1506.5L1544.8,1506.5z M1544.8,1557.9v3.4l0,0c-1,0-1.8,0.8-1.8,1.8v29.4c0,1,0.8,1.8,1.8,1.8
		v3.4c-0.2,0-0.3,0-0.5,0h-3.2v-39.9h3.2C1544.4,1557.9,1544.6,1557.9,1544.8,1557.9L1544.8,1557.9z M1544.8,1594.4 M1541.1,1504.8
		v3.5l0,0c-0.9,0-1.6,0.7-1.6,1.6v42.1h1.6v3.3h-3.1v-50.5H1541.1L1541.1,1504.8z M1541.1,1557.9v39.9h-3.1v-39.9H1541.1
		L1541.1,1557.9z M1538,1502.8v-9c0.1,0,0.2,0.1,0.4,0.1h0c0.7,0,1.4-0.6,1.4-1.4v-16.3c0-2.1-0.7-6.3-1.7-7.9v-4
		c1.5,3.3,2.9,8.9,2.9,13.5v24.9H1538z M1538,1464.3v4c0,0,0-0.1-0.1-0.1c-0.3-0.4-0.6-0.6-0.9-0.8c0,1.3-0.2,2.6-0.8,3.7
		c0.7,1.5,0.8,3.9,0.8,5.1v16.2c0,0.6,0.4,1.1,1,1.3v9h-11.4v-24.9c0-10.3,4.7-17.2,9.1-16.3
		C1536.5,1461.7,1537.3,1462.8,1538,1464.3L1538,1464.3z M1538,1504.8v50.5h-14.8c-0.5,0-1,0.1-1.5,0.2v-46.2c0-2.4,2-4.4,4.4-4.4
		H1538L1538,1504.8z M1538,1557.9v39.9h-14.8c-3.4,0-6.2-2.8-6.2-6.2v-27.5c0-3.4,2.8-6.2,6.2-6.2H1538z"/>
	<g>
		<path class="st2" d="M1070.9,1538.8v48.3c0,7.3-4.2,10.6-9.3,10.6H1030v-3.3l31.3,0c3.6-0.6,5.7-4.2,5.7-7.7v-44.5h-37v-3.3
			H1070.9z M1030,1597.8h-31.5c-5.1,0-9.3-3.3-9.3-10.6v-48.3h40.9v3.3h-37v44.5c0,4.1,1.9,7.8,5.6,7.8l31.4,0V1597.8z"/>
		<path class="st2" d="M1021.8,1536.2c7.5-20.2,28.6-4.5,32.6-25c7.8,5.4,10.8,13.8,10,25H1021.8z"/>
		<path class="st2" d="M1064.6,1544.6v42.2c0,2.9-2.3,5.2-5.2,5.2h-59.9c-3,0-4.1-2.1-4.1-5.1v-25.7c7.3-13.3,17.1-7.7,22.9-16.6
			H1064.6z"/>
		<path class="st2" d="M1103,1595.4l-5.9,2.4l-6.3-15.7v-17.2L1103,1595.4L1103,1595.4z M1090.7,1547.7l18.2,45.3
			c35.1-15.2,15.9-76.5-18.2-77.8V1547.7z M1090.7,1582.1l-24.1-60.1l6-2.4l18.2,45.3V1582.1L1090.7,1582.1z M1090.7,1515.1
			c-3.9-0.2-8,0.5-12.3,2l12.3,30.5V1515.1z"/>
	</g>
</g>
</svg>
