<?xml version="1.0" encoding="utf-8"?>
<!-- Generator: Adobe Illustrator 19.0.0, SVG Export Plug-In . SVG Version: 6.00 Build 0)  -->
<svg version="1.1" id="Layer_1" xmlns="http://www.w3.org/2000/svg" xmlns:xlink="http://www.w3.org/1999/xlink" x="0px" y="0px"
	 viewBox="0 0 283.5 11.2" style="enable-background:new 0 0 283.5 11.2;" xml:space="preserve">
<style type="text/css">
	.st0{fill:#BBBDBF;}
	.st1{fill:url(#SVGID_1_);}
</style>
<g id="New_Symbol_22">
</g>
<g>
	<path class="st0" d="M6.9,6.8c22.4-1,44.9-1.5,67.3-1.8l8.4-0.1L91,4.7l16.8-0.2c2.8,0,5.6,0,8.4,0l8.4,0l16.8-0.1l16.8,0.1l8.4,0
		c2.8,0,5.6,0,8.4,0L192,4.7l8.4,0.1l8.4,0.1c22.4,0.3,44.9,0.8,67.3,1.8v0.3L141.5,7.2L6.9,7.1V6.8z"/>
	<linearGradient id="SVGID_1_" gradientUnits="userSpaceOnUse" x1="141.5083" y1="7.1934" x2="141.5083" y2="4.4443">
		<stop  offset="0" style="stop-color:#FFFFFF"/>
		<stop  offset="0.221" style="stop-color:#FCFCFC"/>
		<stop  offset="0.4029" style="stop-color:#F2F2F2"/>
		<stop  offset="0.5709" style="stop-color:#E0E1E1"/>
		<stop  offset="0.7306" style="stop-color:#C8C9CA"/>
		<stop  offset="0.8829" style="stop-color:#A9ABAC"/>
		<stop  offset="1" style="stop-color:#8C8E8F"/>
	</linearGradient>
	<path class="st1" d="M6.9,6.8c22.4-1,44.9-1.5,67.3-1.8l8.4-0.1L91,4.7l16.8-0.2c2.8,0,5.6,0,8.4,0l8.4,0l16.8-0.1l16.8,0.1l8.4,0
		c2.8,0,5.6,0,8.4,0L192,4.7l8.4,0.1l8.4,0.1c22.4,0.3,44.9,0.8,67.3,1.8v0.3L141.5,7.2L6.9,7.1V6.8z"/>
</g>
</svg>
