<?xml version="1.0" encoding="utf-8"?>
<!-- Generator: Adobe Illustrator 19.0.0, SVG Export Plug-In . SVG Version: 6.00 Build 0)  -->
<svg version="1.1" id="Layer_1" xmlns="http://www.w3.org/2000/svg" xmlns:xlink="http://www.w3.org/1999/xlink" x="0px" y="0px"
	 viewBox="0 0 247 228" style="enable-background:new 0 0 247 228;" xml:space="preserve">
<style type="text/css">
	.st0{fill:#FFFFFF;}
</style>
<g>
	<path class="st0" d="M240.1,41.8c-8.6,3.8-17.8,6.4-27.5,7.6c9.9-5.9,17.5-15.3,21.1-26.5c-9.3,5.5-19.5,9.5-30.5,11.6
		c-8.7-9.3-21.2-15.1-34.9-15.1c-26.4,0-47.9,21.4-47.9,47.9c0,3.8,0.4,7.4,1.2,10.9c-39.8-2-75.1-21-98.7-50
		c-4.1,7.1-6.5,15.3-6.5,24.1c0,16.6,8.5,31.3,21.3,39.8c-7.8-0.2-15.2-2.4-21.6-6v0.6c0,23.2,16.5,42.6,38.4,47
		c-4,1.1-8.3,1.6-12.6,1.6c-3.1,0-6.1-0.3-9-0.8c6.1,19,23.8,32.8,44.7,33.3c-16.4,12.8-37.1,20.4-59.5,20.4
		c-3.8,0-7.6-0.2-11.4-0.6C27.9,201.1,53.1,209,80.1,209c88,0,136.2-72.9,136.2-136.2l-0.1-6.2C225.6,59.9,233.7,51.4,240.1,41.8
		L240.1,41.8z M240.1,41.8"/>
</g>
</svg>
